G04 #@! TF.GenerationSoftware,KiCad,Pcbnew,5.1.6-c6e7f7d~87~ubuntu19.10.1*
G04 #@! TF.CreationDate,2021-03-31T16:12:46-04:00*
G04 #@! TF.ProjectId,helios,68656c69-6f73-42e6-9b69-6361645f7063,v1.0*
G04 #@! TF.SameCoordinates,Original*
G04 #@! TF.FileFunction,Soldermask,Bot*
G04 #@! TF.FilePolarity,Negative*
%FSLAX46Y46*%
G04 Gerber Fmt 4.6, Leading zero omitted, Abs format (unit mm)*
G04 Created by KiCad (PCBNEW 5.1.6-c6e7f7d~87~ubuntu19.10.1) date 2021-03-31 16:12:46*
%MOMM*%
%LPD*%
G01*
G04 APERTURE LIST*
%ADD10R,1.800000X1.800000*%
%ADD11O,1.800000X1.800000*%
%ADD12C,3.101600*%
%ADD13O,1.300000X1.850000*%
%ADD14O,1.100000X2.000000*%
%ADD15O,1.150000X1.350000*%
%ADD16O,1.827200X1.827200*%
%ADD17R,1.827200X1.827200*%
%ADD18C,1.879600*%
%ADD19O,1.600200X3.124200*%
%ADD20O,3.124200X1.600200*%
%ADD21C,4.800000*%
G04 APERTURE END LIST*
D10*
G04 #@! TO.C,U10*
X151670000Y-96800000D03*
D11*
X151670000Y-99340000D03*
X151670000Y-101880000D03*
X151670000Y-104420000D03*
X151670000Y-106960000D03*
X151670000Y-109500000D03*
X166910000Y-104420000D03*
X166910000Y-101880000D03*
D10*
X166910000Y-99340000D03*
D11*
X166910000Y-106960000D03*
G04 #@! TD*
D12*
G04 #@! TO.C,1111*
X123950000Y-114050000D03*
X118950000Y-114050000D03*
G04 #@! TD*
G04 #@! TO.C,J5*
G36*
G01*
X136560000Y-83304168D02*
X136560000Y-81995832D01*
G75*
G02*
X136830832Y-81725000I270832J0D01*
G01*
X137589168Y-81725000D01*
G75*
G02*
X137860000Y-81995832I0J-270832D01*
G01*
X137860000Y-83304168D01*
G75*
G02*
X137589168Y-83575000I-270832J0D01*
G01*
X136830832Y-83575000D01*
G75*
G02*
X136560000Y-83304168I0J270832D01*
G01*
G37*
D13*
X139210000Y-82650000D03*
X141210000Y-82650000D03*
X143210000Y-82650000D03*
X145210000Y-82650000D03*
X147210000Y-82650000D03*
G04 #@! TD*
G04 #@! TO.C,J6*
X165330000Y-82650000D03*
X163330000Y-82650000D03*
X161330000Y-82650000D03*
X159330000Y-82650000D03*
X157330000Y-82650000D03*
G36*
G01*
X154680000Y-83304168D02*
X154680000Y-81995832D01*
G75*
G02*
X154950832Y-81725000I270832J0D01*
G01*
X155709168Y-81725000D01*
G75*
G02*
X155980000Y-81995832I0J-270832D01*
G01*
X155980000Y-83304168D01*
G75*
G02*
X155709168Y-83575000I-270832J0D01*
G01*
X154950832Y-83575000D01*
G75*
G02*
X154680000Y-83304168I0J270832D01*
G01*
G37*
G04 #@! TD*
D14*
G04 #@! TO.C,J7*
X158295000Y-128330000D03*
X149945000Y-128330000D03*
D15*
X156345000Y-125330000D03*
X151895000Y-125330000D03*
G04 #@! TD*
G04 #@! TO.C,J8*
X164395000Y-125310000D03*
X168845000Y-125310000D03*
D14*
X162445000Y-128310000D03*
X170795000Y-128310000D03*
G04 #@! TD*
D16*
G04 #@! TO.C,J19*
X171970000Y-76000000D03*
X171970000Y-78540000D03*
X169430000Y-76000000D03*
X169430000Y-78540000D03*
X166890000Y-76000000D03*
X166890000Y-78540000D03*
X164350000Y-76000000D03*
X164350000Y-78540000D03*
X161810000Y-76000000D03*
X161810000Y-78540000D03*
X159270000Y-76000000D03*
X159270000Y-78540000D03*
X156730000Y-76000000D03*
X156730000Y-78540000D03*
X154190000Y-76000000D03*
X154190000Y-78540000D03*
X151650000Y-76000000D03*
X151650000Y-78540000D03*
X149110000Y-76000000D03*
X149110000Y-78540000D03*
X146570000Y-76000000D03*
X146570000Y-78540000D03*
X144030000Y-76000000D03*
X144030000Y-78540000D03*
X141490000Y-76000000D03*
X141490000Y-78540000D03*
X138950000Y-76000000D03*
X138950000Y-78540000D03*
X136410000Y-76000000D03*
X136410000Y-78540000D03*
X133870000Y-76000000D03*
X133870000Y-78540000D03*
X131330000Y-76000000D03*
X131330000Y-78540000D03*
X128790000Y-76000000D03*
X128790000Y-78540000D03*
X126250000Y-76000000D03*
X126250000Y-78540000D03*
X123710000Y-76000000D03*
D17*
X123710000Y-78540000D03*
G04 #@! TD*
D18*
G04 #@! TO.C,JP1*
X177870000Y-115790000D03*
X177870000Y-113250000D03*
X177870000Y-110710000D03*
X177870000Y-108170000D03*
X175330000Y-115790000D03*
X172790000Y-115790000D03*
X175330000Y-113250000D03*
X172790000Y-113250000D03*
X175330000Y-110710000D03*
X172790000Y-110710000D03*
X175330000Y-108170000D03*
X172790000Y-108170000D03*
G04 #@! TD*
G04 #@! TO.C,JP2*
X172770000Y-85480000D03*
X175310000Y-85480000D03*
X172770000Y-88020000D03*
X175310000Y-88020000D03*
X172770000Y-90560000D03*
X175310000Y-90560000D03*
X172770000Y-93100000D03*
X175310000Y-93100000D03*
X177850000Y-85480000D03*
X177850000Y-88020000D03*
X177850000Y-90560000D03*
X177850000Y-93100000D03*
G04 #@! TD*
G04 #@! TO.C,JP3*
X172840000Y-96830000D03*
X175380000Y-96830000D03*
X172840000Y-99370000D03*
X175380000Y-99370000D03*
X172840000Y-101910000D03*
X175380000Y-101910000D03*
X172840000Y-104450000D03*
X175380000Y-104450000D03*
X177920000Y-96830000D03*
X177920000Y-99370000D03*
X177920000Y-101910000D03*
X177920000Y-104450000D03*
G04 #@! TD*
D12*
G04 #@! TO.C,U9*
X118920000Y-119820000D03*
X123920000Y-119820000D03*
G04 #@! TD*
G04 #@! TO.C,U11*
X171580000Y-120300000D03*
X176580000Y-120300000D03*
G04 #@! TD*
G04 #@! TO.C,J1*
G36*
G01*
X138916000Y-110903832D02*
X138916000Y-112212168D01*
G75*
G02*
X138645168Y-112483000I-270832J0D01*
G01*
X137886832Y-112483000D01*
G75*
G02*
X137616000Y-112212168I0J270832D01*
G01*
X137616000Y-110903832D01*
G75*
G02*
X137886832Y-110633000I270832J0D01*
G01*
X138645168Y-110633000D01*
G75*
G02*
X138916000Y-110903832I0J-270832D01*
G01*
G37*
D13*
X136266000Y-111558000D03*
X134266000Y-111558000D03*
G04 #@! TD*
G04 #@! TO.C,J2*
X143256000Y-111568000D03*
X145256000Y-111568000D03*
G36*
G01*
X147906000Y-110913832D02*
X147906000Y-112222168D01*
G75*
G02*
X147635168Y-112493000I-270832J0D01*
G01*
X146876832Y-112493000D01*
G75*
G02*
X146606000Y-112222168I0J270832D01*
G01*
X146606000Y-110913832D01*
G75*
G02*
X146876832Y-110643000I270832J0D01*
G01*
X147635168Y-110643000D01*
G75*
G02*
X147906000Y-110913832I0J-270832D01*
G01*
G37*
G04 #@! TD*
G04 #@! TO.C,J3*
G36*
G01*
X138916000Y-116483832D02*
X138916000Y-117792168D01*
G75*
G02*
X138645168Y-118063000I-270832J0D01*
G01*
X137886832Y-118063000D01*
G75*
G02*
X137616000Y-117792168I0J270832D01*
G01*
X137616000Y-116483832D01*
G75*
G02*
X137886832Y-116213000I270832J0D01*
G01*
X138645168Y-116213000D01*
G75*
G02*
X138916000Y-116483832I0J-270832D01*
G01*
G37*
X136266000Y-117138000D03*
X134266000Y-117138000D03*
G04 #@! TD*
G04 #@! TO.C,J4*
X143256000Y-117148000D03*
X145256000Y-117148000D03*
G36*
G01*
X147906000Y-116493832D02*
X147906000Y-117802168D01*
G75*
G02*
X147635168Y-118073000I-270832J0D01*
G01*
X146876832Y-118073000D01*
G75*
G02*
X146606000Y-117802168I0J270832D01*
G01*
X146606000Y-116493832D01*
G75*
G02*
X146876832Y-116223000I270832J0D01*
G01*
X147635168Y-116223000D01*
G75*
G02*
X147906000Y-116493832I0J-270832D01*
G01*
G37*
G04 #@! TD*
D10*
G04 #@! TO.C,J22*
X140750000Y-121720000D03*
D11*
X143290000Y-121720000D03*
X145830000Y-121720000D03*
X148370000Y-121720000D03*
G04 #@! TD*
D19*
G04 #@! TO.C,J9*
X128590000Y-126240000D03*
X126050000Y-126240000D03*
X123510000Y-126240000D03*
G04 #@! TD*
D20*
G04 #@! TO.C,J14*
X132910000Y-86870000D03*
X132910000Y-84330000D03*
X132910000Y-81790000D03*
G04 #@! TD*
D21*
G04 #@! TO.C,H1*
X118840000Y-77270000D03*
G04 #@! TD*
G04 #@! TO.C,H2*
X118840000Y-126270000D03*
G04 #@! TD*
G04 #@! TO.C,H3*
X176840000Y-126260000D03*
G04 #@! TD*
G04 #@! TO.C,H4*
X176840000Y-77270000D03*
G04 #@! TD*
M02*
