G04 #@! TF.GenerationSoftware,KiCad,Pcbnew,5.1.6-c6e7f7d~87~ubuntu19.10.1*
G04 #@! TF.CreationDate,2021-03-31T16:12:46-04:00*
G04 #@! TF.ProjectId,helios,68656c69-6f73-42e6-9b69-6361645f7063,v1.0*
G04 #@! TF.SameCoordinates,Original*
G04 #@! TF.FileFunction,Paste,Top*
G04 #@! TF.FilePolarity,Positive*
%FSLAX46Y46*%
G04 Gerber Fmt 4.6, Leading zero omitted, Abs format (unit mm)*
G04 Created by KiCad (PCBNEW 5.1.6-c6e7f7d~87~ubuntu19.10.1) date 2021-03-31 16:12:46*
%MOMM*%
%LPD*%
G01*
G04 APERTURE LIST*
%ADD10C,0.152400*%
%ADD11R,1.400000X1.300000*%
%ADD12R,0.609600X1.549400*%
%ADD13R,0.300000X0.850000*%
%ADD14R,2.900000X1.900000*%
%ADD15R,0.400000X1.350000*%
%ADD16R,0.600000X1.550000*%
%ADD17R,1.200000X1.800000*%
%ADD18R,3.200400X2.501900*%
%ADD19R,1.193800X0.304800*%
%ADD20R,0.304800X1.193800*%
%ADD21R,1.060000X0.650000*%
%ADD22R,0.304800X0.965200*%
%ADD23R,0.965200X0.304800*%
%ADD24R,3.200400X3.200400*%
G04 APERTURE END LIST*
D10*
G04 #@! TO.C,U12*
X124999800Y-103950200D02*
X126400000Y-103950200D01*
X126400000Y-103950200D02*
X126400000Y-102550000D01*
X126400000Y-102550000D02*
X124999800Y-102550000D01*
X124999800Y-102550000D02*
X124999800Y-103950200D01*
X126600000Y-103950200D02*
X128000200Y-103950200D01*
X128000200Y-103950200D02*
X128000200Y-102550000D01*
X128000200Y-102550000D02*
X126600000Y-102550000D01*
X126600000Y-102550000D02*
X126600000Y-103950200D01*
X124999800Y-102350000D02*
X126400000Y-102350000D01*
X126400000Y-102350000D02*
X126400000Y-100949800D01*
X126400000Y-100949800D02*
X124999800Y-100949800D01*
X124999800Y-100949800D02*
X124999800Y-102350000D01*
X126600000Y-102350000D02*
X128000200Y-102350000D01*
X128000200Y-102350000D02*
X128000200Y-100949800D01*
X128000200Y-100949800D02*
X126600000Y-100949800D01*
X126600000Y-100949800D02*
X126600000Y-102350000D01*
G04 #@! TD*
D11*
G04 #@! TO.C,D7*
X121450000Y-107100000D03*
X121450000Y-110000000D03*
G04 #@! TD*
D12*
G04 #@! TO.C,U3*
X148601000Y-100274000D03*
X147331000Y-100274000D03*
X146061000Y-100274000D03*
X144791000Y-100274000D03*
X144791000Y-105674000D03*
X146061000Y-105674000D03*
X147331000Y-105674000D03*
X148601000Y-105674000D03*
G04 #@! TD*
G04 #@! TO.C,U5*
X158205000Y-111190000D03*
X156935000Y-111190000D03*
X155665000Y-111190000D03*
X154395000Y-111190000D03*
X154395000Y-116590000D03*
X155665000Y-116590000D03*
X156935000Y-116590000D03*
X158205000Y-116590000D03*
G04 #@! TD*
G04 #@! TO.C,U2*
X137461000Y-105664000D03*
X136191000Y-105664000D03*
X134921000Y-105664000D03*
X133651000Y-105664000D03*
X133651000Y-100264000D03*
X134921000Y-100264000D03*
X136191000Y-100264000D03*
X137461000Y-100264000D03*
G04 #@! TD*
G04 #@! TO.C,U4*
X143021000Y-105664000D03*
X141751000Y-105664000D03*
X140481000Y-105664000D03*
X139211000Y-105664000D03*
X139211000Y-100264000D03*
X140481000Y-100264000D03*
X141751000Y-100264000D03*
X143021000Y-100264000D03*
G04 #@! TD*
G04 #@! TO.C,C1*
G36*
G01*
X141896000Y-98461500D02*
X141896000Y-98806500D01*
G75*
G02*
X141748500Y-98954000I-147500J0D01*
G01*
X141453500Y-98954000D01*
G75*
G02*
X141306000Y-98806500I0J147500D01*
G01*
X141306000Y-98461500D01*
G75*
G02*
X141453500Y-98314000I147500J0D01*
G01*
X141748500Y-98314000D01*
G75*
G02*
X141896000Y-98461500I0J-147500D01*
G01*
G37*
G36*
G01*
X140926000Y-98461500D02*
X140926000Y-98806500D01*
G75*
G02*
X140778500Y-98954000I-147500J0D01*
G01*
X140483500Y-98954000D01*
G75*
G02*
X140336000Y-98806500I0J147500D01*
G01*
X140336000Y-98461500D01*
G75*
G02*
X140483500Y-98314000I147500J0D01*
G01*
X140778500Y-98314000D01*
G75*
G02*
X140926000Y-98461500I0J-147500D01*
G01*
G37*
G04 #@! TD*
G04 #@! TO.C,C2*
G36*
G01*
X146501000Y-98461500D02*
X146501000Y-98806500D01*
G75*
G02*
X146353500Y-98954000I-147500J0D01*
G01*
X146058500Y-98954000D01*
G75*
G02*
X145911000Y-98806500I0J147500D01*
G01*
X145911000Y-98461500D01*
G75*
G02*
X146058500Y-98314000I147500J0D01*
G01*
X146353500Y-98314000D01*
G75*
G02*
X146501000Y-98461500I0J-147500D01*
G01*
G37*
G36*
G01*
X147471000Y-98461500D02*
X147471000Y-98806500D01*
G75*
G02*
X147323500Y-98954000I-147500J0D01*
G01*
X147028500Y-98954000D01*
G75*
G02*
X146881000Y-98806500I0J147500D01*
G01*
X146881000Y-98461500D01*
G75*
G02*
X147028500Y-98314000I147500J0D01*
G01*
X147323500Y-98314000D01*
G75*
G02*
X147471000Y-98461500I0J-147500D01*
G01*
G37*
G04 #@! TD*
G04 #@! TO.C,C3*
G36*
G01*
X142585000Y-97277500D02*
X142585000Y-97622500D01*
G75*
G02*
X142437500Y-97770000I-147500J0D01*
G01*
X142142500Y-97770000D01*
G75*
G02*
X141995000Y-97622500I0J147500D01*
G01*
X141995000Y-97277500D01*
G75*
G02*
X142142500Y-97130000I147500J0D01*
G01*
X142437500Y-97130000D01*
G75*
G02*
X142585000Y-97277500I0J-147500D01*
G01*
G37*
G36*
G01*
X143555000Y-97277500D02*
X143555000Y-97622500D01*
G75*
G02*
X143407500Y-97770000I-147500J0D01*
G01*
X143112500Y-97770000D01*
G75*
G02*
X142965000Y-97622500I0J147500D01*
G01*
X142965000Y-97277500D01*
G75*
G02*
X143112500Y-97130000I147500J0D01*
G01*
X143407500Y-97130000D01*
G75*
G02*
X143555000Y-97277500I0J-147500D01*
G01*
G37*
G04 #@! TD*
G04 #@! TO.C,C4*
G36*
G01*
X161555000Y-97277500D02*
X161555000Y-97622500D01*
G75*
G02*
X161407500Y-97770000I-147500J0D01*
G01*
X161112500Y-97770000D01*
G75*
G02*
X160965000Y-97622500I0J147500D01*
G01*
X160965000Y-97277500D01*
G75*
G02*
X161112500Y-97130000I147500J0D01*
G01*
X161407500Y-97130000D01*
G75*
G02*
X161555000Y-97277500I0J-147500D01*
G01*
G37*
G36*
G01*
X160585000Y-97277500D02*
X160585000Y-97622500D01*
G75*
G02*
X160437500Y-97770000I-147500J0D01*
G01*
X160142500Y-97770000D01*
G75*
G02*
X159995000Y-97622500I0J147500D01*
G01*
X159995000Y-97277500D01*
G75*
G02*
X160142500Y-97130000I147500J0D01*
G01*
X160437500Y-97130000D01*
G75*
G02*
X160585000Y-97277500I0J-147500D01*
G01*
G37*
G04 #@! TD*
G04 #@! TO.C,C5*
G36*
G01*
X136346000Y-98461500D02*
X136346000Y-98806500D01*
G75*
G02*
X136198500Y-98954000I-147500J0D01*
G01*
X135903500Y-98954000D01*
G75*
G02*
X135756000Y-98806500I0J147500D01*
G01*
X135756000Y-98461500D01*
G75*
G02*
X135903500Y-98314000I147500J0D01*
G01*
X136198500Y-98314000D01*
G75*
G02*
X136346000Y-98461500I0J-147500D01*
G01*
G37*
G36*
G01*
X135376000Y-98461500D02*
X135376000Y-98806500D01*
G75*
G02*
X135228500Y-98954000I-147500J0D01*
G01*
X134933500Y-98954000D01*
G75*
G02*
X134786000Y-98806500I0J147500D01*
G01*
X134786000Y-98461500D01*
G75*
G02*
X134933500Y-98314000I147500J0D01*
G01*
X135228500Y-98314000D01*
G75*
G02*
X135376000Y-98461500I0J-147500D01*
G01*
G37*
G04 #@! TD*
G04 #@! TO.C,C6*
G36*
G01*
X157085000Y-109367500D02*
X157085000Y-109712500D01*
G75*
G02*
X156937500Y-109860000I-147500J0D01*
G01*
X156642500Y-109860000D01*
G75*
G02*
X156495000Y-109712500I0J147500D01*
G01*
X156495000Y-109367500D01*
G75*
G02*
X156642500Y-109220000I147500J0D01*
G01*
X156937500Y-109220000D01*
G75*
G02*
X157085000Y-109367500I0J-147500D01*
G01*
G37*
G36*
G01*
X156115000Y-109367500D02*
X156115000Y-109712500D01*
G75*
G02*
X155967500Y-109860000I-147500J0D01*
G01*
X155672500Y-109860000D01*
G75*
G02*
X155525000Y-109712500I0J147500D01*
G01*
X155525000Y-109367500D01*
G75*
G02*
X155672500Y-109220000I147500J0D01*
G01*
X155967500Y-109220000D01*
G75*
G02*
X156115000Y-109367500I0J-147500D01*
G01*
G37*
G04 #@! TD*
G04 #@! TO.C,C7*
G36*
G01*
X138977500Y-96595000D02*
X139322500Y-96595000D01*
G75*
G02*
X139470000Y-96742500I0J-147500D01*
G01*
X139470000Y-97037500D01*
G75*
G02*
X139322500Y-97185000I-147500J0D01*
G01*
X138977500Y-97185000D01*
G75*
G02*
X138830000Y-97037500I0J147500D01*
G01*
X138830000Y-96742500D01*
G75*
G02*
X138977500Y-96595000I147500J0D01*
G01*
G37*
G36*
G01*
X138977500Y-95625000D02*
X139322500Y-95625000D01*
G75*
G02*
X139470000Y-95772500I0J-147500D01*
G01*
X139470000Y-96067500D01*
G75*
G02*
X139322500Y-96215000I-147500J0D01*
G01*
X138977500Y-96215000D01*
G75*
G02*
X138830000Y-96067500I0J147500D01*
G01*
X138830000Y-95772500D01*
G75*
G02*
X138977500Y-95625000I147500J0D01*
G01*
G37*
G04 #@! TD*
G04 #@! TO.C,C8*
G36*
G01*
X137927500Y-95025000D02*
X138272500Y-95025000D01*
G75*
G02*
X138420000Y-95172500I0J-147500D01*
G01*
X138420000Y-95467500D01*
G75*
G02*
X138272500Y-95615000I-147500J0D01*
G01*
X137927500Y-95615000D01*
G75*
G02*
X137780000Y-95467500I0J147500D01*
G01*
X137780000Y-95172500D01*
G75*
G02*
X137927500Y-95025000I147500J0D01*
G01*
G37*
G36*
G01*
X137927500Y-95995000D02*
X138272500Y-95995000D01*
G75*
G02*
X138420000Y-96142500I0J-147500D01*
G01*
X138420000Y-96437500D01*
G75*
G02*
X138272500Y-96585000I-147500J0D01*
G01*
X137927500Y-96585000D01*
G75*
G02*
X137780000Y-96437500I0J147500D01*
G01*
X137780000Y-96142500D01*
G75*
G02*
X137927500Y-95995000I147500J0D01*
G01*
G37*
G04 #@! TD*
G04 #@! TO.C,C9*
G36*
G01*
X138505000Y-86887500D02*
X138505000Y-87232500D01*
G75*
G02*
X138357500Y-87380000I-147500J0D01*
G01*
X138062500Y-87380000D01*
G75*
G02*
X137915000Y-87232500I0J147500D01*
G01*
X137915000Y-86887500D01*
G75*
G02*
X138062500Y-86740000I147500J0D01*
G01*
X138357500Y-86740000D01*
G75*
G02*
X138505000Y-86887500I0J-147500D01*
G01*
G37*
G36*
G01*
X139475000Y-86887500D02*
X139475000Y-87232500D01*
G75*
G02*
X139327500Y-87380000I-147500J0D01*
G01*
X139032500Y-87380000D01*
G75*
G02*
X138885000Y-87232500I0J147500D01*
G01*
X138885000Y-86887500D01*
G75*
G02*
X139032500Y-86740000I147500J0D01*
G01*
X139327500Y-86740000D01*
G75*
G02*
X139475000Y-86887500I0J-147500D01*
G01*
G37*
G04 #@! TD*
G04 #@! TO.C,C10*
G36*
G01*
X147612500Y-87970000D02*
X147267500Y-87970000D01*
G75*
G02*
X147120000Y-87822500I0J147500D01*
G01*
X147120000Y-87527500D01*
G75*
G02*
X147267500Y-87380000I147500J0D01*
G01*
X147612500Y-87380000D01*
G75*
G02*
X147760000Y-87527500I0J-147500D01*
G01*
X147760000Y-87822500D01*
G75*
G02*
X147612500Y-87970000I-147500J0D01*
G01*
G37*
G36*
G01*
X147612500Y-87000000D02*
X147267500Y-87000000D01*
G75*
G02*
X147120000Y-86852500I0J147500D01*
G01*
X147120000Y-86557500D01*
G75*
G02*
X147267500Y-86410000I147500J0D01*
G01*
X147612500Y-86410000D01*
G75*
G02*
X147760000Y-86557500I0J-147500D01*
G01*
X147760000Y-86852500D01*
G75*
G02*
X147612500Y-87000000I-147500J0D01*
G01*
G37*
G04 #@! TD*
G04 #@! TO.C,C11*
G36*
G01*
X149600000Y-90862500D02*
X149600000Y-90517500D01*
G75*
G02*
X149747500Y-90370000I147500J0D01*
G01*
X150042500Y-90370000D01*
G75*
G02*
X150190000Y-90517500I0J-147500D01*
G01*
X150190000Y-90862500D01*
G75*
G02*
X150042500Y-91010000I-147500J0D01*
G01*
X149747500Y-91010000D01*
G75*
G02*
X149600000Y-90862500I0J147500D01*
G01*
G37*
G36*
G01*
X148630000Y-90862500D02*
X148630000Y-90517500D01*
G75*
G02*
X148777500Y-90370000I147500J0D01*
G01*
X149072500Y-90370000D01*
G75*
G02*
X149220000Y-90517500I0J-147500D01*
G01*
X149220000Y-90862500D01*
G75*
G02*
X149072500Y-91010000I-147500J0D01*
G01*
X148777500Y-91010000D01*
G75*
G02*
X148630000Y-90862500I0J147500D01*
G01*
G37*
G04 #@! TD*
G04 #@! TO.C,C12*
G36*
G01*
X149122500Y-89025000D02*
X148777500Y-89025000D01*
G75*
G02*
X148630000Y-88877500I0J147500D01*
G01*
X148630000Y-88582500D01*
G75*
G02*
X148777500Y-88435000I147500J0D01*
G01*
X149122500Y-88435000D01*
G75*
G02*
X149270000Y-88582500I0J-147500D01*
G01*
X149270000Y-88877500D01*
G75*
G02*
X149122500Y-89025000I-147500J0D01*
G01*
G37*
G36*
G01*
X149122500Y-89995000D02*
X148777500Y-89995000D01*
G75*
G02*
X148630000Y-89847500I0J147500D01*
G01*
X148630000Y-89552500D01*
G75*
G02*
X148777500Y-89405000I147500J0D01*
G01*
X149122500Y-89405000D01*
G75*
G02*
X149270000Y-89552500I0J-147500D01*
G01*
X149270000Y-89847500D01*
G75*
G02*
X149122500Y-89995000I-147500J0D01*
G01*
G37*
G04 #@! TD*
G04 #@! TO.C,C13*
G36*
G01*
X156987500Y-96585000D02*
X157332500Y-96585000D01*
G75*
G02*
X157480000Y-96732500I0J-147500D01*
G01*
X157480000Y-97027500D01*
G75*
G02*
X157332500Y-97175000I-147500J0D01*
G01*
X156987500Y-97175000D01*
G75*
G02*
X156840000Y-97027500I0J147500D01*
G01*
X156840000Y-96732500D01*
G75*
G02*
X156987500Y-96585000I147500J0D01*
G01*
G37*
G36*
G01*
X156987500Y-95615000D02*
X157332500Y-95615000D01*
G75*
G02*
X157480000Y-95762500I0J-147500D01*
G01*
X157480000Y-96057500D01*
G75*
G02*
X157332500Y-96205000I-147500J0D01*
G01*
X156987500Y-96205000D01*
G75*
G02*
X156840000Y-96057500I0J147500D01*
G01*
X156840000Y-95762500D01*
G75*
G02*
X156987500Y-95615000I147500J0D01*
G01*
G37*
G04 #@! TD*
G04 #@! TO.C,C14*
G36*
G01*
X155941500Y-95995000D02*
X156286500Y-95995000D01*
G75*
G02*
X156434000Y-96142500I0J-147500D01*
G01*
X156434000Y-96437500D01*
G75*
G02*
X156286500Y-96585000I-147500J0D01*
G01*
X155941500Y-96585000D01*
G75*
G02*
X155794000Y-96437500I0J147500D01*
G01*
X155794000Y-96142500D01*
G75*
G02*
X155941500Y-95995000I147500J0D01*
G01*
G37*
G36*
G01*
X155941500Y-95025000D02*
X156286500Y-95025000D01*
G75*
G02*
X156434000Y-95172500I0J-147500D01*
G01*
X156434000Y-95467500D01*
G75*
G02*
X156286500Y-95615000I-147500J0D01*
G01*
X155941500Y-95615000D01*
G75*
G02*
X155794000Y-95467500I0J147500D01*
G01*
X155794000Y-95172500D01*
G75*
G02*
X155941500Y-95025000I147500J0D01*
G01*
G37*
G04 #@! TD*
G04 #@! TO.C,C15*
G36*
G01*
X157485000Y-86887500D02*
X157485000Y-87232500D01*
G75*
G02*
X157337500Y-87380000I-147500J0D01*
G01*
X157042500Y-87380000D01*
G75*
G02*
X156895000Y-87232500I0J147500D01*
G01*
X156895000Y-86887500D01*
G75*
G02*
X157042500Y-86740000I147500J0D01*
G01*
X157337500Y-86740000D01*
G75*
G02*
X157485000Y-86887500I0J-147500D01*
G01*
G37*
G36*
G01*
X156515000Y-86887500D02*
X156515000Y-87232500D01*
G75*
G02*
X156367500Y-87380000I-147500J0D01*
G01*
X156072500Y-87380000D01*
G75*
G02*
X155925000Y-87232500I0J147500D01*
G01*
X155925000Y-86887500D01*
G75*
G02*
X156072500Y-86740000I147500J0D01*
G01*
X156367500Y-86740000D01*
G75*
G02*
X156515000Y-86887500I0J-147500D01*
G01*
G37*
G04 #@! TD*
G04 #@! TO.C,C16*
G36*
G01*
X165612500Y-86987000D02*
X165267500Y-86987000D01*
G75*
G02*
X165120000Y-86839500I0J147500D01*
G01*
X165120000Y-86544500D01*
G75*
G02*
X165267500Y-86397000I147500J0D01*
G01*
X165612500Y-86397000D01*
G75*
G02*
X165760000Y-86544500I0J-147500D01*
G01*
X165760000Y-86839500D01*
G75*
G02*
X165612500Y-86987000I-147500J0D01*
G01*
G37*
G36*
G01*
X165612500Y-87957000D02*
X165267500Y-87957000D01*
G75*
G02*
X165120000Y-87809500I0J147500D01*
G01*
X165120000Y-87514500D01*
G75*
G02*
X165267500Y-87367000I147500J0D01*
G01*
X165612500Y-87367000D01*
G75*
G02*
X165760000Y-87514500I0J-147500D01*
G01*
X165760000Y-87809500D01*
G75*
G02*
X165612500Y-87957000I-147500J0D01*
G01*
G37*
G04 #@! TD*
G04 #@! TO.C,C17*
G36*
G01*
X166630000Y-90752500D02*
X166630000Y-90407500D01*
G75*
G02*
X166777500Y-90260000I147500J0D01*
G01*
X167072500Y-90260000D01*
G75*
G02*
X167220000Y-90407500I0J-147500D01*
G01*
X167220000Y-90752500D01*
G75*
G02*
X167072500Y-90900000I-147500J0D01*
G01*
X166777500Y-90900000D01*
G75*
G02*
X166630000Y-90752500I0J147500D01*
G01*
G37*
G36*
G01*
X167600000Y-90752500D02*
X167600000Y-90407500D01*
G75*
G02*
X167747500Y-90260000I147500J0D01*
G01*
X168042500Y-90260000D01*
G75*
G02*
X168190000Y-90407500I0J-147500D01*
G01*
X168190000Y-90752500D01*
G75*
G02*
X168042500Y-90900000I-147500J0D01*
G01*
X167747500Y-90900000D01*
G75*
G02*
X167600000Y-90752500I0J147500D01*
G01*
G37*
G04 #@! TD*
G04 #@! TO.C,C18*
G36*
G01*
X167122500Y-88925000D02*
X166777500Y-88925000D01*
G75*
G02*
X166630000Y-88777500I0J147500D01*
G01*
X166630000Y-88482500D01*
G75*
G02*
X166777500Y-88335000I147500J0D01*
G01*
X167122500Y-88335000D01*
G75*
G02*
X167270000Y-88482500I0J-147500D01*
G01*
X167270000Y-88777500D01*
G75*
G02*
X167122500Y-88925000I-147500J0D01*
G01*
G37*
G36*
G01*
X167122500Y-89895000D02*
X166777500Y-89895000D01*
G75*
G02*
X166630000Y-89747500I0J147500D01*
G01*
X166630000Y-89452500D01*
G75*
G02*
X166777500Y-89305000I147500J0D01*
G01*
X167122500Y-89305000D01*
G75*
G02*
X167270000Y-89452500I0J-147500D01*
G01*
X167270000Y-89747500D01*
G75*
G02*
X167122500Y-89895000I-147500J0D01*
G01*
G37*
G04 #@! TD*
G04 #@! TO.C,C23*
G36*
G01*
X129935000Y-103272500D02*
X129935000Y-102927500D01*
G75*
G02*
X130082500Y-102780000I147500J0D01*
G01*
X130377500Y-102780000D01*
G75*
G02*
X130525000Y-102927500I0J-147500D01*
G01*
X130525000Y-103272500D01*
G75*
G02*
X130377500Y-103420000I-147500J0D01*
G01*
X130082500Y-103420000D01*
G75*
G02*
X129935000Y-103272500I0J147500D01*
G01*
G37*
G36*
G01*
X130905000Y-103272500D02*
X130905000Y-102927500D01*
G75*
G02*
X131052500Y-102780000I147500J0D01*
G01*
X131347500Y-102780000D01*
G75*
G02*
X131495000Y-102927500I0J-147500D01*
G01*
X131495000Y-103272500D01*
G75*
G02*
X131347500Y-103420000I-147500J0D01*
G01*
X131052500Y-103420000D01*
G75*
G02*
X130905000Y-103272500I0J147500D01*
G01*
G37*
G04 #@! TD*
G04 #@! TO.C,C25*
G36*
G01*
X126983750Y-86107500D02*
X127496250Y-86107500D01*
G75*
G02*
X127715000Y-86326250I0J-218750D01*
G01*
X127715000Y-86763750D01*
G75*
G02*
X127496250Y-86982500I-218750J0D01*
G01*
X126983750Y-86982500D01*
G75*
G02*
X126765000Y-86763750I0J218750D01*
G01*
X126765000Y-86326250D01*
G75*
G02*
X126983750Y-86107500I218750J0D01*
G01*
G37*
G36*
G01*
X126983750Y-87682500D02*
X127496250Y-87682500D01*
G75*
G02*
X127715000Y-87901250I0J-218750D01*
G01*
X127715000Y-88338750D01*
G75*
G02*
X127496250Y-88557500I-218750J0D01*
G01*
X126983750Y-88557500D01*
G75*
G02*
X126765000Y-88338750I0J218750D01*
G01*
X126765000Y-87901250D01*
G75*
G02*
X126983750Y-87682500I218750J0D01*
G01*
G37*
G04 #@! TD*
G04 #@! TO.C,C26*
G36*
G01*
X128593750Y-87680000D02*
X129106250Y-87680000D01*
G75*
G02*
X129325000Y-87898750I0J-218750D01*
G01*
X129325000Y-88336250D01*
G75*
G02*
X129106250Y-88555000I-218750J0D01*
G01*
X128593750Y-88555000D01*
G75*
G02*
X128375000Y-88336250I0J218750D01*
G01*
X128375000Y-87898750D01*
G75*
G02*
X128593750Y-87680000I218750J0D01*
G01*
G37*
G36*
G01*
X128593750Y-86105000D02*
X129106250Y-86105000D01*
G75*
G02*
X129325000Y-86323750I0J-218750D01*
G01*
X129325000Y-86761250D01*
G75*
G02*
X129106250Y-86980000I-218750J0D01*
G01*
X128593750Y-86980000D01*
G75*
G02*
X128375000Y-86761250I0J218750D01*
G01*
X128375000Y-86323750D01*
G75*
G02*
X128593750Y-86105000I218750J0D01*
G01*
G37*
G04 #@! TD*
G04 #@! TO.C,D1*
G36*
G01*
X134936250Y-91655000D02*
X134423750Y-91655000D01*
G75*
G02*
X134205000Y-91436250I0J218750D01*
G01*
X134205000Y-90998750D01*
G75*
G02*
X134423750Y-90780000I218750J0D01*
G01*
X134936250Y-90780000D01*
G75*
G02*
X135155000Y-90998750I0J-218750D01*
G01*
X135155000Y-91436250D01*
G75*
G02*
X134936250Y-91655000I-218750J0D01*
G01*
G37*
G36*
G01*
X134936250Y-90080000D02*
X134423750Y-90080000D01*
G75*
G02*
X134205000Y-89861250I0J218750D01*
G01*
X134205000Y-89423750D01*
G75*
G02*
X134423750Y-89205000I218750J0D01*
G01*
X134936250Y-89205000D01*
G75*
G02*
X135155000Y-89423750I0J-218750D01*
G01*
X135155000Y-89861250D01*
G75*
G02*
X134936250Y-90080000I-218750J0D01*
G01*
G37*
G04 #@! TD*
G04 #@! TO.C,D2*
G36*
G01*
X133286250Y-91652500D02*
X132773750Y-91652500D01*
G75*
G02*
X132555000Y-91433750I0J218750D01*
G01*
X132555000Y-90996250D01*
G75*
G02*
X132773750Y-90777500I218750J0D01*
G01*
X133286250Y-90777500D01*
G75*
G02*
X133505000Y-90996250I0J-218750D01*
G01*
X133505000Y-91433750D01*
G75*
G02*
X133286250Y-91652500I-218750J0D01*
G01*
G37*
G36*
G01*
X133286250Y-90077500D02*
X132773750Y-90077500D01*
G75*
G02*
X132555000Y-89858750I0J218750D01*
G01*
X132555000Y-89421250D01*
G75*
G02*
X132773750Y-89202500I218750J0D01*
G01*
X133286250Y-89202500D01*
G75*
G02*
X133505000Y-89421250I0J-218750D01*
G01*
X133505000Y-89858750D01*
G75*
G02*
X133286250Y-90077500I-218750J0D01*
G01*
G37*
G04 #@! TD*
G04 #@! TO.C,D3*
G36*
G01*
X151411251Y-82244999D02*
X150898751Y-82244999D01*
G75*
G02*
X150680001Y-82026249I0J218750D01*
G01*
X150680001Y-81588749D01*
G75*
G02*
X150898751Y-81369999I218750J0D01*
G01*
X151411251Y-81369999D01*
G75*
G02*
X151630001Y-81588749I0J-218750D01*
G01*
X151630001Y-82026249D01*
G75*
G02*
X151411251Y-82244999I-218750J0D01*
G01*
G37*
G36*
G01*
X151411251Y-83819999D02*
X150898751Y-83819999D01*
G75*
G02*
X150680001Y-83601249I0J218750D01*
G01*
X150680001Y-83163749D01*
G75*
G02*
X150898751Y-82944999I218750J0D01*
G01*
X151411251Y-82944999D01*
G75*
G02*
X151630001Y-83163749I0J-218750D01*
G01*
X151630001Y-83601249D01*
G75*
G02*
X151411251Y-83819999I-218750J0D01*
G01*
G37*
G04 #@! TD*
G04 #@! TO.C,D4*
G36*
G01*
X153386250Y-88000000D02*
X152873750Y-88000000D01*
G75*
G02*
X152655000Y-87781250I0J218750D01*
G01*
X152655000Y-87343750D01*
G75*
G02*
X152873750Y-87125000I218750J0D01*
G01*
X153386250Y-87125000D01*
G75*
G02*
X153605000Y-87343750I0J-218750D01*
G01*
X153605000Y-87781250D01*
G75*
G02*
X153386250Y-88000000I-218750J0D01*
G01*
G37*
G36*
G01*
X153386250Y-89575000D02*
X152873750Y-89575000D01*
G75*
G02*
X152655000Y-89356250I0J218750D01*
G01*
X152655000Y-88918750D01*
G75*
G02*
X152873750Y-88700000I218750J0D01*
G01*
X153386250Y-88700000D01*
G75*
G02*
X153605000Y-88918750I0J-218750D01*
G01*
X153605000Y-89356250D01*
G75*
G02*
X153386250Y-89575000I-218750J0D01*
G01*
G37*
G04 #@! TD*
G04 #@! TO.C,D5*
G36*
G01*
X151746250Y-87987500D02*
X151233750Y-87987500D01*
G75*
G02*
X151015000Y-87768750I0J218750D01*
G01*
X151015000Y-87331250D01*
G75*
G02*
X151233750Y-87112500I218750J0D01*
G01*
X151746250Y-87112500D01*
G75*
G02*
X151965000Y-87331250I0J-218750D01*
G01*
X151965000Y-87768750D01*
G75*
G02*
X151746250Y-87987500I-218750J0D01*
G01*
G37*
G36*
G01*
X151746250Y-89562500D02*
X151233750Y-89562500D01*
G75*
G02*
X151015000Y-89343750I0J218750D01*
G01*
X151015000Y-88906250D01*
G75*
G02*
X151233750Y-88687500I218750J0D01*
G01*
X151746250Y-88687500D01*
G75*
G02*
X151965000Y-88906250I0J-218750D01*
G01*
X151965000Y-89343750D01*
G75*
G02*
X151746250Y-89562500I-218750J0D01*
G01*
G37*
G04 #@! TD*
G04 #@! TO.C,D6*
G36*
G01*
X169691251Y-87539999D02*
X169178751Y-87539999D01*
G75*
G02*
X168960001Y-87321249I0J218750D01*
G01*
X168960001Y-86883749D01*
G75*
G02*
X169178751Y-86664999I218750J0D01*
G01*
X169691251Y-86664999D01*
G75*
G02*
X169910001Y-86883749I0J-218750D01*
G01*
X169910001Y-87321249D01*
G75*
G02*
X169691251Y-87539999I-218750J0D01*
G01*
G37*
G36*
G01*
X169691251Y-85964999D02*
X169178751Y-85964999D01*
G75*
G02*
X168960001Y-85746249I0J218750D01*
G01*
X168960001Y-85308749D01*
G75*
G02*
X169178751Y-85089999I218750J0D01*
G01*
X169691251Y-85089999D01*
G75*
G02*
X169910001Y-85308749I0J-218750D01*
G01*
X169910001Y-85746249D01*
G75*
G02*
X169691251Y-85964999I-218750J0D01*
G01*
G37*
G04 #@! TD*
G04 #@! TO.C,D8*
G36*
G01*
X126993750Y-83035000D02*
X127506250Y-83035000D01*
G75*
G02*
X127725000Y-83253750I0J-218750D01*
G01*
X127725000Y-83691250D01*
G75*
G02*
X127506250Y-83910000I-218750J0D01*
G01*
X126993750Y-83910000D01*
G75*
G02*
X126775000Y-83691250I0J218750D01*
G01*
X126775000Y-83253750D01*
G75*
G02*
X126993750Y-83035000I218750J0D01*
G01*
G37*
G36*
G01*
X126993750Y-84610000D02*
X127506250Y-84610000D01*
G75*
G02*
X127725000Y-84828750I0J-218750D01*
G01*
X127725000Y-85266250D01*
G75*
G02*
X127506250Y-85485000I-218750J0D01*
G01*
X126993750Y-85485000D01*
G75*
G02*
X126775000Y-85266250I0J218750D01*
G01*
X126775000Y-84828750D01*
G75*
G02*
X126993750Y-84610000I218750J0D01*
G01*
G37*
G04 #@! TD*
G04 #@! TO.C,F1*
G36*
G01*
X130836250Y-110425000D02*
X130323750Y-110425000D01*
G75*
G02*
X130105000Y-110206250I0J218750D01*
G01*
X130105000Y-109768750D01*
G75*
G02*
X130323750Y-109550000I218750J0D01*
G01*
X130836250Y-109550000D01*
G75*
G02*
X131055000Y-109768750I0J-218750D01*
G01*
X131055000Y-110206250D01*
G75*
G02*
X130836250Y-110425000I-218750J0D01*
G01*
G37*
G36*
G01*
X130836250Y-108850000D02*
X130323750Y-108850000D01*
G75*
G02*
X130105000Y-108631250I0J218750D01*
G01*
X130105000Y-108193750D01*
G75*
G02*
X130323750Y-107975000I218750J0D01*
G01*
X130836250Y-107975000D01*
G75*
G02*
X131055000Y-108193750I0J-218750D01*
G01*
X131055000Y-108631250D01*
G75*
G02*
X130836250Y-108850000I-218750J0D01*
G01*
G37*
G04 #@! TD*
D13*
G04 #@! TO.C,J7*
X150620000Y-128330000D03*
X157620000Y-128330000D03*
D14*
X154120000Y-128330000D03*
D15*
X154770000Y-125655000D03*
X155420000Y-125655000D03*
X154120000Y-125655000D03*
X153470000Y-125655000D03*
X152820000Y-125655000D03*
G04 #@! TD*
G04 #@! TO.C,J8*
X165320000Y-125635000D03*
X165970000Y-125635000D03*
X166620000Y-125635000D03*
X167920000Y-125635000D03*
X167270000Y-125635000D03*
D14*
X166620000Y-128310000D03*
D13*
X170120000Y-128310000D03*
X163120000Y-128310000D03*
G04 #@! TD*
D16*
G04 #@! TO.C,J25*
X137400000Y-124706000D03*
X138400000Y-124706000D03*
X136400000Y-124706000D03*
X139400000Y-124706000D03*
D17*
X135100000Y-128606000D03*
X140700000Y-128606000D03*
G04 #@! TD*
G04 #@! TO.C,J26*
X147960000Y-128616000D03*
X142360000Y-128616000D03*
D16*
X146660000Y-124716000D03*
X143660000Y-124716000D03*
X145660000Y-124716000D03*
X144660000Y-124716000D03*
G04 #@! TD*
D18*
G04 #@! TO.C,L1*
X121030000Y-89904950D03*
X121030000Y-81815050D03*
G04 #@! TD*
G04 #@! TO.C,R1*
G36*
G01*
X136356000Y-107141500D02*
X136356000Y-107486500D01*
G75*
G02*
X136208500Y-107634000I-147500J0D01*
G01*
X135913500Y-107634000D01*
G75*
G02*
X135766000Y-107486500I0J147500D01*
G01*
X135766000Y-107141500D01*
G75*
G02*
X135913500Y-106994000I147500J0D01*
G01*
X136208500Y-106994000D01*
G75*
G02*
X136356000Y-107141500I0J-147500D01*
G01*
G37*
G36*
G01*
X135386000Y-107141500D02*
X135386000Y-107486500D01*
G75*
G02*
X135238500Y-107634000I-147500J0D01*
G01*
X134943500Y-107634000D01*
G75*
G02*
X134796000Y-107486500I0J147500D01*
G01*
X134796000Y-107141500D01*
G75*
G02*
X134943500Y-106994000I147500J0D01*
G01*
X135238500Y-106994000D01*
G75*
G02*
X135386000Y-107141500I0J-147500D01*
G01*
G37*
G04 #@! TD*
G04 #@! TO.C,R2*
G36*
G01*
X146501000Y-107111500D02*
X146501000Y-107456500D01*
G75*
G02*
X146353500Y-107604000I-147500J0D01*
G01*
X146058500Y-107604000D01*
G75*
G02*
X145911000Y-107456500I0J147500D01*
G01*
X145911000Y-107111500D01*
G75*
G02*
X146058500Y-106964000I147500J0D01*
G01*
X146353500Y-106964000D01*
G75*
G02*
X146501000Y-107111500I0J-147500D01*
G01*
G37*
G36*
G01*
X147471000Y-107111500D02*
X147471000Y-107456500D01*
G75*
G02*
X147323500Y-107604000I-147500J0D01*
G01*
X147028500Y-107604000D01*
G75*
G02*
X146881000Y-107456500I0J147500D01*
G01*
X146881000Y-107111500D01*
G75*
G02*
X147028500Y-106964000I147500J0D01*
G01*
X147323500Y-106964000D01*
G75*
G02*
X147471000Y-107111500I0J-147500D01*
G01*
G37*
G04 #@! TD*
G04 #@! TO.C,R3*
G36*
G01*
X140936000Y-107111500D02*
X140936000Y-107456500D01*
G75*
G02*
X140788500Y-107604000I-147500J0D01*
G01*
X140493500Y-107604000D01*
G75*
G02*
X140346000Y-107456500I0J147500D01*
G01*
X140346000Y-107111500D01*
G75*
G02*
X140493500Y-106964000I147500J0D01*
G01*
X140788500Y-106964000D01*
G75*
G02*
X140936000Y-107111500I0J-147500D01*
G01*
G37*
G36*
G01*
X141906000Y-107111500D02*
X141906000Y-107456500D01*
G75*
G02*
X141758500Y-107604000I-147500J0D01*
G01*
X141463500Y-107604000D01*
G75*
G02*
X141316000Y-107456500I0J147500D01*
G01*
X141316000Y-107111500D01*
G75*
G02*
X141463500Y-106964000I147500J0D01*
G01*
X141758500Y-106964000D01*
G75*
G02*
X141906000Y-107111500I0J-147500D01*
G01*
G37*
G04 #@! TD*
G04 #@! TO.C,R4*
G36*
G01*
X156115000Y-118037500D02*
X156115000Y-118382500D01*
G75*
G02*
X155967500Y-118530000I-147500J0D01*
G01*
X155672500Y-118530000D01*
G75*
G02*
X155525000Y-118382500I0J147500D01*
G01*
X155525000Y-118037500D01*
G75*
G02*
X155672500Y-117890000I147500J0D01*
G01*
X155967500Y-117890000D01*
G75*
G02*
X156115000Y-118037500I0J-147500D01*
G01*
G37*
G36*
G01*
X157085000Y-118037500D02*
X157085000Y-118382500D01*
G75*
G02*
X156937500Y-118530000I-147500J0D01*
G01*
X156642500Y-118530000D01*
G75*
G02*
X156495000Y-118382500I0J147500D01*
G01*
X156495000Y-118037500D01*
G75*
G02*
X156642500Y-117890000I147500J0D01*
G01*
X156937500Y-117890000D01*
G75*
G02*
X157085000Y-118037500I0J-147500D01*
G01*
G37*
G04 #@! TD*
G04 #@! TO.C,R5*
G36*
G01*
X134507500Y-92200000D02*
X134852500Y-92200000D01*
G75*
G02*
X135000000Y-92347500I0J-147500D01*
G01*
X135000000Y-92642500D01*
G75*
G02*
X134852500Y-92790000I-147500J0D01*
G01*
X134507500Y-92790000D01*
G75*
G02*
X134360000Y-92642500I0J147500D01*
G01*
X134360000Y-92347500D01*
G75*
G02*
X134507500Y-92200000I147500J0D01*
G01*
G37*
G36*
G01*
X134507500Y-93170000D02*
X134852500Y-93170000D01*
G75*
G02*
X135000000Y-93317500I0J-147500D01*
G01*
X135000000Y-93612500D01*
G75*
G02*
X134852500Y-93760000I-147500J0D01*
G01*
X134507500Y-93760000D01*
G75*
G02*
X134360000Y-93612500I0J147500D01*
G01*
X134360000Y-93317500D01*
G75*
G02*
X134507500Y-93170000I147500J0D01*
G01*
G37*
G04 #@! TD*
G04 #@! TO.C,R6*
G36*
G01*
X132857500Y-92185000D02*
X133202500Y-92185000D01*
G75*
G02*
X133350000Y-92332500I0J-147500D01*
G01*
X133350000Y-92627500D01*
G75*
G02*
X133202500Y-92775000I-147500J0D01*
G01*
X132857500Y-92775000D01*
G75*
G02*
X132710000Y-92627500I0J147500D01*
G01*
X132710000Y-92332500D01*
G75*
G02*
X132857500Y-92185000I147500J0D01*
G01*
G37*
G36*
G01*
X132857500Y-93155000D02*
X133202500Y-93155000D01*
G75*
G02*
X133350000Y-93302500I0J-147500D01*
G01*
X133350000Y-93597500D01*
G75*
G02*
X133202500Y-93745000I-147500J0D01*
G01*
X132857500Y-93745000D01*
G75*
G02*
X132710000Y-93597500I0J147500D01*
G01*
X132710000Y-93302500D01*
G75*
G02*
X132857500Y-93155000I147500J0D01*
G01*
G37*
G04 #@! TD*
G04 #@! TO.C,R7*
G36*
G01*
X150977500Y-84470000D02*
X151322500Y-84470000D01*
G75*
G02*
X151470000Y-84617500I0J-147500D01*
G01*
X151470000Y-84912500D01*
G75*
G02*
X151322500Y-85060000I-147500J0D01*
G01*
X150977500Y-85060000D01*
G75*
G02*
X150830000Y-84912500I0J147500D01*
G01*
X150830000Y-84617500D01*
G75*
G02*
X150977500Y-84470000I147500J0D01*
G01*
G37*
G36*
G01*
X150977500Y-85440000D02*
X151322500Y-85440000D01*
G75*
G02*
X151470000Y-85587500I0J-147500D01*
G01*
X151470000Y-85882500D01*
G75*
G02*
X151322500Y-86030000I-147500J0D01*
G01*
X150977500Y-86030000D01*
G75*
G02*
X150830000Y-85882500I0J147500D01*
G01*
X150830000Y-85587500D01*
G75*
G02*
X150977500Y-85440000I147500J0D01*
G01*
G37*
G04 #@! TD*
G04 #@! TO.C,R8*
G36*
G01*
X152957500Y-91115000D02*
X153302500Y-91115000D01*
G75*
G02*
X153450000Y-91262500I0J-147500D01*
G01*
X153450000Y-91557500D01*
G75*
G02*
X153302500Y-91705000I-147500J0D01*
G01*
X152957500Y-91705000D01*
G75*
G02*
X152810000Y-91557500I0J147500D01*
G01*
X152810000Y-91262500D01*
G75*
G02*
X152957500Y-91115000I147500J0D01*
G01*
G37*
G36*
G01*
X152957500Y-90145000D02*
X153302500Y-90145000D01*
G75*
G02*
X153450000Y-90292500I0J-147500D01*
G01*
X153450000Y-90587500D01*
G75*
G02*
X153302500Y-90735000I-147500J0D01*
G01*
X152957500Y-90735000D01*
G75*
G02*
X152810000Y-90587500I0J147500D01*
G01*
X152810000Y-90292500D01*
G75*
G02*
X152957500Y-90145000I147500J0D01*
G01*
G37*
G04 #@! TD*
G04 #@! TO.C,R9*
G36*
G01*
X151317500Y-90115000D02*
X151662500Y-90115000D01*
G75*
G02*
X151810000Y-90262500I0J-147500D01*
G01*
X151810000Y-90557500D01*
G75*
G02*
X151662500Y-90705000I-147500J0D01*
G01*
X151317500Y-90705000D01*
G75*
G02*
X151170000Y-90557500I0J147500D01*
G01*
X151170000Y-90262500D01*
G75*
G02*
X151317500Y-90115000I147500J0D01*
G01*
G37*
G36*
G01*
X151317500Y-91085000D02*
X151662500Y-91085000D01*
G75*
G02*
X151810000Y-91232500I0J-147500D01*
G01*
X151810000Y-91527500D01*
G75*
G02*
X151662500Y-91675000I-147500J0D01*
G01*
X151317500Y-91675000D01*
G75*
G02*
X151170000Y-91527500I0J147500D01*
G01*
X151170000Y-91232500D01*
G75*
G02*
X151317500Y-91085000I147500J0D01*
G01*
G37*
G04 #@! TD*
G04 #@! TO.C,R10*
G36*
G01*
X169277500Y-88160000D02*
X169622500Y-88160000D01*
G75*
G02*
X169770000Y-88307500I0J-147500D01*
G01*
X169770000Y-88602500D01*
G75*
G02*
X169622500Y-88750000I-147500J0D01*
G01*
X169277500Y-88750000D01*
G75*
G02*
X169130000Y-88602500I0J147500D01*
G01*
X169130000Y-88307500D01*
G75*
G02*
X169277500Y-88160000I147500J0D01*
G01*
G37*
G36*
G01*
X169277500Y-89130000D02*
X169622500Y-89130000D01*
G75*
G02*
X169770000Y-89277500I0J-147500D01*
G01*
X169770000Y-89572500D01*
G75*
G02*
X169622500Y-89720000I-147500J0D01*
G01*
X169277500Y-89720000D01*
G75*
G02*
X169130000Y-89572500I0J147500D01*
G01*
X169130000Y-89277500D01*
G75*
G02*
X169277500Y-89130000I147500J0D01*
G01*
G37*
G04 #@! TD*
G04 #@! TO.C,R11*
G36*
G01*
X131525000Y-101577500D02*
X131525000Y-101922500D01*
G75*
G02*
X131377500Y-102070000I-147500J0D01*
G01*
X131082500Y-102070000D01*
G75*
G02*
X130935000Y-101922500I0J147500D01*
G01*
X130935000Y-101577500D01*
G75*
G02*
X131082500Y-101430000I147500J0D01*
G01*
X131377500Y-101430000D01*
G75*
G02*
X131525000Y-101577500I0J-147500D01*
G01*
G37*
G36*
G01*
X130555000Y-101577500D02*
X130555000Y-101922500D01*
G75*
G02*
X130407500Y-102070000I-147500J0D01*
G01*
X130112500Y-102070000D01*
G75*
G02*
X129965000Y-101922500I0J147500D01*
G01*
X129965000Y-101577500D01*
G75*
G02*
X130112500Y-101430000I147500J0D01*
G01*
X130407500Y-101430000D01*
G75*
G02*
X130555000Y-101577500I0J-147500D01*
G01*
G37*
G04 #@! TD*
G04 #@! TO.C,R12*
G36*
G01*
X127422500Y-81510000D02*
X127077500Y-81510000D01*
G75*
G02*
X126930000Y-81362500I0J147500D01*
G01*
X126930000Y-81067500D01*
G75*
G02*
X127077500Y-80920000I147500J0D01*
G01*
X127422500Y-80920000D01*
G75*
G02*
X127570000Y-81067500I0J-147500D01*
G01*
X127570000Y-81362500D01*
G75*
G02*
X127422500Y-81510000I-147500J0D01*
G01*
G37*
G36*
G01*
X127422500Y-82480000D02*
X127077500Y-82480000D01*
G75*
G02*
X126930000Y-82332500I0J147500D01*
G01*
X126930000Y-82037500D01*
G75*
G02*
X127077500Y-81890000I147500J0D01*
G01*
X127422500Y-81890000D01*
G75*
G02*
X127570000Y-82037500I0J-147500D01*
G01*
X127570000Y-82332500D01*
G75*
G02*
X127422500Y-82480000I-147500J0D01*
G01*
G37*
G04 #@! TD*
G04 #@! TO.C,R13*
G36*
G01*
X130935000Y-100862500D02*
X130935000Y-100517500D01*
G75*
G02*
X131082500Y-100370000I147500J0D01*
G01*
X131377500Y-100370000D01*
G75*
G02*
X131525000Y-100517500I0J-147500D01*
G01*
X131525000Y-100862500D01*
G75*
G02*
X131377500Y-101010000I-147500J0D01*
G01*
X131082500Y-101010000D01*
G75*
G02*
X130935000Y-100862500I0J147500D01*
G01*
G37*
G36*
G01*
X129965000Y-100862500D02*
X129965000Y-100517500D01*
G75*
G02*
X130112500Y-100370000I147500J0D01*
G01*
X130407500Y-100370000D01*
G75*
G02*
X130555000Y-100517500I0J-147500D01*
G01*
X130555000Y-100862500D01*
G75*
G02*
X130407500Y-101010000I-147500J0D01*
G01*
X130112500Y-101010000D01*
G75*
G02*
X129965000Y-100862500I0J147500D01*
G01*
G37*
G04 #@! TD*
D19*
G04 #@! TO.C,U1*
X138760001Y-94250000D03*
X138760001Y-93750001D03*
X138760001Y-93249999D03*
X138760001Y-92750000D03*
X138760001Y-92250001D03*
X138760001Y-91750000D03*
X138760001Y-91250000D03*
X138760001Y-90749999D03*
X138760001Y-90250000D03*
X138760001Y-89750001D03*
X138760001Y-89249999D03*
X138760001Y-88750000D03*
D20*
X140260000Y-87250001D03*
X140759999Y-87250001D03*
X141260001Y-87250001D03*
X141760000Y-87250001D03*
X142259999Y-87250001D03*
X142760000Y-87250001D03*
X143260000Y-87250001D03*
X143760001Y-87250001D03*
X144260000Y-87250001D03*
X144759999Y-87250001D03*
X145260001Y-87250001D03*
X145760000Y-87250001D03*
D19*
X147259999Y-88750000D03*
X147259999Y-89249999D03*
X147259999Y-89750001D03*
X147259999Y-90250000D03*
X147259999Y-90749999D03*
X147259999Y-91250000D03*
X147259999Y-91750000D03*
X147259999Y-92250001D03*
X147259999Y-92750000D03*
X147259999Y-93249999D03*
X147259999Y-93750001D03*
X147259999Y-94250000D03*
D20*
X145760000Y-95749999D03*
X145260001Y-95749999D03*
X144759999Y-95749999D03*
X144260000Y-95749999D03*
X143760001Y-95749999D03*
X143260000Y-95749999D03*
X142760000Y-95749999D03*
X142259999Y-95749999D03*
X141760000Y-95749999D03*
X141260001Y-95749999D03*
X140759999Y-95749999D03*
X140260000Y-95749999D03*
G04 #@! TD*
G04 #@! TO.C,U6*
X158260000Y-95739999D03*
X158759999Y-95739999D03*
X159260001Y-95739999D03*
X159760000Y-95739999D03*
X160259999Y-95739999D03*
X160760000Y-95739999D03*
X161260000Y-95739999D03*
X161760001Y-95739999D03*
X162260000Y-95739999D03*
X162759999Y-95739999D03*
X163260001Y-95739999D03*
X163760000Y-95739999D03*
D19*
X165259999Y-94240000D03*
X165259999Y-93740001D03*
X165259999Y-93239999D03*
X165259999Y-92740000D03*
X165259999Y-92240001D03*
X165259999Y-91740000D03*
X165259999Y-91240000D03*
X165259999Y-90739999D03*
X165259999Y-90240000D03*
X165259999Y-89740001D03*
X165259999Y-89239999D03*
X165259999Y-88740000D03*
D20*
X163760000Y-87240001D03*
X163260001Y-87240001D03*
X162759999Y-87240001D03*
X162260000Y-87240001D03*
X161760001Y-87240001D03*
X161260000Y-87240001D03*
X160760000Y-87240001D03*
X160259999Y-87240001D03*
X159760000Y-87240001D03*
X159260001Y-87240001D03*
X158759999Y-87240001D03*
X158260000Y-87240001D03*
D19*
X156760001Y-88740000D03*
X156760001Y-89239999D03*
X156760001Y-89740001D03*
X156760001Y-90240000D03*
X156760001Y-90739999D03*
X156760001Y-91240000D03*
X156760001Y-91740000D03*
X156760001Y-92240001D03*
X156760001Y-92740000D03*
X156760001Y-93239999D03*
X156760001Y-93740001D03*
X156760001Y-94240000D03*
G04 #@! TD*
D21*
G04 #@! TO.C,U7*
X153030000Y-122230000D03*
X153030000Y-123180000D03*
X153030000Y-121280000D03*
X155230000Y-121280000D03*
X155230000Y-122230000D03*
X155230000Y-123180000D03*
G04 #@! TD*
G04 #@! TO.C,U8*
X167730000Y-123250000D03*
X167730000Y-122300000D03*
X167730000Y-121350000D03*
X165530000Y-121350000D03*
X165530000Y-123250000D03*
X165530000Y-122300000D03*
G04 #@! TD*
D22*
G04 #@! TO.C,U12*
X125200000Y-104824900D03*
X125850001Y-104824900D03*
X126500000Y-104824900D03*
X127149999Y-104824900D03*
X127800000Y-104824900D03*
D23*
X128874900Y-103750000D03*
X128874900Y-103099999D03*
X128874900Y-102450000D03*
X128874900Y-101800001D03*
X128874900Y-101150000D03*
D22*
X127800000Y-100075100D03*
X127149999Y-100075100D03*
X126500000Y-100075100D03*
X125850001Y-100075100D03*
X125200000Y-100075100D03*
D23*
X124125100Y-101150000D03*
X124125100Y-101800001D03*
X124125100Y-102450000D03*
X124125100Y-103099999D03*
X124125100Y-103750000D03*
D24*
X126500000Y-102450000D03*
G04 #@! TD*
G04 #@! TO.C,C19*
G36*
G01*
X127605000Y-109175000D02*
X128855000Y-109175000D01*
G75*
G02*
X129105000Y-109425000I0J-250000D01*
G01*
X129105000Y-110175000D01*
G75*
G02*
X128855000Y-110425000I-250000J0D01*
G01*
X127605000Y-110425000D01*
G75*
G02*
X127355000Y-110175000I0J250000D01*
G01*
X127355000Y-109425000D01*
G75*
G02*
X127605000Y-109175000I250000J0D01*
G01*
G37*
G36*
G01*
X127605000Y-106375000D02*
X128855000Y-106375000D01*
G75*
G02*
X129105000Y-106625000I0J-250000D01*
G01*
X129105000Y-107375000D01*
G75*
G02*
X128855000Y-107625000I-250000J0D01*
G01*
X127605000Y-107625000D01*
G75*
G02*
X127355000Y-107375000I0J250000D01*
G01*
X127355000Y-106625000D01*
G75*
G02*
X127605000Y-106375000I250000J0D01*
G01*
G37*
G04 #@! TD*
G04 #@! TO.C,C20*
G36*
G01*
X122975000Y-106375000D02*
X124225000Y-106375000D01*
G75*
G02*
X124475000Y-106625000I0J-250000D01*
G01*
X124475000Y-107375000D01*
G75*
G02*
X124225000Y-107625000I-250000J0D01*
G01*
X122975000Y-107625000D01*
G75*
G02*
X122725000Y-107375000I0J250000D01*
G01*
X122725000Y-106625000D01*
G75*
G02*
X122975000Y-106375000I250000J0D01*
G01*
G37*
G36*
G01*
X122975000Y-109175000D02*
X124225000Y-109175000D01*
G75*
G02*
X124475000Y-109425000I0J-250000D01*
G01*
X124475000Y-110175000D01*
G75*
G02*
X124225000Y-110425000I-250000J0D01*
G01*
X122975000Y-110425000D01*
G75*
G02*
X122725000Y-110175000I0J250000D01*
G01*
X122725000Y-109425000D01*
G75*
G02*
X122975000Y-109175000I250000J0D01*
G01*
G37*
G04 #@! TD*
G04 #@! TO.C,C21*
G36*
G01*
X125295000Y-109175000D02*
X126545000Y-109175000D01*
G75*
G02*
X126795000Y-109425000I0J-250000D01*
G01*
X126795000Y-110175000D01*
G75*
G02*
X126545000Y-110425000I-250000J0D01*
G01*
X125295000Y-110425000D01*
G75*
G02*
X125045000Y-110175000I0J250000D01*
G01*
X125045000Y-109425000D01*
G75*
G02*
X125295000Y-109175000I250000J0D01*
G01*
G37*
G36*
G01*
X125295000Y-106375000D02*
X126545000Y-106375000D01*
G75*
G02*
X126795000Y-106625000I0J-250000D01*
G01*
X126795000Y-107375000D01*
G75*
G02*
X126545000Y-107625000I-250000J0D01*
G01*
X125295000Y-107625000D01*
G75*
G02*
X125045000Y-107375000I0J250000D01*
G01*
X125045000Y-106625000D01*
G75*
G02*
X125295000Y-106375000I250000J0D01*
G01*
G37*
G04 #@! TD*
G04 #@! TO.C,C22*
G36*
G01*
X121375000Y-101505000D02*
X122625000Y-101505000D01*
G75*
G02*
X122875000Y-101755000I0J-250000D01*
G01*
X122875000Y-102505000D01*
G75*
G02*
X122625000Y-102755000I-250000J0D01*
G01*
X121375000Y-102755000D01*
G75*
G02*
X121125000Y-102505000I0J250000D01*
G01*
X121125000Y-101755000D01*
G75*
G02*
X121375000Y-101505000I250000J0D01*
G01*
G37*
G36*
G01*
X121375000Y-104305000D02*
X122625000Y-104305000D01*
G75*
G02*
X122875000Y-104555000I0J-250000D01*
G01*
X122875000Y-105305000D01*
G75*
G02*
X122625000Y-105555000I-250000J0D01*
G01*
X121375000Y-105555000D01*
G75*
G02*
X121125000Y-105305000I0J250000D01*
G01*
X121125000Y-104555000D01*
G75*
G02*
X121375000Y-104305000I250000J0D01*
G01*
G37*
G04 #@! TD*
G04 #@! TO.C,C24*
G36*
G01*
X129075000Y-97425000D02*
X129075000Y-98675000D01*
G75*
G02*
X128825000Y-98925000I-250000J0D01*
G01*
X128075000Y-98925000D01*
G75*
G02*
X127825000Y-98675000I0J250000D01*
G01*
X127825000Y-97425000D01*
G75*
G02*
X128075000Y-97175000I250000J0D01*
G01*
X128825000Y-97175000D01*
G75*
G02*
X129075000Y-97425000I0J-250000D01*
G01*
G37*
G36*
G01*
X126275000Y-97425000D02*
X126275000Y-98675000D01*
G75*
G02*
X126025000Y-98925000I-250000J0D01*
G01*
X125275000Y-98925000D01*
G75*
G02*
X125025000Y-98675000I0J250000D01*
G01*
X125025000Y-97425000D01*
G75*
G02*
X125275000Y-97175000I250000J0D01*
G01*
X126025000Y-97175000D01*
G75*
G02*
X126275000Y-97425000I0J-250000D01*
G01*
G37*
G04 #@! TD*
M02*
