M48
; DRILL file {KiCad 5.1.6-c6e7f7d~87~ubuntu19.10.1} date Wed Mar 31 16:12:44 2021
; FORMAT={-:-/ absolute / inch / decimal}
; #@! TF.CreationDate,2021-03-31T16:12:44-04:00
; #@! TF.GenerationSoftware,Kicad,Pcbnew,5.1.6-c6e7f7d~87~ubuntu19.10.1
; #@! TF.FileFunction,Plated,1,4,PTH
FMAT,2
INCH
T1C0.0157
T2C0.0236
T3C0.0256
T4C0.0295
T5C0.0394
T6C0.0400
T7C0.0787
T8C0.1063
%
G90
G05
T1
X4.898Y-3.8386
X4.898Y-3.8701
X4.898Y-3.9055
X4.898Y-3.9409
X4.9374Y-3.9921
X4.9374Y-4.0315
X4.9374Y-4.0709
X4.9803Y-3.9917
X4.9803Y-4.0311
X4.9803Y-4.0705
X5.0094Y-3.5189
X5.024Y-3.9921
X5.024Y-4.0315
X5.024Y-4.0709
X5.0445Y-3.2004
X5.0685Y-3.3484
X5.0736Y-3.5154
X5.1646Y-4.0949
X5.1665Y-3.928
X5.1925Y-3.5287
X5.2031Y-4.028
X5.2618Y-4.213
X5.3185Y-3.8508
X5.3398Y-3.5291
X5.3571Y-3.8508
X5.4098Y-4.9657
X5.4248Y-4.2177
X5.4331Y-3.8224
X5.4637Y-3.4643
X5.4701Y-3.739
X5.4713Y-3.8465
X5.4717Y-4.2157
X5.4866Y-3.8783
X5.4988Y-3.4512
X5.513Y-3.7185
X5.543Y-3.8568
X5.572Y-4.9091
X5.5728Y-3.8362
X5.586Y-3.4988
X5.5915Y-3.8728
X5.6195Y-3.4988
X5.6295Y-3.8839
X5.6323Y-3.3654
X5.6354Y-4.213
X5.6406Y-3.7193
X5.6591Y-3.3818
X5.6651Y-3.505
X5.68Y-3.1938
X5.6886Y-4.213
X5.6923Y-3.5209
X5.7Y-3.8843
X5.7254Y-3.6936
X5.7382Y-3.6642
X5.7425Y-3.7201
X5.7504Y-3.9965
X5.7996Y-3.9957
X5.813Y-4.9138
X5.8327Y-3.4169
X5.837Y-3.4535
X5.8528Y-3.8846
X5.8602Y-4.2098
X5.8951Y-3.4941
X5.8965Y-3.5303
X5.9126Y-3.5972
X5.9213Y-3.4469
X5.928Y-3.3976
X5.9339Y-4.7955
X5.9339Y-4.8289
X5.9661Y-4.8606
X5.9933Y-4.813
X6.028Y-3.4075
X6.0783Y-4.5339
X6.0807Y-4.3063
X6.1Y-3.6831
X6.1034Y-3.6479
X6.1158Y-3.7306
X6.1287Y-4.4287
X6.1398Y-3.8185
X6.1433Y-4.9795
X6.1566Y-3.4438
X6.1571Y-4.8126
X6.1724Y-3.8394
X6.1787Y-4.4315
X6.185Y-3.7343
X6.1953Y-3.4543
X6.2059Y-4.1614
X6.2165Y-3.6909
X6.2287Y-4.3071
X6.2287Y-4.5378
X6.2295Y-3.4787
X6.2295Y-4.1378
X6.2748Y-3.5264
X6.2783Y-3.8362
X6.2984Y-3.55
X6.3539Y-3.7126
X6.3796Y-3.4914
X6.4096Y-3.5008
X6.4343Y-3.6874
X6.4496Y-4.8551
X6.4571Y-3.7138
X6.4612Y-3.578
X6.4618Y-3.5458
X6.4634Y-3.6618
X6.4829Y-4.8163
X6.5433Y-3.4524
X6.6024Y-3.4925
X6.613Y-3.5394
X6.6386Y-4.9787
X6.6433Y-3.5217
X6.6693Y-3.3268
T4
X5.64Y-4.3924
X5.7187Y-4.3924
X5.7975Y-4.3924
X5.64Y-4.6121
X5.7187Y-4.6121
X5.7975Y-4.6121
X5.402Y-3.2539
X5.4807Y-3.2539
X5.5594Y-3.2539
X5.6382Y-3.2539
X5.7169Y-3.2539
X5.7957Y-3.2539
X5.2861Y-4.6117
X5.3648Y-4.6117
X5.4435Y-4.6117
X6.1154Y-3.2539
X6.1941Y-3.2539
X6.2728Y-3.2539
X6.3516Y-3.2539
X6.4303Y-3.2539
X6.5091Y-3.2539
X5.2861Y-4.392
X5.3648Y-4.392
X5.4435Y-4.392
T5
X6.8047Y-3.8122
X6.8047Y-3.9122
X6.8047Y-4.0122
X6.8047Y-4.1122
X6.9047Y-3.8122
X6.9047Y-3.9122
X6.9047Y-4.0122
X6.9047Y-4.1122
X7.0047Y-3.8122
X7.0047Y-3.9122
X7.0047Y-4.0122
X7.0047Y-4.1122
X5.9713Y-3.811
X5.9713Y-3.911
X5.9713Y-4.011
X5.9713Y-4.111
X5.9713Y-4.211
X5.9713Y-4.311
X6.5713Y-3.911
X6.5713Y-4.011
X6.5713Y-4.111
X6.5713Y-4.211
X5.5413Y-4.7921
X5.6413Y-4.7921
X5.7413Y-4.7921
X5.8413Y-4.7921
X6.8028Y-4.2587
X6.8028Y-4.3587
X6.8028Y-4.4587
X6.8028Y-4.5587
X6.9028Y-4.2587
X6.9028Y-4.3587
X6.9028Y-4.4587
X6.9028Y-4.5587
X7.0028Y-4.2587
X7.0028Y-4.3587
X7.0028Y-4.4587
X7.0028Y-4.5587
X6.802Y-3.3654
X6.802Y-3.4654
X6.802Y-3.5654
X6.802Y-3.6654
X6.902Y-3.3654
X6.902Y-3.4654
X6.902Y-3.5654
X6.902Y-3.6654
X7.002Y-3.3654
X7.002Y-3.4654
X7.002Y-3.5654
X7.002Y-3.6654
T6
X4.8705Y-2.9921
X4.8705Y-3.0921
X4.9705Y-2.9921
X4.9705Y-3.0921
X5.0705Y-2.9921
X5.0705Y-3.0921
X5.1705Y-2.9921
X5.1705Y-3.0921
X5.2705Y-2.9921
X5.2705Y-3.0921
X5.3705Y-2.9921
X5.3705Y-3.0921
X5.4705Y-2.9921
X5.4705Y-3.0921
X5.5705Y-2.9921
X5.5705Y-3.0921
X5.6705Y-2.9921
X5.6705Y-3.0921
X5.7705Y-2.9921
X5.7705Y-3.0921
X5.8705Y-2.9921
X5.8705Y-3.0921
X5.9705Y-2.9921
X5.9705Y-3.0921
X6.0705Y-2.9921
X6.0705Y-3.0921
X6.1705Y-2.9921
X6.1705Y-3.0921
X6.2705Y-2.9921
X6.2705Y-3.0921
X6.3705Y-2.9921
X6.3705Y-3.0921
X6.4705Y-2.9921
X6.4705Y-3.0921
X6.5705Y-2.9921
X6.5705Y-3.0921
X6.6705Y-2.9921
X6.6705Y-3.0921
X6.7705Y-2.9921
X6.7705Y-3.0921
X4.8626Y-4.9701
X4.9626Y-4.9701
X5.0626Y-4.9701
X5.2327Y-3.2201
X5.2327Y-3.3201
X5.2327Y-3.4201
T7
X6.7551Y-4.7362
X6.952Y-4.7362
X4.6831Y-4.4902
X4.8799Y-4.4902
X4.6819Y-4.7173
X4.8787Y-4.7173
T8
X6.9622Y-4.9709
X4.6787Y-4.9713
X4.6787Y-3.0421
X6.9622Y-3.0421
T2
G00X6.3955Y-5.0378
M15
G01X6.3955Y-5.0654
M16
G05
G00X6.7242Y-5.0378
M15
G01X6.7242Y-5.0654
M16
G05
G00X5.9033Y-5.0386
M15
G01X5.9033Y-5.0661
M16
G05
G00X6.2321Y-5.0386
M15
G01X6.2321Y-5.0661
M16
G05
T3
G00X6.4722Y-4.9295
M15
G01X6.4722Y-4.9374
M16
G05
G00X6.6474Y-4.9295
M15
G01X6.6474Y-4.9374
M16
G05
G00X5.9801Y-4.9303
M15
G01X5.9801Y-4.9382
M16
G05
G00X6.1553Y-4.9303
M15
G01X6.1553Y-4.9382
M16
G05
T0
M30
