G04 #@! TF.GenerationSoftware,KiCad,Pcbnew,5.1.6-c6e7f7d~87~ubuntu19.10.1*
G04 #@! TF.CreationDate,2021-03-31T16:12:46-04:00*
G04 #@! TF.ProjectId,helios,68656c69-6f73-42e6-9b69-6361645f7063,v1.0*
G04 #@! TF.SameCoordinates,Original*
G04 #@! TF.FileFunction,Copper,L1,Top*
G04 #@! TF.FilePolarity,Positive*
%FSLAX46Y46*%
G04 Gerber Fmt 4.6, Leading zero omitted, Abs format (unit mm)*
G04 Created by KiCad (PCBNEW 5.1.6-c6e7f7d~87~ubuntu19.10.1) date 2021-03-31 16:12:46*
%MOMM*%
%LPD*%
G01*
G04 APERTURE LIST*
G04 #@! TA.AperFunction,ComponentPad*
%ADD10R,1.700000X1.700000*%
G04 #@! TD*
G04 #@! TA.AperFunction,ComponentPad*
%ADD11O,1.700000X1.700000*%
G04 #@! TD*
G04 #@! TA.AperFunction,SMDPad,CuDef*
%ADD12R,1.400000X1.300000*%
G04 #@! TD*
G04 #@! TA.AperFunction,SMDPad,CuDef*
%ADD13R,0.609600X1.549400*%
G04 #@! TD*
G04 #@! TA.AperFunction,ComponentPad*
%ADD14C,3.000000*%
G04 #@! TD*
G04 #@! TA.AperFunction,ComponentPad*
%ADD15O,1.200000X1.750000*%
G04 #@! TD*
G04 #@! TA.AperFunction,SMDPad,CuDef*
%ADD16R,0.875000X1.900000*%
G04 #@! TD*
G04 #@! TA.AperFunction,SMDPad,CuDef*
%ADD17R,2.900000X1.900000*%
G04 #@! TD*
G04 #@! TA.AperFunction,SMDPad,CuDef*
%ADD18R,0.400000X1.350000*%
G04 #@! TD*
G04 #@! TA.AperFunction,ComponentPad*
%ADD19O,1.000000X1.900000*%
G04 #@! TD*
G04 #@! TA.AperFunction,ComponentPad*
%ADD20O,1.050000X1.250000*%
G04 #@! TD*
G04 #@! TA.AperFunction,ComponentPad*
%ADD21O,1.727200X1.727200*%
G04 #@! TD*
G04 #@! TA.AperFunction,ComponentPad*
%ADD22R,1.727200X1.727200*%
G04 #@! TD*
G04 #@! TA.AperFunction,SMDPad,CuDef*
%ADD23R,0.600000X1.550000*%
G04 #@! TD*
G04 #@! TA.AperFunction,SMDPad,CuDef*
%ADD24R,1.200000X1.800000*%
G04 #@! TD*
G04 #@! TA.AperFunction,ComponentPad*
%ADD25C,1.778000*%
G04 #@! TD*
G04 #@! TA.AperFunction,SMDPad,CuDef*
%ADD26R,3.200400X2.501900*%
G04 #@! TD*
G04 #@! TA.AperFunction,SMDPad,CuDef*
%ADD27R,1.193800X0.304800*%
G04 #@! TD*
G04 #@! TA.AperFunction,SMDPad,CuDef*
%ADD28R,0.304800X1.193800*%
G04 #@! TD*
G04 #@! TA.AperFunction,SMDPad,CuDef*
%ADD29R,1.060000X0.650000*%
G04 #@! TD*
G04 #@! TA.AperFunction,SMDPad,CuDef*
%ADD30R,0.304800X0.965200*%
G04 #@! TD*
G04 #@! TA.AperFunction,SMDPad,CuDef*
%ADD31R,0.965200X0.304800*%
G04 #@! TD*
G04 #@! TA.AperFunction,SMDPad,CuDef*
%ADD32R,3.200400X3.200400*%
G04 #@! TD*
G04 #@! TA.AperFunction,ComponentPad*
%ADD33O,1.524000X3.048000*%
G04 #@! TD*
G04 #@! TA.AperFunction,ComponentPad*
%ADD34O,3.048000X1.524000*%
G04 #@! TD*
G04 #@! TA.AperFunction,ComponentPad*
%ADD35C,4.700000*%
G04 #@! TD*
G04 #@! TA.AperFunction,ViaPad*
%ADD36C,0.600000*%
G04 #@! TD*
G04 #@! TA.AperFunction,ViaPad*
%ADD37C,0.800000*%
G04 #@! TD*
G04 #@! TA.AperFunction,Conductor*
%ADD38C,0.300000*%
G04 #@! TD*
G04 #@! TA.AperFunction,Conductor*
%ADD39C,0.500000*%
G04 #@! TD*
G04 #@! TA.AperFunction,Conductor*
%ADD40C,0.250000*%
G04 #@! TD*
G04 #@! TA.AperFunction,Conductor*
%ADD41C,0.750000*%
G04 #@! TD*
G04 #@! TA.AperFunction,Conductor*
%ADD42C,0.200000*%
G04 #@! TD*
G04 #@! TA.AperFunction,Conductor*
%ADD43C,2.800000*%
G04 #@! TD*
G04 #@! TA.AperFunction,Conductor*
%ADD44C,1.000000*%
G04 #@! TD*
G04 #@! TA.AperFunction,Conductor*
%ADD45C,0.254000*%
G04 #@! TD*
G04 APERTURE END LIST*
D10*
G04 #@! TO.P,U10,1*
G04 #@! TO.N,Net-(U10-Pad1)*
X151670000Y-96800000D03*
D11*
G04 #@! TO.P,U10,2*
G04 #@! TO.N,+3V3*
X151670000Y-99340000D03*
G04 #@! TO.P,U10,3*
G04 #@! TO.N,GND*
X151670000Y-101880000D03*
G04 #@! TO.P,U10,4*
G04 #@! TO.N,I2C2_SCL*
X151670000Y-104420000D03*
G04 #@! TO.P,U10,5*
G04 #@! TO.N,I2C2_SDA*
X151670000Y-106960000D03*
G04 #@! TO.P,U10,6*
G04 #@! TO.N,Net-(U10-Pad6)*
X151670000Y-109500000D03*
G04 #@! TO.P,U10,9*
G04 #@! TO.N,Net-(U10-Pad9)*
X166910000Y-104420000D03*
G04 #@! TO.P,U10,8*
G04 #@! TO.N,Net-(U10-Pad8)*
X166910000Y-101880000D03*
D10*
G04 #@! TO.P,U10,7*
G04 #@! TO.N,Net-(U10-Pad7)*
X166910000Y-99340000D03*
D11*
G04 #@! TO.P,U10,10*
G04 #@! TO.N,Net-(U10-Pad10)*
X166910000Y-106960000D03*
G04 #@! TD*
D12*
G04 #@! TO.P,D7,1*
G04 #@! TO.N,VIN*
X121450000Y-107100000D03*
G04 #@! TO.P,D7,2*
G04 #@! TO.N,GND*
X121450000Y-110000000D03*
G04 #@! TD*
D13*
G04 #@! TO.P,U3,1*
G04 #@! TO.N,CAN3_TX*
X148601000Y-100274000D03*
G04 #@! TO.P,U3,2*
G04 #@! TO.N,GND*
X147331000Y-100274000D03*
G04 #@! TO.P,U3,3*
G04 #@! TO.N,+3V3*
X146061000Y-100274000D03*
G04 #@! TO.P,U3,4*
G04 #@! TO.N,CAN3_RX*
X144791000Y-100274000D03*
G04 #@! TO.P,U3,5*
G04 #@! TO.N,GND*
X144791000Y-105674000D03*
G04 #@! TO.P,U3,6*
G04 #@! TO.N,Net-(J2-Pad2)*
X146061000Y-105674000D03*
G04 #@! TO.P,U3,7*
G04 #@! TO.N,Net-(J2-Pad1)*
X147331000Y-105674000D03*
G04 #@! TO.P,U3,8*
G04 #@! TO.N,GND*
X148601000Y-105674000D03*
G04 #@! TD*
G04 #@! TO.P,U5,1*
G04 #@! TO.N,CAN4_TX*
X158205000Y-111190000D03*
G04 #@! TO.P,U5,2*
G04 #@! TO.N,GND*
X156935000Y-111190000D03*
G04 #@! TO.P,U5,3*
G04 #@! TO.N,+3V3*
X155665000Y-111190000D03*
G04 #@! TO.P,U5,4*
G04 #@! TO.N,CAN4_RX*
X154395000Y-111190000D03*
G04 #@! TO.P,U5,5*
G04 #@! TO.N,GND*
X154395000Y-116590000D03*
G04 #@! TO.P,U5,6*
G04 #@! TO.N,Net-(J4-Pad2)*
X155665000Y-116590000D03*
G04 #@! TO.P,U5,7*
G04 #@! TO.N,Net-(J4-Pad1)*
X156935000Y-116590000D03*
G04 #@! TO.P,U5,8*
G04 #@! TO.N,GND*
X158205000Y-116590000D03*
G04 #@! TD*
G04 #@! TO.P,U2,8*
G04 #@! TO.N,GND*
X137461000Y-105664000D03*
G04 #@! TO.P,U2,7*
G04 #@! TO.N,Net-(J1-Pad1)*
X136191000Y-105664000D03*
G04 #@! TO.P,U2,6*
G04 #@! TO.N,Net-(J1-Pad2)*
X134921000Y-105664000D03*
G04 #@! TO.P,U2,5*
G04 #@! TO.N,GND*
X133651000Y-105664000D03*
G04 #@! TO.P,U2,4*
G04 #@! TO.N,CAN1_RX*
X133651000Y-100264000D03*
G04 #@! TO.P,U2,3*
G04 #@! TO.N,+3V3*
X134921000Y-100264000D03*
G04 #@! TO.P,U2,2*
G04 #@! TO.N,GND*
X136191000Y-100264000D03*
G04 #@! TO.P,U2,1*
G04 #@! TO.N,CAN1_TX*
X137461000Y-100264000D03*
G04 #@! TD*
G04 #@! TO.P,U4,8*
G04 #@! TO.N,GND*
X143021000Y-105664000D03*
G04 #@! TO.P,U4,7*
G04 #@! TO.N,Net-(J3-Pad1)*
X141751000Y-105664000D03*
G04 #@! TO.P,U4,6*
G04 #@! TO.N,Net-(J3-Pad2)*
X140481000Y-105664000D03*
G04 #@! TO.P,U4,5*
G04 #@! TO.N,GND*
X139211000Y-105664000D03*
G04 #@! TO.P,U4,4*
G04 #@! TO.N,CAN2_RX*
X139211000Y-100264000D03*
G04 #@! TO.P,U4,3*
G04 #@! TO.N,+3V3*
X140481000Y-100264000D03*
G04 #@! TO.P,U4,2*
G04 #@! TO.N,GND*
X141751000Y-100264000D03*
G04 #@! TO.P,U4,1*
G04 #@! TO.N,CAN2_TX*
X143021000Y-100264000D03*
G04 #@! TD*
D14*
G04 #@! TO.P,1111,+*
G04 #@! TO.N,POWER_IN*
X123950000Y-114050000D03*
G04 #@! TO.P,1111,-*
G04 #@! TO.N,GND*
X118950000Y-114050000D03*
G04 #@! TD*
G04 #@! TO.P,C1,1*
G04 #@! TO.N,GND*
G04 #@! TA.AperFunction,SMDPad,CuDef*
G36*
G01*
X141896000Y-98461500D02*
X141896000Y-98806500D01*
G75*
G02*
X141748500Y-98954000I-147500J0D01*
G01*
X141453500Y-98954000D01*
G75*
G02*
X141306000Y-98806500I0J147500D01*
G01*
X141306000Y-98461500D01*
G75*
G02*
X141453500Y-98314000I147500J0D01*
G01*
X141748500Y-98314000D01*
G75*
G02*
X141896000Y-98461500I0J-147500D01*
G01*
G37*
G04 #@! TD.AperFunction*
G04 #@! TO.P,C1,2*
G04 #@! TO.N,+3V3*
G04 #@! TA.AperFunction,SMDPad,CuDef*
G36*
G01*
X140926000Y-98461500D02*
X140926000Y-98806500D01*
G75*
G02*
X140778500Y-98954000I-147500J0D01*
G01*
X140483500Y-98954000D01*
G75*
G02*
X140336000Y-98806500I0J147500D01*
G01*
X140336000Y-98461500D01*
G75*
G02*
X140483500Y-98314000I147500J0D01*
G01*
X140778500Y-98314000D01*
G75*
G02*
X140926000Y-98461500I0J-147500D01*
G01*
G37*
G04 #@! TD.AperFunction*
G04 #@! TD*
G04 #@! TO.P,C2,2*
G04 #@! TO.N,+3V3*
G04 #@! TA.AperFunction,SMDPad,CuDef*
G36*
G01*
X146501000Y-98461500D02*
X146501000Y-98806500D01*
G75*
G02*
X146353500Y-98954000I-147500J0D01*
G01*
X146058500Y-98954000D01*
G75*
G02*
X145911000Y-98806500I0J147500D01*
G01*
X145911000Y-98461500D01*
G75*
G02*
X146058500Y-98314000I147500J0D01*
G01*
X146353500Y-98314000D01*
G75*
G02*
X146501000Y-98461500I0J-147500D01*
G01*
G37*
G04 #@! TD.AperFunction*
G04 #@! TO.P,C2,1*
G04 #@! TO.N,GND*
G04 #@! TA.AperFunction,SMDPad,CuDef*
G36*
G01*
X147471000Y-98461500D02*
X147471000Y-98806500D01*
G75*
G02*
X147323500Y-98954000I-147500J0D01*
G01*
X147028500Y-98954000D01*
G75*
G02*
X146881000Y-98806500I0J147500D01*
G01*
X146881000Y-98461500D01*
G75*
G02*
X147028500Y-98314000I147500J0D01*
G01*
X147323500Y-98314000D01*
G75*
G02*
X147471000Y-98461500I0J-147500D01*
G01*
G37*
G04 #@! TD.AperFunction*
G04 #@! TD*
G04 #@! TO.P,C3,2*
G04 #@! TO.N,GND*
G04 #@! TA.AperFunction,SMDPad,CuDef*
G36*
G01*
X142585000Y-97277500D02*
X142585000Y-97622500D01*
G75*
G02*
X142437500Y-97770000I-147500J0D01*
G01*
X142142500Y-97770000D01*
G75*
G02*
X141995000Y-97622500I0J147500D01*
G01*
X141995000Y-97277500D01*
G75*
G02*
X142142500Y-97130000I147500J0D01*
G01*
X142437500Y-97130000D01*
G75*
G02*
X142585000Y-97277500I0J-147500D01*
G01*
G37*
G04 #@! TD.AperFunction*
G04 #@! TO.P,C3,1*
G04 #@! TO.N,NRST*
G04 #@! TA.AperFunction,SMDPad,CuDef*
G36*
G01*
X143555000Y-97277500D02*
X143555000Y-97622500D01*
G75*
G02*
X143407500Y-97770000I-147500J0D01*
G01*
X143112500Y-97770000D01*
G75*
G02*
X142965000Y-97622500I0J147500D01*
G01*
X142965000Y-97277500D01*
G75*
G02*
X143112500Y-97130000I147500J0D01*
G01*
X143407500Y-97130000D01*
G75*
G02*
X143555000Y-97277500I0J-147500D01*
G01*
G37*
G04 #@! TD.AperFunction*
G04 #@! TD*
G04 #@! TO.P,C4,1*
G04 #@! TO.N,NRST_2*
G04 #@! TA.AperFunction,SMDPad,CuDef*
G36*
G01*
X161555000Y-97277500D02*
X161555000Y-97622500D01*
G75*
G02*
X161407500Y-97770000I-147500J0D01*
G01*
X161112500Y-97770000D01*
G75*
G02*
X160965000Y-97622500I0J147500D01*
G01*
X160965000Y-97277500D01*
G75*
G02*
X161112500Y-97130000I147500J0D01*
G01*
X161407500Y-97130000D01*
G75*
G02*
X161555000Y-97277500I0J-147500D01*
G01*
G37*
G04 #@! TD.AperFunction*
G04 #@! TO.P,C4,2*
G04 #@! TO.N,GND*
G04 #@! TA.AperFunction,SMDPad,CuDef*
G36*
G01*
X160585000Y-97277500D02*
X160585000Y-97622500D01*
G75*
G02*
X160437500Y-97770000I-147500J0D01*
G01*
X160142500Y-97770000D01*
G75*
G02*
X159995000Y-97622500I0J147500D01*
G01*
X159995000Y-97277500D01*
G75*
G02*
X160142500Y-97130000I147500J0D01*
G01*
X160437500Y-97130000D01*
G75*
G02*
X160585000Y-97277500I0J-147500D01*
G01*
G37*
G04 #@! TD.AperFunction*
G04 #@! TD*
G04 #@! TO.P,C5,1*
G04 #@! TO.N,GND*
G04 #@! TA.AperFunction,SMDPad,CuDef*
G36*
G01*
X136346000Y-98461500D02*
X136346000Y-98806500D01*
G75*
G02*
X136198500Y-98954000I-147500J0D01*
G01*
X135903500Y-98954000D01*
G75*
G02*
X135756000Y-98806500I0J147500D01*
G01*
X135756000Y-98461500D01*
G75*
G02*
X135903500Y-98314000I147500J0D01*
G01*
X136198500Y-98314000D01*
G75*
G02*
X136346000Y-98461500I0J-147500D01*
G01*
G37*
G04 #@! TD.AperFunction*
G04 #@! TO.P,C5,2*
G04 #@! TO.N,+3V3*
G04 #@! TA.AperFunction,SMDPad,CuDef*
G36*
G01*
X135376000Y-98461500D02*
X135376000Y-98806500D01*
G75*
G02*
X135228500Y-98954000I-147500J0D01*
G01*
X134933500Y-98954000D01*
G75*
G02*
X134786000Y-98806500I0J147500D01*
G01*
X134786000Y-98461500D01*
G75*
G02*
X134933500Y-98314000I147500J0D01*
G01*
X135228500Y-98314000D01*
G75*
G02*
X135376000Y-98461500I0J-147500D01*
G01*
G37*
G04 #@! TD.AperFunction*
G04 #@! TD*
G04 #@! TO.P,C6,1*
G04 #@! TO.N,GND*
G04 #@! TA.AperFunction,SMDPad,CuDef*
G36*
G01*
X157085000Y-109367500D02*
X157085000Y-109712500D01*
G75*
G02*
X156937500Y-109860000I-147500J0D01*
G01*
X156642500Y-109860000D01*
G75*
G02*
X156495000Y-109712500I0J147500D01*
G01*
X156495000Y-109367500D01*
G75*
G02*
X156642500Y-109220000I147500J0D01*
G01*
X156937500Y-109220000D01*
G75*
G02*
X157085000Y-109367500I0J-147500D01*
G01*
G37*
G04 #@! TD.AperFunction*
G04 #@! TO.P,C6,2*
G04 #@! TO.N,+3V3*
G04 #@! TA.AperFunction,SMDPad,CuDef*
G36*
G01*
X156115000Y-109367500D02*
X156115000Y-109712500D01*
G75*
G02*
X155967500Y-109860000I-147500J0D01*
G01*
X155672500Y-109860000D01*
G75*
G02*
X155525000Y-109712500I0J147500D01*
G01*
X155525000Y-109367500D01*
G75*
G02*
X155672500Y-109220000I147500J0D01*
G01*
X155967500Y-109220000D01*
G75*
G02*
X156115000Y-109367500I0J-147500D01*
G01*
G37*
G04 #@! TD.AperFunction*
G04 #@! TD*
G04 #@! TO.P,C7,2*
G04 #@! TO.N,GND*
G04 #@! TA.AperFunction,SMDPad,CuDef*
G36*
G01*
X138977500Y-96595000D02*
X139322500Y-96595000D01*
G75*
G02*
X139470000Y-96742500I0J-147500D01*
G01*
X139470000Y-97037500D01*
G75*
G02*
X139322500Y-97185000I-147500J0D01*
G01*
X138977500Y-97185000D01*
G75*
G02*
X138830000Y-97037500I0J147500D01*
G01*
X138830000Y-96742500D01*
G75*
G02*
X138977500Y-96595000I147500J0D01*
G01*
G37*
G04 #@! TD.AperFunction*
G04 #@! TO.P,C7,1*
G04 #@! TO.N,+3V3*
G04 #@! TA.AperFunction,SMDPad,CuDef*
G36*
G01*
X138977500Y-95625000D02*
X139322500Y-95625000D01*
G75*
G02*
X139470000Y-95772500I0J-147500D01*
G01*
X139470000Y-96067500D01*
G75*
G02*
X139322500Y-96215000I-147500J0D01*
G01*
X138977500Y-96215000D01*
G75*
G02*
X138830000Y-96067500I0J147500D01*
G01*
X138830000Y-95772500D01*
G75*
G02*
X138977500Y-95625000I147500J0D01*
G01*
G37*
G04 #@! TD.AperFunction*
G04 #@! TD*
G04 #@! TO.P,C8,1*
G04 #@! TO.N,+3V3*
G04 #@! TA.AperFunction,SMDPad,CuDef*
G36*
G01*
X137927500Y-95025000D02*
X138272500Y-95025000D01*
G75*
G02*
X138420000Y-95172500I0J-147500D01*
G01*
X138420000Y-95467500D01*
G75*
G02*
X138272500Y-95615000I-147500J0D01*
G01*
X137927500Y-95615000D01*
G75*
G02*
X137780000Y-95467500I0J147500D01*
G01*
X137780000Y-95172500D01*
G75*
G02*
X137927500Y-95025000I147500J0D01*
G01*
G37*
G04 #@! TD.AperFunction*
G04 #@! TO.P,C8,2*
G04 #@! TO.N,GND*
G04 #@! TA.AperFunction,SMDPad,CuDef*
G36*
G01*
X137927500Y-95995000D02*
X138272500Y-95995000D01*
G75*
G02*
X138420000Y-96142500I0J-147500D01*
G01*
X138420000Y-96437500D01*
G75*
G02*
X138272500Y-96585000I-147500J0D01*
G01*
X137927500Y-96585000D01*
G75*
G02*
X137780000Y-96437500I0J147500D01*
G01*
X137780000Y-96142500D01*
G75*
G02*
X137927500Y-95995000I147500J0D01*
G01*
G37*
G04 #@! TD.AperFunction*
G04 #@! TD*
G04 #@! TO.P,C9,2*
G04 #@! TO.N,GND*
G04 #@! TA.AperFunction,SMDPad,CuDef*
G36*
G01*
X138505000Y-86887500D02*
X138505000Y-87232500D01*
G75*
G02*
X138357500Y-87380000I-147500J0D01*
G01*
X138062500Y-87380000D01*
G75*
G02*
X137915000Y-87232500I0J147500D01*
G01*
X137915000Y-86887500D01*
G75*
G02*
X138062500Y-86740000I147500J0D01*
G01*
X138357500Y-86740000D01*
G75*
G02*
X138505000Y-86887500I0J-147500D01*
G01*
G37*
G04 #@! TD.AperFunction*
G04 #@! TO.P,C9,1*
G04 #@! TO.N,+3V3*
G04 #@! TA.AperFunction,SMDPad,CuDef*
G36*
G01*
X139475000Y-86887500D02*
X139475000Y-87232500D01*
G75*
G02*
X139327500Y-87380000I-147500J0D01*
G01*
X139032500Y-87380000D01*
G75*
G02*
X138885000Y-87232500I0J147500D01*
G01*
X138885000Y-86887500D01*
G75*
G02*
X139032500Y-86740000I147500J0D01*
G01*
X139327500Y-86740000D01*
G75*
G02*
X139475000Y-86887500I0J-147500D01*
G01*
G37*
G04 #@! TD.AperFunction*
G04 #@! TD*
G04 #@! TO.P,C10,1*
G04 #@! TO.N,+3V3*
G04 #@! TA.AperFunction,SMDPad,CuDef*
G36*
G01*
X147612500Y-87970000D02*
X147267500Y-87970000D01*
G75*
G02*
X147120000Y-87822500I0J147500D01*
G01*
X147120000Y-87527500D01*
G75*
G02*
X147267500Y-87380000I147500J0D01*
G01*
X147612500Y-87380000D01*
G75*
G02*
X147760000Y-87527500I0J-147500D01*
G01*
X147760000Y-87822500D01*
G75*
G02*
X147612500Y-87970000I-147500J0D01*
G01*
G37*
G04 #@! TD.AperFunction*
G04 #@! TO.P,C10,2*
G04 #@! TO.N,GND*
G04 #@! TA.AperFunction,SMDPad,CuDef*
G36*
G01*
X147612500Y-87000000D02*
X147267500Y-87000000D01*
G75*
G02*
X147120000Y-86852500I0J147500D01*
G01*
X147120000Y-86557500D01*
G75*
G02*
X147267500Y-86410000I147500J0D01*
G01*
X147612500Y-86410000D01*
G75*
G02*
X147760000Y-86557500I0J-147500D01*
G01*
X147760000Y-86852500D01*
G75*
G02*
X147612500Y-87000000I-147500J0D01*
G01*
G37*
G04 #@! TD.AperFunction*
G04 #@! TD*
G04 #@! TO.P,C11,2*
G04 #@! TO.N,GND*
G04 #@! TA.AperFunction,SMDPad,CuDef*
G36*
G01*
X149600000Y-90862500D02*
X149600000Y-90517500D01*
G75*
G02*
X149747500Y-90370000I147500J0D01*
G01*
X150042500Y-90370000D01*
G75*
G02*
X150190000Y-90517500I0J-147500D01*
G01*
X150190000Y-90862500D01*
G75*
G02*
X150042500Y-91010000I-147500J0D01*
G01*
X149747500Y-91010000D01*
G75*
G02*
X149600000Y-90862500I0J147500D01*
G01*
G37*
G04 #@! TD.AperFunction*
G04 #@! TO.P,C11,1*
G04 #@! TO.N,+3V3*
G04 #@! TA.AperFunction,SMDPad,CuDef*
G36*
G01*
X148630000Y-90862500D02*
X148630000Y-90517500D01*
G75*
G02*
X148777500Y-90370000I147500J0D01*
G01*
X149072500Y-90370000D01*
G75*
G02*
X149220000Y-90517500I0J-147500D01*
G01*
X149220000Y-90862500D01*
G75*
G02*
X149072500Y-91010000I-147500J0D01*
G01*
X148777500Y-91010000D01*
G75*
G02*
X148630000Y-90862500I0J147500D01*
G01*
G37*
G04 #@! TD.AperFunction*
G04 #@! TD*
G04 #@! TO.P,C12,2*
G04 #@! TO.N,GND*
G04 #@! TA.AperFunction,SMDPad,CuDef*
G36*
G01*
X149122500Y-89025000D02*
X148777500Y-89025000D01*
G75*
G02*
X148630000Y-88877500I0J147500D01*
G01*
X148630000Y-88582500D01*
G75*
G02*
X148777500Y-88435000I147500J0D01*
G01*
X149122500Y-88435000D01*
G75*
G02*
X149270000Y-88582500I0J-147500D01*
G01*
X149270000Y-88877500D01*
G75*
G02*
X149122500Y-89025000I-147500J0D01*
G01*
G37*
G04 #@! TD.AperFunction*
G04 #@! TO.P,C12,1*
G04 #@! TO.N,+3V3*
G04 #@! TA.AperFunction,SMDPad,CuDef*
G36*
G01*
X149122500Y-89995000D02*
X148777500Y-89995000D01*
G75*
G02*
X148630000Y-89847500I0J147500D01*
G01*
X148630000Y-89552500D01*
G75*
G02*
X148777500Y-89405000I147500J0D01*
G01*
X149122500Y-89405000D01*
G75*
G02*
X149270000Y-89552500I0J-147500D01*
G01*
X149270000Y-89847500D01*
G75*
G02*
X149122500Y-89995000I-147500J0D01*
G01*
G37*
G04 #@! TD.AperFunction*
G04 #@! TD*
G04 #@! TO.P,C13,2*
G04 #@! TO.N,GND*
G04 #@! TA.AperFunction,SMDPad,CuDef*
G36*
G01*
X156987500Y-96585000D02*
X157332500Y-96585000D01*
G75*
G02*
X157480000Y-96732500I0J-147500D01*
G01*
X157480000Y-97027500D01*
G75*
G02*
X157332500Y-97175000I-147500J0D01*
G01*
X156987500Y-97175000D01*
G75*
G02*
X156840000Y-97027500I0J147500D01*
G01*
X156840000Y-96732500D01*
G75*
G02*
X156987500Y-96585000I147500J0D01*
G01*
G37*
G04 #@! TD.AperFunction*
G04 #@! TO.P,C13,1*
G04 #@! TO.N,+3V3*
G04 #@! TA.AperFunction,SMDPad,CuDef*
G36*
G01*
X156987500Y-95615000D02*
X157332500Y-95615000D01*
G75*
G02*
X157480000Y-95762500I0J-147500D01*
G01*
X157480000Y-96057500D01*
G75*
G02*
X157332500Y-96205000I-147500J0D01*
G01*
X156987500Y-96205000D01*
G75*
G02*
X156840000Y-96057500I0J147500D01*
G01*
X156840000Y-95762500D01*
G75*
G02*
X156987500Y-95615000I147500J0D01*
G01*
G37*
G04 #@! TD.AperFunction*
G04 #@! TD*
G04 #@! TO.P,C14,2*
G04 #@! TO.N,GND*
G04 #@! TA.AperFunction,SMDPad,CuDef*
G36*
G01*
X155941500Y-95995000D02*
X156286500Y-95995000D01*
G75*
G02*
X156434000Y-96142500I0J-147500D01*
G01*
X156434000Y-96437500D01*
G75*
G02*
X156286500Y-96585000I-147500J0D01*
G01*
X155941500Y-96585000D01*
G75*
G02*
X155794000Y-96437500I0J147500D01*
G01*
X155794000Y-96142500D01*
G75*
G02*
X155941500Y-95995000I147500J0D01*
G01*
G37*
G04 #@! TD.AperFunction*
G04 #@! TO.P,C14,1*
G04 #@! TO.N,+3V3*
G04 #@! TA.AperFunction,SMDPad,CuDef*
G36*
G01*
X155941500Y-95025000D02*
X156286500Y-95025000D01*
G75*
G02*
X156434000Y-95172500I0J-147500D01*
G01*
X156434000Y-95467500D01*
G75*
G02*
X156286500Y-95615000I-147500J0D01*
G01*
X155941500Y-95615000D01*
G75*
G02*
X155794000Y-95467500I0J147500D01*
G01*
X155794000Y-95172500D01*
G75*
G02*
X155941500Y-95025000I147500J0D01*
G01*
G37*
G04 #@! TD.AperFunction*
G04 #@! TD*
G04 #@! TO.P,C15,1*
G04 #@! TO.N,+3V3*
G04 #@! TA.AperFunction,SMDPad,CuDef*
G36*
G01*
X157485000Y-86887500D02*
X157485000Y-87232500D01*
G75*
G02*
X157337500Y-87380000I-147500J0D01*
G01*
X157042500Y-87380000D01*
G75*
G02*
X156895000Y-87232500I0J147500D01*
G01*
X156895000Y-86887500D01*
G75*
G02*
X157042500Y-86740000I147500J0D01*
G01*
X157337500Y-86740000D01*
G75*
G02*
X157485000Y-86887500I0J-147500D01*
G01*
G37*
G04 #@! TD.AperFunction*
G04 #@! TO.P,C15,2*
G04 #@! TO.N,GND*
G04 #@! TA.AperFunction,SMDPad,CuDef*
G36*
G01*
X156515000Y-86887500D02*
X156515000Y-87232500D01*
G75*
G02*
X156367500Y-87380000I-147500J0D01*
G01*
X156072500Y-87380000D01*
G75*
G02*
X155925000Y-87232500I0J147500D01*
G01*
X155925000Y-86887500D01*
G75*
G02*
X156072500Y-86740000I147500J0D01*
G01*
X156367500Y-86740000D01*
G75*
G02*
X156515000Y-86887500I0J-147500D01*
G01*
G37*
G04 #@! TD.AperFunction*
G04 #@! TD*
G04 #@! TO.P,C16,2*
G04 #@! TO.N,GND*
G04 #@! TA.AperFunction,SMDPad,CuDef*
G36*
G01*
X165612500Y-86987000D02*
X165267500Y-86987000D01*
G75*
G02*
X165120000Y-86839500I0J147500D01*
G01*
X165120000Y-86544500D01*
G75*
G02*
X165267500Y-86397000I147500J0D01*
G01*
X165612500Y-86397000D01*
G75*
G02*
X165760000Y-86544500I0J-147500D01*
G01*
X165760000Y-86839500D01*
G75*
G02*
X165612500Y-86987000I-147500J0D01*
G01*
G37*
G04 #@! TD.AperFunction*
G04 #@! TO.P,C16,1*
G04 #@! TO.N,+3V3*
G04 #@! TA.AperFunction,SMDPad,CuDef*
G36*
G01*
X165612500Y-87957000D02*
X165267500Y-87957000D01*
G75*
G02*
X165120000Y-87809500I0J147500D01*
G01*
X165120000Y-87514500D01*
G75*
G02*
X165267500Y-87367000I147500J0D01*
G01*
X165612500Y-87367000D01*
G75*
G02*
X165760000Y-87514500I0J-147500D01*
G01*
X165760000Y-87809500D01*
G75*
G02*
X165612500Y-87957000I-147500J0D01*
G01*
G37*
G04 #@! TD.AperFunction*
G04 #@! TD*
G04 #@! TO.P,C17,1*
G04 #@! TO.N,+3V3*
G04 #@! TA.AperFunction,SMDPad,CuDef*
G36*
G01*
X166630000Y-90752500D02*
X166630000Y-90407500D01*
G75*
G02*
X166777500Y-90260000I147500J0D01*
G01*
X167072500Y-90260000D01*
G75*
G02*
X167220000Y-90407500I0J-147500D01*
G01*
X167220000Y-90752500D01*
G75*
G02*
X167072500Y-90900000I-147500J0D01*
G01*
X166777500Y-90900000D01*
G75*
G02*
X166630000Y-90752500I0J147500D01*
G01*
G37*
G04 #@! TD.AperFunction*
G04 #@! TO.P,C17,2*
G04 #@! TO.N,GND*
G04 #@! TA.AperFunction,SMDPad,CuDef*
G36*
G01*
X167600000Y-90752500D02*
X167600000Y-90407500D01*
G75*
G02*
X167747500Y-90260000I147500J0D01*
G01*
X168042500Y-90260000D01*
G75*
G02*
X168190000Y-90407500I0J-147500D01*
G01*
X168190000Y-90752500D01*
G75*
G02*
X168042500Y-90900000I-147500J0D01*
G01*
X167747500Y-90900000D01*
G75*
G02*
X167600000Y-90752500I0J147500D01*
G01*
G37*
G04 #@! TD.AperFunction*
G04 #@! TD*
G04 #@! TO.P,C18,2*
G04 #@! TO.N,GND*
G04 #@! TA.AperFunction,SMDPad,CuDef*
G36*
G01*
X167122500Y-88925000D02*
X166777500Y-88925000D01*
G75*
G02*
X166630000Y-88777500I0J147500D01*
G01*
X166630000Y-88482500D01*
G75*
G02*
X166777500Y-88335000I147500J0D01*
G01*
X167122500Y-88335000D01*
G75*
G02*
X167270000Y-88482500I0J-147500D01*
G01*
X167270000Y-88777500D01*
G75*
G02*
X167122500Y-88925000I-147500J0D01*
G01*
G37*
G04 #@! TD.AperFunction*
G04 #@! TO.P,C18,1*
G04 #@! TO.N,+3V3*
G04 #@! TA.AperFunction,SMDPad,CuDef*
G36*
G01*
X167122500Y-89895000D02*
X166777500Y-89895000D01*
G75*
G02*
X166630000Y-89747500I0J147500D01*
G01*
X166630000Y-89452500D01*
G75*
G02*
X166777500Y-89305000I147500J0D01*
G01*
X167122500Y-89305000D01*
G75*
G02*
X167270000Y-89452500I0J-147500D01*
G01*
X167270000Y-89747500D01*
G75*
G02*
X167122500Y-89895000I-147500J0D01*
G01*
G37*
G04 #@! TD.AperFunction*
G04 #@! TD*
G04 #@! TO.P,C23,1*
G04 #@! TO.N,Net-(C23-Pad1)*
G04 #@! TA.AperFunction,SMDPad,CuDef*
G36*
G01*
X129935000Y-103272500D02*
X129935000Y-102927500D01*
G75*
G02*
X130082500Y-102780000I147500J0D01*
G01*
X130377500Y-102780000D01*
G75*
G02*
X130525000Y-102927500I0J-147500D01*
G01*
X130525000Y-103272500D01*
G75*
G02*
X130377500Y-103420000I-147500J0D01*
G01*
X130082500Y-103420000D01*
G75*
G02*
X129935000Y-103272500I0J147500D01*
G01*
G37*
G04 #@! TD.AperFunction*
G04 #@! TO.P,C23,2*
G04 #@! TO.N,GND*
G04 #@! TA.AperFunction,SMDPad,CuDef*
G36*
G01*
X130905000Y-103272500D02*
X130905000Y-102927500D01*
G75*
G02*
X131052500Y-102780000I147500J0D01*
G01*
X131347500Y-102780000D01*
G75*
G02*
X131495000Y-102927500I0J-147500D01*
G01*
X131495000Y-103272500D01*
G75*
G02*
X131347500Y-103420000I-147500J0D01*
G01*
X131052500Y-103420000D01*
G75*
G02*
X130905000Y-103272500I0J147500D01*
G01*
G37*
G04 #@! TD.AperFunction*
G04 #@! TD*
G04 #@! TO.P,C25,1*
G04 #@! TO.N,+5V*
G04 #@! TA.AperFunction,SMDPad,CuDef*
G36*
G01*
X126983750Y-86107500D02*
X127496250Y-86107500D01*
G75*
G02*
X127715000Y-86326250I0J-218750D01*
G01*
X127715000Y-86763750D01*
G75*
G02*
X127496250Y-86982500I-218750J0D01*
G01*
X126983750Y-86982500D01*
G75*
G02*
X126765000Y-86763750I0J218750D01*
G01*
X126765000Y-86326250D01*
G75*
G02*
X126983750Y-86107500I218750J0D01*
G01*
G37*
G04 #@! TD.AperFunction*
G04 #@! TO.P,C25,2*
G04 #@! TO.N,GND*
G04 #@! TA.AperFunction,SMDPad,CuDef*
G36*
G01*
X126983750Y-87682500D02*
X127496250Y-87682500D01*
G75*
G02*
X127715000Y-87901250I0J-218750D01*
G01*
X127715000Y-88338750D01*
G75*
G02*
X127496250Y-88557500I-218750J0D01*
G01*
X126983750Y-88557500D01*
G75*
G02*
X126765000Y-88338750I0J218750D01*
G01*
X126765000Y-87901250D01*
G75*
G02*
X126983750Y-87682500I218750J0D01*
G01*
G37*
G04 #@! TD.AperFunction*
G04 #@! TD*
G04 #@! TO.P,C26,2*
G04 #@! TO.N,GND*
G04 #@! TA.AperFunction,SMDPad,CuDef*
G36*
G01*
X128593750Y-87680000D02*
X129106250Y-87680000D01*
G75*
G02*
X129325000Y-87898750I0J-218750D01*
G01*
X129325000Y-88336250D01*
G75*
G02*
X129106250Y-88555000I-218750J0D01*
G01*
X128593750Y-88555000D01*
G75*
G02*
X128375000Y-88336250I0J218750D01*
G01*
X128375000Y-87898750D01*
G75*
G02*
X128593750Y-87680000I218750J0D01*
G01*
G37*
G04 #@! TD.AperFunction*
G04 #@! TO.P,C26,1*
G04 #@! TO.N,+5V*
G04 #@! TA.AperFunction,SMDPad,CuDef*
G36*
G01*
X128593750Y-86105000D02*
X129106250Y-86105000D01*
G75*
G02*
X129325000Y-86323750I0J-218750D01*
G01*
X129325000Y-86761250D01*
G75*
G02*
X129106250Y-86980000I-218750J0D01*
G01*
X128593750Y-86980000D01*
G75*
G02*
X128375000Y-86761250I0J218750D01*
G01*
X128375000Y-86323750D01*
G75*
G02*
X128593750Y-86105000I218750J0D01*
G01*
G37*
G04 #@! TD.AperFunction*
G04 #@! TD*
G04 #@! TO.P,D1,1*
G04 #@! TO.N,Net-(D1-Pad1)*
G04 #@! TA.AperFunction,SMDPad,CuDef*
G36*
G01*
X134936250Y-91655000D02*
X134423750Y-91655000D01*
G75*
G02*
X134205000Y-91436250I0J218750D01*
G01*
X134205000Y-90998750D01*
G75*
G02*
X134423750Y-90780000I218750J0D01*
G01*
X134936250Y-90780000D01*
G75*
G02*
X135155000Y-90998750I0J-218750D01*
G01*
X135155000Y-91436250D01*
G75*
G02*
X134936250Y-91655000I-218750J0D01*
G01*
G37*
G04 #@! TD.AperFunction*
G04 #@! TO.P,D1,2*
G04 #@! TO.N,+3V3*
G04 #@! TA.AperFunction,SMDPad,CuDef*
G36*
G01*
X134936250Y-90080000D02*
X134423750Y-90080000D01*
G75*
G02*
X134205000Y-89861250I0J218750D01*
G01*
X134205000Y-89423750D01*
G75*
G02*
X134423750Y-89205000I218750J0D01*
G01*
X134936250Y-89205000D01*
G75*
G02*
X135155000Y-89423750I0J-218750D01*
G01*
X135155000Y-89861250D01*
G75*
G02*
X134936250Y-90080000I-218750J0D01*
G01*
G37*
G04 #@! TD.AperFunction*
G04 #@! TD*
G04 #@! TO.P,D2,1*
G04 #@! TO.N,Net-(D2-Pad1)*
G04 #@! TA.AperFunction,SMDPad,CuDef*
G36*
G01*
X133286250Y-91652500D02*
X132773750Y-91652500D01*
G75*
G02*
X132555000Y-91433750I0J218750D01*
G01*
X132555000Y-90996250D01*
G75*
G02*
X132773750Y-90777500I218750J0D01*
G01*
X133286250Y-90777500D01*
G75*
G02*
X133505000Y-90996250I0J-218750D01*
G01*
X133505000Y-91433750D01*
G75*
G02*
X133286250Y-91652500I-218750J0D01*
G01*
G37*
G04 #@! TD.AperFunction*
G04 #@! TO.P,D2,2*
G04 #@! TO.N,+3V3*
G04 #@! TA.AperFunction,SMDPad,CuDef*
G36*
G01*
X133286250Y-90077500D02*
X132773750Y-90077500D01*
G75*
G02*
X132555000Y-89858750I0J218750D01*
G01*
X132555000Y-89421250D01*
G75*
G02*
X132773750Y-89202500I218750J0D01*
G01*
X133286250Y-89202500D01*
G75*
G02*
X133505000Y-89421250I0J-218750D01*
G01*
X133505000Y-89858750D01*
G75*
G02*
X133286250Y-90077500I-218750J0D01*
G01*
G37*
G04 #@! TD.AperFunction*
G04 #@! TD*
G04 #@! TO.P,D3,2*
G04 #@! TO.N,+3V3*
G04 #@! TA.AperFunction,SMDPad,CuDef*
G36*
G01*
X151411251Y-82244999D02*
X150898751Y-82244999D01*
G75*
G02*
X150680001Y-82026249I0J218750D01*
G01*
X150680001Y-81588749D01*
G75*
G02*
X150898751Y-81369999I218750J0D01*
G01*
X151411251Y-81369999D01*
G75*
G02*
X151630001Y-81588749I0J-218750D01*
G01*
X151630001Y-82026249D01*
G75*
G02*
X151411251Y-82244999I-218750J0D01*
G01*
G37*
G04 #@! TD.AperFunction*
G04 #@! TO.P,D3,1*
G04 #@! TO.N,Net-(D3-Pad1)*
G04 #@! TA.AperFunction,SMDPad,CuDef*
G36*
G01*
X151411251Y-83819999D02*
X150898751Y-83819999D01*
G75*
G02*
X150680001Y-83601249I0J218750D01*
G01*
X150680001Y-83163749D01*
G75*
G02*
X150898751Y-82944999I218750J0D01*
G01*
X151411251Y-82944999D01*
G75*
G02*
X151630001Y-83163749I0J-218750D01*
G01*
X151630001Y-83601249D01*
G75*
G02*
X151411251Y-83819999I-218750J0D01*
G01*
G37*
G04 #@! TD.AperFunction*
G04 #@! TD*
G04 #@! TO.P,D4,2*
G04 #@! TO.N,+3V3*
G04 #@! TA.AperFunction,SMDPad,CuDef*
G36*
G01*
X153386250Y-88000000D02*
X152873750Y-88000000D01*
G75*
G02*
X152655000Y-87781250I0J218750D01*
G01*
X152655000Y-87343750D01*
G75*
G02*
X152873750Y-87125000I218750J0D01*
G01*
X153386250Y-87125000D01*
G75*
G02*
X153605000Y-87343750I0J-218750D01*
G01*
X153605000Y-87781250D01*
G75*
G02*
X153386250Y-88000000I-218750J0D01*
G01*
G37*
G04 #@! TD.AperFunction*
G04 #@! TO.P,D4,1*
G04 #@! TO.N,Net-(D4-Pad1)*
G04 #@! TA.AperFunction,SMDPad,CuDef*
G36*
G01*
X153386250Y-89575000D02*
X152873750Y-89575000D01*
G75*
G02*
X152655000Y-89356250I0J218750D01*
G01*
X152655000Y-88918750D01*
G75*
G02*
X152873750Y-88700000I218750J0D01*
G01*
X153386250Y-88700000D01*
G75*
G02*
X153605000Y-88918750I0J-218750D01*
G01*
X153605000Y-89356250D01*
G75*
G02*
X153386250Y-89575000I-218750J0D01*
G01*
G37*
G04 #@! TD.AperFunction*
G04 #@! TD*
G04 #@! TO.P,D5,2*
G04 #@! TO.N,+3V3*
G04 #@! TA.AperFunction,SMDPad,CuDef*
G36*
G01*
X151746250Y-87987500D02*
X151233750Y-87987500D01*
G75*
G02*
X151015000Y-87768750I0J218750D01*
G01*
X151015000Y-87331250D01*
G75*
G02*
X151233750Y-87112500I218750J0D01*
G01*
X151746250Y-87112500D01*
G75*
G02*
X151965000Y-87331250I0J-218750D01*
G01*
X151965000Y-87768750D01*
G75*
G02*
X151746250Y-87987500I-218750J0D01*
G01*
G37*
G04 #@! TD.AperFunction*
G04 #@! TO.P,D5,1*
G04 #@! TO.N,Net-(D5-Pad1)*
G04 #@! TA.AperFunction,SMDPad,CuDef*
G36*
G01*
X151746250Y-89562500D02*
X151233750Y-89562500D01*
G75*
G02*
X151015000Y-89343750I0J218750D01*
G01*
X151015000Y-88906250D01*
G75*
G02*
X151233750Y-88687500I218750J0D01*
G01*
X151746250Y-88687500D01*
G75*
G02*
X151965000Y-88906250I0J-218750D01*
G01*
X151965000Y-89343750D01*
G75*
G02*
X151746250Y-89562500I-218750J0D01*
G01*
G37*
G04 #@! TD.AperFunction*
G04 #@! TD*
G04 #@! TO.P,D6,1*
G04 #@! TO.N,Net-(D6-Pad1)*
G04 #@! TA.AperFunction,SMDPad,CuDef*
G36*
G01*
X169691251Y-87539999D02*
X169178751Y-87539999D01*
G75*
G02*
X168960001Y-87321249I0J218750D01*
G01*
X168960001Y-86883749D01*
G75*
G02*
X169178751Y-86664999I218750J0D01*
G01*
X169691251Y-86664999D01*
G75*
G02*
X169910001Y-86883749I0J-218750D01*
G01*
X169910001Y-87321249D01*
G75*
G02*
X169691251Y-87539999I-218750J0D01*
G01*
G37*
G04 #@! TD.AperFunction*
G04 #@! TO.P,D6,2*
G04 #@! TO.N,+3V3*
G04 #@! TA.AperFunction,SMDPad,CuDef*
G36*
G01*
X169691251Y-85964999D02*
X169178751Y-85964999D01*
G75*
G02*
X168960001Y-85746249I0J218750D01*
G01*
X168960001Y-85308749D01*
G75*
G02*
X169178751Y-85089999I218750J0D01*
G01*
X169691251Y-85089999D01*
G75*
G02*
X169910001Y-85308749I0J-218750D01*
G01*
X169910001Y-85746249D01*
G75*
G02*
X169691251Y-85964999I-218750J0D01*
G01*
G37*
G04 #@! TD.AperFunction*
G04 #@! TD*
G04 #@! TO.P,D8,1*
G04 #@! TO.N,Net-(D8-Pad1)*
G04 #@! TA.AperFunction,SMDPad,CuDef*
G36*
G01*
X126993750Y-83035000D02*
X127506250Y-83035000D01*
G75*
G02*
X127725000Y-83253750I0J-218750D01*
G01*
X127725000Y-83691250D01*
G75*
G02*
X127506250Y-83910000I-218750J0D01*
G01*
X126993750Y-83910000D01*
G75*
G02*
X126775000Y-83691250I0J218750D01*
G01*
X126775000Y-83253750D01*
G75*
G02*
X126993750Y-83035000I218750J0D01*
G01*
G37*
G04 #@! TD.AperFunction*
G04 #@! TO.P,D8,2*
G04 #@! TO.N,+5V*
G04 #@! TA.AperFunction,SMDPad,CuDef*
G36*
G01*
X126993750Y-84610000D02*
X127506250Y-84610000D01*
G75*
G02*
X127725000Y-84828750I0J-218750D01*
G01*
X127725000Y-85266250D01*
G75*
G02*
X127506250Y-85485000I-218750J0D01*
G01*
X126993750Y-85485000D01*
G75*
G02*
X126775000Y-85266250I0J218750D01*
G01*
X126775000Y-84828750D01*
G75*
G02*
X126993750Y-84610000I218750J0D01*
G01*
G37*
G04 #@! TD.AperFunction*
G04 #@! TD*
G04 #@! TO.P,F1,1*
G04 #@! TO.N,POWER_IN*
G04 #@! TA.AperFunction,SMDPad,CuDef*
G36*
G01*
X130836250Y-110425000D02*
X130323750Y-110425000D01*
G75*
G02*
X130105000Y-110206250I0J218750D01*
G01*
X130105000Y-109768750D01*
G75*
G02*
X130323750Y-109550000I218750J0D01*
G01*
X130836250Y-109550000D01*
G75*
G02*
X131055000Y-109768750I0J-218750D01*
G01*
X131055000Y-110206250D01*
G75*
G02*
X130836250Y-110425000I-218750J0D01*
G01*
G37*
G04 #@! TD.AperFunction*
G04 #@! TO.P,F1,2*
G04 #@! TO.N,VIN*
G04 #@! TA.AperFunction,SMDPad,CuDef*
G36*
G01*
X130836250Y-108850000D02*
X130323750Y-108850000D01*
G75*
G02*
X130105000Y-108631250I0J218750D01*
G01*
X130105000Y-108193750D01*
G75*
G02*
X130323750Y-107975000I218750J0D01*
G01*
X130836250Y-107975000D01*
G75*
G02*
X131055000Y-108193750I0J-218750D01*
G01*
X131055000Y-108631250D01*
G75*
G02*
X130836250Y-108850000I-218750J0D01*
G01*
G37*
G04 #@! TD.AperFunction*
G04 #@! TD*
G04 #@! TO.P,J5,1*
G04 #@! TO.N,+3V3*
G04 #@! TA.AperFunction,ComponentPad*
G36*
G01*
X136610000Y-83275001D02*
X136610000Y-82024999D01*
G75*
G02*
X136859999Y-81775000I249999J0D01*
G01*
X137560001Y-81775000D01*
G75*
G02*
X137810000Y-82024999I0J-249999D01*
G01*
X137810000Y-83275001D01*
G75*
G02*
X137560001Y-83525000I-249999J0D01*
G01*
X136859999Y-83525000D01*
G75*
G02*
X136610000Y-83275001I0J249999D01*
G01*
G37*
G04 #@! TD.AperFunction*
D15*
G04 #@! TO.P,J5,2*
G04 #@! TO.N,SWO*
X139210000Y-82650000D03*
G04 #@! TO.P,J5,3*
G04 #@! TO.N,SWDIO*
X141210000Y-82650000D03*
G04 #@! TO.P,J5,4*
G04 #@! TO.N,SWCLK*
X143210000Y-82650000D03*
G04 #@! TO.P,J5,5*
G04 #@! TO.N,NRST*
X145210000Y-82650000D03*
G04 #@! TO.P,J5,6*
G04 #@! TO.N,GND*
X147210000Y-82650000D03*
G04 #@! TD*
G04 #@! TO.P,J6,6*
G04 #@! TO.N,GND*
X165330000Y-82650000D03*
G04 #@! TO.P,J6,5*
G04 #@! TO.N,NRST_2*
X163330000Y-82650000D03*
G04 #@! TO.P,J6,4*
G04 #@! TO.N,SWCLK_2*
X161330000Y-82650000D03*
G04 #@! TO.P,J6,3*
G04 #@! TO.N,SWDIO_2*
X159330000Y-82650000D03*
G04 #@! TO.P,J6,2*
G04 #@! TO.N,SWO_2*
X157330000Y-82650000D03*
G04 #@! TO.P,J6,1*
G04 #@! TO.N,+3V3*
G04 #@! TA.AperFunction,ComponentPad*
G36*
G01*
X154730000Y-83275001D02*
X154730000Y-82024999D01*
G75*
G02*
X154979999Y-81775000I249999J0D01*
G01*
X155680001Y-81775000D01*
G75*
G02*
X155930000Y-82024999I0J-249999D01*
G01*
X155930000Y-83275001D01*
G75*
G02*
X155680001Y-83525000I-249999J0D01*
G01*
X154979999Y-83525000D01*
G75*
G02*
X154730000Y-83275001I0J249999D01*
G01*
G37*
G04 #@! TD.AperFunction*
G04 #@! TD*
D16*
G04 #@! TO.P,J7,6*
G04 #@! TO.N,Net-(J7-Pad6)*
X150382500Y-128330000D03*
X157857500Y-128330000D03*
D17*
X154120000Y-128330000D03*
D18*
G04 #@! TO.P,J7,2*
G04 #@! TO.N,USB_CONN_D-*
X154770000Y-125655000D03*
D19*
G04 #@! TO.P,J7,6*
G04 #@! TO.N,Net-(J7-Pad6)*
X158295000Y-128330000D03*
X149945000Y-128330000D03*
D20*
X156345000Y-125330000D03*
D18*
G04 #@! TO.P,J7,1*
G04 #@! TO.N,+5V*
X155420000Y-125655000D03*
G04 #@! TO.P,J7,3*
G04 #@! TO.N,USB_CONN_D+*
X154120000Y-125655000D03*
G04 #@! TO.P,J7,4*
G04 #@! TO.N,Net-(J7-Pad4)*
X153470000Y-125655000D03*
G04 #@! TO.P,J7,5*
G04 #@! TO.N,GND*
X152820000Y-125655000D03*
D20*
G04 #@! TO.P,J7,6*
G04 #@! TO.N,Net-(J7-Pad6)*
X151895000Y-125330000D03*
G04 #@! TD*
G04 #@! TO.P,J8,6*
G04 #@! TO.N,Net-(J8-Pad6)*
X164395000Y-125310000D03*
D18*
G04 #@! TO.P,J8,5*
G04 #@! TO.N,GND*
X165320000Y-125635000D03*
G04 #@! TO.P,J8,4*
G04 #@! TO.N,Net-(J8-Pad4)*
X165970000Y-125635000D03*
G04 #@! TO.P,J8,3*
G04 #@! TO.N,USB2_CONN_D+*
X166620000Y-125635000D03*
G04 #@! TO.P,J8,1*
G04 #@! TO.N,+5V*
X167920000Y-125635000D03*
D20*
G04 #@! TO.P,J8,6*
G04 #@! TO.N,Net-(J8-Pad6)*
X168845000Y-125310000D03*
D19*
X162445000Y-128310000D03*
X170795000Y-128310000D03*
D18*
G04 #@! TO.P,J8,2*
G04 #@! TO.N,USB2_CONN_D-*
X167270000Y-125635000D03*
D17*
G04 #@! TO.P,J8,6*
G04 #@! TO.N,Net-(J8-Pad6)*
X166620000Y-128310000D03*
D16*
X170357500Y-128310000D03*
X162882500Y-128310000D03*
G04 #@! TD*
D21*
G04 #@! TO.P,J19,40*
G04 #@! TO.N,SPI1_SCK*
X171970000Y-76000000D03*
G04 #@! TO.P,J19,39*
G04 #@! TO.N,GND*
X171970000Y-78540000D03*
G04 #@! TO.P,J19,38*
G04 #@! TO.N,SPI1_MOSI*
X169430000Y-76000000D03*
G04 #@! TO.P,J19,37*
G04 #@! TO.N,Net-(J19-Pad37)*
X169430000Y-78540000D03*
G04 #@! TO.P,J19,36*
G04 #@! TO.N,Net-(J19-Pad36)*
X166890000Y-76000000D03*
G04 #@! TO.P,J19,35*
G04 #@! TO.N,SPI1_MISO*
X166890000Y-78540000D03*
G04 #@! TO.P,J19,34*
G04 #@! TO.N,GND*
X164350000Y-76000000D03*
G04 #@! TO.P,J19,33*
G04 #@! TO.N,Net-(J19-Pad33)*
X164350000Y-78540000D03*
G04 #@! TO.P,J19,32*
G04 #@! TO.N,Net-(J19-Pad32)*
X161810000Y-76000000D03*
G04 #@! TO.P,J19,31*
G04 #@! TO.N,Net-(J19-Pad31)*
X161810000Y-78540000D03*
G04 #@! TO.P,J19,30*
G04 #@! TO.N,GND*
X159270000Y-76000000D03*
G04 #@! TO.P,J19,29*
G04 #@! TO.N,Net-(J19-Pad29)*
X159270000Y-78540000D03*
G04 #@! TO.P,J19,28*
G04 #@! TO.N,Net-(J19-Pad28)*
X156730000Y-76000000D03*
G04 #@! TO.P,J19,27*
G04 #@! TO.N,Net-(J19-Pad27)*
X156730000Y-78540000D03*
G04 #@! TO.P,J19,26*
G04 #@! TO.N,Net-(J19-Pad26)*
X154190000Y-76000000D03*
G04 #@! TO.P,J19,25*
G04 #@! TO.N,GND*
X154190000Y-78540000D03*
G04 #@! TO.P,J19,24*
G04 #@! TO.N,Net-(J19-Pad24)*
X151650000Y-76000000D03*
G04 #@! TO.P,J19,23*
G04 #@! TO.N,SPI0_SCK*
X151650000Y-78540000D03*
G04 #@! TO.P,J19,22*
G04 #@! TO.N,Net-(J19-Pad22)*
X149110000Y-76000000D03*
G04 #@! TO.P,J19,21*
G04 #@! TO.N,SPI0_MISO*
X149110000Y-78540000D03*
G04 #@! TO.P,J19,20*
G04 #@! TO.N,GND*
X146570000Y-76000000D03*
G04 #@! TO.P,J19,19*
G04 #@! TO.N,SPI0_MOSI*
X146570000Y-78540000D03*
G04 #@! TO.P,J19,18*
G04 #@! TO.N,Net-(J19-Pad18)*
X144030000Y-76000000D03*
G04 #@! TO.P,J19,17*
G04 #@! TO.N,+3V3*
X144030000Y-78540000D03*
G04 #@! TO.P,J19,16*
G04 #@! TO.N,Net-(J19-Pad16)*
X141490000Y-76000000D03*
G04 #@! TO.P,J19,15*
G04 #@! TO.N,Net-(J19-Pad15)*
X141490000Y-78540000D03*
G04 #@! TO.P,J19,14*
G04 #@! TO.N,GND*
X138950000Y-76000000D03*
G04 #@! TO.P,J19,13*
G04 #@! TO.N,Net-(J19-Pad13)*
X138950000Y-78540000D03*
G04 #@! TO.P,J19,12*
G04 #@! TO.N,Net-(J19-Pad12)*
X136410000Y-76000000D03*
G04 #@! TO.P,J19,11*
G04 #@! TO.N,Net-(J19-Pad11)*
X136410000Y-78540000D03*
G04 #@! TO.P,J19,10*
G04 #@! TO.N,Net-(J14-Pad2)*
X133870000Y-76000000D03*
G04 #@! TO.P,J19,9*
G04 #@! TO.N,GND*
X133870000Y-78540000D03*
G04 #@! TO.P,J19,8*
G04 #@! TO.N,Net-(J14-Pad3)*
X131330000Y-76000000D03*
G04 #@! TO.P,J19,7*
G04 #@! TO.N,Net-(J19-Pad7)*
X131330000Y-78540000D03*
G04 #@! TO.P,J19,6*
G04 #@! TO.N,GND*
X128790000Y-76000000D03*
G04 #@! TO.P,J19,5*
G04 #@! TO.N,I2C2_SCL*
X128790000Y-78540000D03*
G04 #@! TO.P,J19,4*
G04 #@! TO.N,+5V*
X126250000Y-76000000D03*
G04 #@! TO.P,J19,3*
G04 #@! TO.N,I2C2_SDA*
X126250000Y-78540000D03*
G04 #@! TO.P,J19,2*
G04 #@! TO.N,+5V*
X123710000Y-76000000D03*
D22*
G04 #@! TO.P,J19,1*
G04 #@! TO.N,+3V3*
X123710000Y-78540000D03*
G04 #@! TD*
D23*
G04 #@! TO.P,J25,2*
G04 #@! TO.N,+3V3*
X137400000Y-124706000D03*
G04 #@! TO.P,J25,3*
G04 #@! TO.N,I2C2_SDA*
X138400000Y-124706000D03*
G04 #@! TO.P,J25,1*
G04 #@! TO.N,GND*
X136400000Y-124706000D03*
G04 #@! TO.P,J25,4*
G04 #@! TO.N,I2C2_SCL*
X139400000Y-124706000D03*
D24*
G04 #@! TO.P,J25,MT1*
G04 #@! TO.N,N/C*
X135100000Y-128606000D03*
G04 #@! TO.P,J25,MT2*
X140700000Y-128606000D03*
G04 #@! TD*
G04 #@! TO.P,J26,MT2*
G04 #@! TO.N,N/C*
X147960000Y-128616000D03*
G04 #@! TO.P,J26,MT1*
X142360000Y-128616000D03*
D23*
G04 #@! TO.P,J26,4*
G04 #@! TO.N,I2C2_SCL*
X146660000Y-124716000D03*
G04 #@! TO.P,J26,1*
G04 #@! TO.N,GND*
X143660000Y-124716000D03*
G04 #@! TO.P,J26,3*
G04 #@! TO.N,I2C2_SDA*
X145660000Y-124716000D03*
G04 #@! TO.P,J26,2*
G04 #@! TO.N,+3V3*
X144660000Y-124716000D03*
G04 #@! TD*
D25*
G04 #@! TO.P,JP1,12*
G04 #@! TO.N,GND*
X177870000Y-115790000D03*
G04 #@! TO.P,JP1,9*
X177870000Y-113250000D03*
G04 #@! TO.P,JP1,6*
X177870000Y-110710000D03*
G04 #@! TO.P,JP1,3*
X177870000Y-108170000D03*
G04 #@! TO.P,JP1,11*
G04 #@! TO.N,+BATT*
X175330000Y-115790000D03*
G04 #@! TO.P,JP1,10*
G04 #@! TO.N,TIM5_CH1_1*
X172790000Y-115790000D03*
G04 #@! TO.P,JP1,8*
G04 #@! TO.N,+BATT*
X175330000Y-113250000D03*
G04 #@! TO.P,JP1,7*
G04 #@! TO.N,TIM5_CH2_1*
X172790000Y-113250000D03*
G04 #@! TO.P,JP1,5*
G04 #@! TO.N,+BATT*
X175330000Y-110710000D03*
G04 #@! TO.P,JP1,4*
G04 #@! TO.N,TIM5_CH3_1*
X172790000Y-110710000D03*
G04 #@! TO.P,JP1,2*
G04 #@! TO.N,+BATT*
X175330000Y-108170000D03*
G04 #@! TO.P,JP1,1*
G04 #@! TO.N,TIM8_CH2N_1*
X172790000Y-108170000D03*
G04 #@! TD*
G04 #@! TO.P,JP2,1*
G04 #@! TO.N,TIM20_CH1_2*
X172770000Y-85480000D03*
G04 #@! TO.P,JP2,2*
G04 #@! TO.N,+BATT*
X175310000Y-85480000D03*
G04 #@! TO.P,JP2,4*
G04 #@! TO.N,TIM8_CH3N_2*
X172770000Y-88020000D03*
G04 #@! TO.P,JP2,5*
G04 #@! TO.N,+BATT*
X175310000Y-88020000D03*
G04 #@! TO.P,JP2,7*
G04 #@! TO.N,TIM8_CH2N_2*
X172770000Y-90560000D03*
G04 #@! TO.P,JP2,8*
G04 #@! TO.N,+BATT*
X175310000Y-90560000D03*
G04 #@! TO.P,JP2,10*
G04 #@! TO.N,TIM5_CH3_2*
X172770000Y-93100000D03*
G04 #@! TO.P,JP2,11*
G04 #@! TO.N,+BATT*
X175310000Y-93100000D03*
G04 #@! TO.P,JP2,3*
G04 #@! TO.N,GND*
X177850000Y-85480000D03*
G04 #@! TO.P,JP2,6*
X177850000Y-88020000D03*
G04 #@! TO.P,JP2,9*
X177850000Y-90560000D03*
G04 #@! TO.P,JP2,12*
X177850000Y-93100000D03*
G04 #@! TD*
G04 #@! TO.P,JP3,1*
G04 #@! TO.N,TIM5_CH2_2*
X172840000Y-96830000D03*
G04 #@! TO.P,JP3,2*
G04 #@! TO.N,+BATT*
X175380000Y-96830000D03*
G04 #@! TO.P,JP3,4*
G04 #@! TO.N,TIM5_CH1_2*
X172840000Y-99370000D03*
G04 #@! TO.P,JP3,5*
G04 #@! TO.N,+BATT*
X175380000Y-99370000D03*
G04 #@! TO.P,JP3,7*
G04 #@! TO.N,TIM20_CH1_1*
X172840000Y-101910000D03*
G04 #@! TO.P,JP3,8*
G04 #@! TO.N,+BATT*
X175380000Y-101910000D03*
G04 #@! TO.P,JP3,10*
G04 #@! TO.N,TIM8_CH3N_1*
X172840000Y-104450000D03*
G04 #@! TO.P,JP3,11*
G04 #@! TO.N,+BATT*
X175380000Y-104450000D03*
G04 #@! TO.P,JP3,3*
G04 #@! TO.N,GND*
X177920000Y-96830000D03*
G04 #@! TO.P,JP3,6*
X177920000Y-99370000D03*
G04 #@! TO.P,JP3,9*
X177920000Y-101910000D03*
G04 #@! TO.P,JP3,12*
X177920000Y-104450000D03*
G04 #@! TD*
D26*
G04 #@! TO.P,L1,1*
G04 #@! TO.N,LX*
X121030000Y-89904950D03*
G04 #@! TO.P,L1,2*
G04 #@! TO.N,+5V*
X121030000Y-81815050D03*
G04 #@! TD*
G04 #@! TO.P,R1,1*
G04 #@! TO.N,Net-(J1-Pad1)*
G04 #@! TA.AperFunction,SMDPad,CuDef*
G36*
G01*
X136356000Y-107141500D02*
X136356000Y-107486500D01*
G75*
G02*
X136208500Y-107634000I-147500J0D01*
G01*
X135913500Y-107634000D01*
G75*
G02*
X135766000Y-107486500I0J147500D01*
G01*
X135766000Y-107141500D01*
G75*
G02*
X135913500Y-106994000I147500J0D01*
G01*
X136208500Y-106994000D01*
G75*
G02*
X136356000Y-107141500I0J-147500D01*
G01*
G37*
G04 #@! TD.AperFunction*
G04 #@! TO.P,R1,2*
G04 #@! TO.N,Net-(J1-Pad2)*
G04 #@! TA.AperFunction,SMDPad,CuDef*
G36*
G01*
X135386000Y-107141500D02*
X135386000Y-107486500D01*
G75*
G02*
X135238500Y-107634000I-147500J0D01*
G01*
X134943500Y-107634000D01*
G75*
G02*
X134796000Y-107486500I0J147500D01*
G01*
X134796000Y-107141500D01*
G75*
G02*
X134943500Y-106994000I147500J0D01*
G01*
X135238500Y-106994000D01*
G75*
G02*
X135386000Y-107141500I0J-147500D01*
G01*
G37*
G04 #@! TD.AperFunction*
G04 #@! TD*
G04 #@! TO.P,R2,2*
G04 #@! TO.N,Net-(J2-Pad2)*
G04 #@! TA.AperFunction,SMDPad,CuDef*
G36*
G01*
X146501000Y-107111500D02*
X146501000Y-107456500D01*
G75*
G02*
X146353500Y-107604000I-147500J0D01*
G01*
X146058500Y-107604000D01*
G75*
G02*
X145911000Y-107456500I0J147500D01*
G01*
X145911000Y-107111500D01*
G75*
G02*
X146058500Y-106964000I147500J0D01*
G01*
X146353500Y-106964000D01*
G75*
G02*
X146501000Y-107111500I0J-147500D01*
G01*
G37*
G04 #@! TD.AperFunction*
G04 #@! TO.P,R2,1*
G04 #@! TO.N,Net-(J2-Pad1)*
G04 #@! TA.AperFunction,SMDPad,CuDef*
G36*
G01*
X147471000Y-107111500D02*
X147471000Y-107456500D01*
G75*
G02*
X147323500Y-107604000I-147500J0D01*
G01*
X147028500Y-107604000D01*
G75*
G02*
X146881000Y-107456500I0J147500D01*
G01*
X146881000Y-107111500D01*
G75*
G02*
X147028500Y-106964000I147500J0D01*
G01*
X147323500Y-106964000D01*
G75*
G02*
X147471000Y-107111500I0J-147500D01*
G01*
G37*
G04 #@! TD.AperFunction*
G04 #@! TD*
G04 #@! TO.P,R3,2*
G04 #@! TO.N,Net-(J3-Pad2)*
G04 #@! TA.AperFunction,SMDPad,CuDef*
G36*
G01*
X140936000Y-107111500D02*
X140936000Y-107456500D01*
G75*
G02*
X140788500Y-107604000I-147500J0D01*
G01*
X140493500Y-107604000D01*
G75*
G02*
X140346000Y-107456500I0J147500D01*
G01*
X140346000Y-107111500D01*
G75*
G02*
X140493500Y-106964000I147500J0D01*
G01*
X140788500Y-106964000D01*
G75*
G02*
X140936000Y-107111500I0J-147500D01*
G01*
G37*
G04 #@! TD.AperFunction*
G04 #@! TO.P,R3,1*
G04 #@! TO.N,Net-(J3-Pad1)*
G04 #@! TA.AperFunction,SMDPad,CuDef*
G36*
G01*
X141906000Y-107111500D02*
X141906000Y-107456500D01*
G75*
G02*
X141758500Y-107604000I-147500J0D01*
G01*
X141463500Y-107604000D01*
G75*
G02*
X141316000Y-107456500I0J147500D01*
G01*
X141316000Y-107111500D01*
G75*
G02*
X141463500Y-106964000I147500J0D01*
G01*
X141758500Y-106964000D01*
G75*
G02*
X141906000Y-107111500I0J-147500D01*
G01*
G37*
G04 #@! TD.AperFunction*
G04 #@! TD*
G04 #@! TO.P,R4,2*
G04 #@! TO.N,Net-(J4-Pad2)*
G04 #@! TA.AperFunction,SMDPad,CuDef*
G36*
G01*
X156115000Y-118037500D02*
X156115000Y-118382500D01*
G75*
G02*
X155967500Y-118530000I-147500J0D01*
G01*
X155672500Y-118530000D01*
G75*
G02*
X155525000Y-118382500I0J147500D01*
G01*
X155525000Y-118037500D01*
G75*
G02*
X155672500Y-117890000I147500J0D01*
G01*
X155967500Y-117890000D01*
G75*
G02*
X156115000Y-118037500I0J-147500D01*
G01*
G37*
G04 #@! TD.AperFunction*
G04 #@! TO.P,R4,1*
G04 #@! TO.N,Net-(J4-Pad1)*
G04 #@! TA.AperFunction,SMDPad,CuDef*
G36*
G01*
X157085000Y-118037500D02*
X157085000Y-118382500D01*
G75*
G02*
X156937500Y-118530000I-147500J0D01*
G01*
X156642500Y-118530000D01*
G75*
G02*
X156495000Y-118382500I0J147500D01*
G01*
X156495000Y-118037500D01*
G75*
G02*
X156642500Y-117890000I147500J0D01*
G01*
X156937500Y-117890000D01*
G75*
G02*
X157085000Y-118037500I0J-147500D01*
G01*
G37*
G04 #@! TD.AperFunction*
G04 #@! TD*
G04 #@! TO.P,R5,1*
G04 #@! TO.N,Net-(D1-Pad1)*
G04 #@! TA.AperFunction,SMDPad,CuDef*
G36*
G01*
X134507500Y-92200000D02*
X134852500Y-92200000D01*
G75*
G02*
X135000000Y-92347500I0J-147500D01*
G01*
X135000000Y-92642500D01*
G75*
G02*
X134852500Y-92790000I-147500J0D01*
G01*
X134507500Y-92790000D01*
G75*
G02*
X134360000Y-92642500I0J147500D01*
G01*
X134360000Y-92347500D01*
G75*
G02*
X134507500Y-92200000I147500J0D01*
G01*
G37*
G04 #@! TD.AperFunction*
G04 #@! TO.P,R5,2*
G04 #@! TO.N,LED_1*
G04 #@! TA.AperFunction,SMDPad,CuDef*
G36*
G01*
X134507500Y-93170000D02*
X134852500Y-93170000D01*
G75*
G02*
X135000000Y-93317500I0J-147500D01*
G01*
X135000000Y-93612500D01*
G75*
G02*
X134852500Y-93760000I-147500J0D01*
G01*
X134507500Y-93760000D01*
G75*
G02*
X134360000Y-93612500I0J147500D01*
G01*
X134360000Y-93317500D01*
G75*
G02*
X134507500Y-93170000I147500J0D01*
G01*
G37*
G04 #@! TD.AperFunction*
G04 #@! TD*
G04 #@! TO.P,R6,1*
G04 #@! TO.N,Net-(D2-Pad1)*
G04 #@! TA.AperFunction,SMDPad,CuDef*
G36*
G01*
X132857500Y-92185000D02*
X133202500Y-92185000D01*
G75*
G02*
X133350000Y-92332500I0J-147500D01*
G01*
X133350000Y-92627500D01*
G75*
G02*
X133202500Y-92775000I-147500J0D01*
G01*
X132857500Y-92775000D01*
G75*
G02*
X132710000Y-92627500I0J147500D01*
G01*
X132710000Y-92332500D01*
G75*
G02*
X132857500Y-92185000I147500J0D01*
G01*
G37*
G04 #@! TD.AperFunction*
G04 #@! TO.P,R6,2*
G04 #@! TO.N,LED_2*
G04 #@! TA.AperFunction,SMDPad,CuDef*
G36*
G01*
X132857500Y-93155000D02*
X133202500Y-93155000D01*
G75*
G02*
X133350000Y-93302500I0J-147500D01*
G01*
X133350000Y-93597500D01*
G75*
G02*
X133202500Y-93745000I-147500J0D01*
G01*
X132857500Y-93745000D01*
G75*
G02*
X132710000Y-93597500I0J147500D01*
G01*
X132710000Y-93302500D01*
G75*
G02*
X132857500Y-93155000I147500J0D01*
G01*
G37*
G04 #@! TD.AperFunction*
G04 #@! TD*
G04 #@! TO.P,R7,1*
G04 #@! TO.N,Net-(D3-Pad1)*
G04 #@! TA.AperFunction,SMDPad,CuDef*
G36*
G01*
X150977500Y-84470000D02*
X151322500Y-84470000D01*
G75*
G02*
X151470000Y-84617500I0J-147500D01*
G01*
X151470000Y-84912500D01*
G75*
G02*
X151322500Y-85060000I-147500J0D01*
G01*
X150977500Y-85060000D01*
G75*
G02*
X150830000Y-84912500I0J147500D01*
G01*
X150830000Y-84617500D01*
G75*
G02*
X150977500Y-84470000I147500J0D01*
G01*
G37*
G04 #@! TD.AperFunction*
G04 #@! TO.P,R7,2*
G04 #@! TO.N,GND*
G04 #@! TA.AperFunction,SMDPad,CuDef*
G36*
G01*
X150977500Y-85440000D02*
X151322500Y-85440000D01*
G75*
G02*
X151470000Y-85587500I0J-147500D01*
G01*
X151470000Y-85882500D01*
G75*
G02*
X151322500Y-86030000I-147500J0D01*
G01*
X150977500Y-86030000D01*
G75*
G02*
X150830000Y-85882500I0J147500D01*
G01*
X150830000Y-85587500D01*
G75*
G02*
X150977500Y-85440000I147500J0D01*
G01*
G37*
G04 #@! TD.AperFunction*
G04 #@! TD*
G04 #@! TO.P,R8,2*
G04 #@! TO.N,LED_3*
G04 #@! TA.AperFunction,SMDPad,CuDef*
G36*
G01*
X152957500Y-91115000D02*
X153302500Y-91115000D01*
G75*
G02*
X153450000Y-91262500I0J-147500D01*
G01*
X153450000Y-91557500D01*
G75*
G02*
X153302500Y-91705000I-147500J0D01*
G01*
X152957500Y-91705000D01*
G75*
G02*
X152810000Y-91557500I0J147500D01*
G01*
X152810000Y-91262500D01*
G75*
G02*
X152957500Y-91115000I147500J0D01*
G01*
G37*
G04 #@! TD.AperFunction*
G04 #@! TO.P,R8,1*
G04 #@! TO.N,Net-(D4-Pad1)*
G04 #@! TA.AperFunction,SMDPad,CuDef*
G36*
G01*
X152957500Y-90145000D02*
X153302500Y-90145000D01*
G75*
G02*
X153450000Y-90292500I0J-147500D01*
G01*
X153450000Y-90587500D01*
G75*
G02*
X153302500Y-90735000I-147500J0D01*
G01*
X152957500Y-90735000D01*
G75*
G02*
X152810000Y-90587500I0J147500D01*
G01*
X152810000Y-90292500D01*
G75*
G02*
X152957500Y-90145000I147500J0D01*
G01*
G37*
G04 #@! TD.AperFunction*
G04 #@! TD*
G04 #@! TO.P,R9,1*
G04 #@! TO.N,Net-(D5-Pad1)*
G04 #@! TA.AperFunction,SMDPad,CuDef*
G36*
G01*
X151317500Y-90115000D02*
X151662500Y-90115000D01*
G75*
G02*
X151810000Y-90262500I0J-147500D01*
G01*
X151810000Y-90557500D01*
G75*
G02*
X151662500Y-90705000I-147500J0D01*
G01*
X151317500Y-90705000D01*
G75*
G02*
X151170000Y-90557500I0J147500D01*
G01*
X151170000Y-90262500D01*
G75*
G02*
X151317500Y-90115000I147500J0D01*
G01*
G37*
G04 #@! TD.AperFunction*
G04 #@! TO.P,R9,2*
G04 #@! TO.N,LED_4*
G04 #@! TA.AperFunction,SMDPad,CuDef*
G36*
G01*
X151317500Y-91085000D02*
X151662500Y-91085000D01*
G75*
G02*
X151810000Y-91232500I0J-147500D01*
G01*
X151810000Y-91527500D01*
G75*
G02*
X151662500Y-91675000I-147500J0D01*
G01*
X151317500Y-91675000D01*
G75*
G02*
X151170000Y-91527500I0J147500D01*
G01*
X151170000Y-91232500D01*
G75*
G02*
X151317500Y-91085000I147500J0D01*
G01*
G37*
G04 #@! TD.AperFunction*
G04 #@! TD*
G04 #@! TO.P,R10,1*
G04 #@! TO.N,Net-(D6-Pad1)*
G04 #@! TA.AperFunction,SMDPad,CuDef*
G36*
G01*
X169277500Y-88160000D02*
X169622500Y-88160000D01*
G75*
G02*
X169770000Y-88307500I0J-147500D01*
G01*
X169770000Y-88602500D01*
G75*
G02*
X169622500Y-88750000I-147500J0D01*
G01*
X169277500Y-88750000D01*
G75*
G02*
X169130000Y-88602500I0J147500D01*
G01*
X169130000Y-88307500D01*
G75*
G02*
X169277500Y-88160000I147500J0D01*
G01*
G37*
G04 #@! TD.AperFunction*
G04 #@! TO.P,R10,2*
G04 #@! TO.N,GND*
G04 #@! TA.AperFunction,SMDPad,CuDef*
G36*
G01*
X169277500Y-89130000D02*
X169622500Y-89130000D01*
G75*
G02*
X169770000Y-89277500I0J-147500D01*
G01*
X169770000Y-89572500D01*
G75*
G02*
X169622500Y-89720000I-147500J0D01*
G01*
X169277500Y-89720000D01*
G75*
G02*
X169130000Y-89572500I0J147500D01*
G01*
X169130000Y-89277500D01*
G75*
G02*
X169277500Y-89130000I147500J0D01*
G01*
G37*
G04 #@! TD.AperFunction*
G04 #@! TD*
G04 #@! TO.P,R11,1*
G04 #@! TO.N,+5V*
G04 #@! TA.AperFunction,SMDPad,CuDef*
G36*
G01*
X131525000Y-101577500D02*
X131525000Y-101922500D01*
G75*
G02*
X131377500Y-102070000I-147500J0D01*
G01*
X131082500Y-102070000D01*
G75*
G02*
X130935000Y-101922500I0J147500D01*
G01*
X130935000Y-101577500D01*
G75*
G02*
X131082500Y-101430000I147500J0D01*
G01*
X131377500Y-101430000D01*
G75*
G02*
X131525000Y-101577500I0J-147500D01*
G01*
G37*
G04 #@! TD.AperFunction*
G04 #@! TO.P,R11,2*
G04 #@! TO.N,FB*
G04 #@! TA.AperFunction,SMDPad,CuDef*
G36*
G01*
X130555000Y-101577500D02*
X130555000Y-101922500D01*
G75*
G02*
X130407500Y-102070000I-147500J0D01*
G01*
X130112500Y-102070000D01*
G75*
G02*
X129965000Y-101922500I0J147500D01*
G01*
X129965000Y-101577500D01*
G75*
G02*
X130112500Y-101430000I147500J0D01*
G01*
X130407500Y-101430000D01*
G75*
G02*
X130555000Y-101577500I0J-147500D01*
G01*
G37*
G04 #@! TD.AperFunction*
G04 #@! TD*
G04 #@! TO.P,R12,2*
G04 #@! TO.N,GND*
G04 #@! TA.AperFunction,SMDPad,CuDef*
G36*
G01*
X127422500Y-81510000D02*
X127077500Y-81510000D01*
G75*
G02*
X126930000Y-81362500I0J147500D01*
G01*
X126930000Y-81067500D01*
G75*
G02*
X127077500Y-80920000I147500J0D01*
G01*
X127422500Y-80920000D01*
G75*
G02*
X127570000Y-81067500I0J-147500D01*
G01*
X127570000Y-81362500D01*
G75*
G02*
X127422500Y-81510000I-147500J0D01*
G01*
G37*
G04 #@! TD.AperFunction*
G04 #@! TO.P,R12,1*
G04 #@! TO.N,Net-(D8-Pad1)*
G04 #@! TA.AperFunction,SMDPad,CuDef*
G36*
G01*
X127422500Y-82480000D02*
X127077500Y-82480000D01*
G75*
G02*
X126930000Y-82332500I0J147500D01*
G01*
X126930000Y-82037500D01*
G75*
G02*
X127077500Y-81890000I147500J0D01*
G01*
X127422500Y-81890000D01*
G75*
G02*
X127570000Y-82037500I0J-147500D01*
G01*
X127570000Y-82332500D01*
G75*
G02*
X127422500Y-82480000I-147500J0D01*
G01*
G37*
G04 #@! TD.AperFunction*
G04 #@! TD*
G04 #@! TO.P,R13,2*
G04 #@! TO.N,GND*
G04 #@! TA.AperFunction,SMDPad,CuDef*
G36*
G01*
X130935000Y-100862500D02*
X130935000Y-100517500D01*
G75*
G02*
X131082500Y-100370000I147500J0D01*
G01*
X131377500Y-100370000D01*
G75*
G02*
X131525000Y-100517500I0J-147500D01*
G01*
X131525000Y-100862500D01*
G75*
G02*
X131377500Y-101010000I-147500J0D01*
G01*
X131082500Y-101010000D01*
G75*
G02*
X130935000Y-100862500I0J147500D01*
G01*
G37*
G04 #@! TD.AperFunction*
G04 #@! TO.P,R13,1*
G04 #@! TO.N,FB*
G04 #@! TA.AperFunction,SMDPad,CuDef*
G36*
G01*
X129965000Y-100862500D02*
X129965000Y-100517500D01*
G75*
G02*
X130112500Y-100370000I147500J0D01*
G01*
X130407500Y-100370000D01*
G75*
G02*
X130555000Y-100517500I0J-147500D01*
G01*
X130555000Y-100862500D01*
G75*
G02*
X130407500Y-101010000I-147500J0D01*
G01*
X130112500Y-101010000D01*
G75*
G02*
X129965000Y-100862500I0J147500D01*
G01*
G37*
G04 #@! TD.AperFunction*
G04 #@! TD*
D27*
G04 #@! TO.P,U1,48*
G04 #@! TO.N,+3V3*
X138760001Y-94250000D03*
G04 #@! TO.P,U1,47*
G04 #@! TO.N,GND*
X138760001Y-93750001D03*
G04 #@! TO.P,U1,46*
G04 #@! TO.N,CAN1_TX*
X138760001Y-93249999D03*
G04 #@! TO.P,U1,45*
G04 #@! TO.N,CAN1_RX*
X138760001Y-92750000D03*
G04 #@! TO.P,U1,44*
G04 #@! TO.N,Net-(U1-Pad44)*
X138760001Y-92250001D03*
G04 #@! TO.P,U1,43*
G04 #@! TO.N,Net-(U1-Pad43)*
X138760001Y-91750000D03*
G04 #@! TO.P,U1,42*
G04 #@! TO.N,LED_2*
X138760001Y-91250000D03*
G04 #@! TO.P,U1,41*
G04 #@! TO.N,LED_1*
X138760001Y-90749999D03*
G04 #@! TO.P,U1,40*
G04 #@! TO.N,SWO*
X138760001Y-90250000D03*
G04 #@! TO.P,U1,39*
G04 #@! TO.N,Net-(U1-Pad39)*
X138760001Y-89750001D03*
G04 #@! TO.P,U1,38*
G04 #@! TO.N,SWCLK*
X138760001Y-89249999D03*
G04 #@! TO.P,U1,37*
G04 #@! TO.N,SWDIO*
X138760001Y-88750000D03*
D28*
G04 #@! TO.P,U1,36*
G04 #@! TO.N,+3V3*
X140260000Y-87250001D03*
G04 #@! TO.P,U1,35*
G04 #@! TO.N,GND*
X140759999Y-87250001D03*
G04 #@! TO.P,U1,34*
G04 #@! TO.N,USB_D+*
X141260001Y-87250001D03*
G04 #@! TO.P,U1,33*
G04 #@! TO.N,USB_D-*
X141760000Y-87250001D03*
G04 #@! TO.P,U1,32*
G04 #@! TO.N,Net-(U1-Pad32)*
X142259999Y-87250001D03*
G04 #@! TO.P,U1,31*
G04 #@! TO.N,I2C2_SCL*
X142760000Y-87250001D03*
G04 #@! TO.P,U1,30*
G04 #@! TO.N,I2C2_SDA*
X143260000Y-87250001D03*
G04 #@! TO.P,U1,29*
G04 #@! TO.N,Net-(U1-Pad29)*
X143760001Y-87250001D03*
G04 #@! TO.P,U1,28*
G04 #@! TO.N,CAN2_RX*
X144260000Y-87250001D03*
G04 #@! TO.P,U1,27*
G04 #@! TO.N,CAN2_TX*
X144759999Y-87250001D03*
G04 #@! TO.P,U1,26*
G04 #@! TO.N,Net-(U1-Pad26)*
X145260001Y-87250001D03*
G04 #@! TO.P,U1,25*
G04 #@! TO.N,Net-(U1-Pad25)*
X145760000Y-87250001D03*
D27*
G04 #@! TO.P,U1,24*
G04 #@! TO.N,+3V3*
X147259999Y-88750000D03*
G04 #@! TO.P,U1,23*
G04 #@! TO.N,GND*
X147259999Y-89249999D03*
G04 #@! TO.P,U1,22*
G04 #@! TO.N,Net-(U1-Pad22)*
X147259999Y-89750001D03*
G04 #@! TO.P,U1,21*
G04 #@! TO.N,+3V3*
X147259999Y-90250000D03*
G04 #@! TO.P,U1,20*
X147259999Y-90749999D03*
G04 #@! TO.P,U1,19*
G04 #@! TO.N,GND*
X147259999Y-91250000D03*
G04 #@! TO.P,U1,18*
G04 #@! TO.N,TIM20_CH1_1*
X147259999Y-91750000D03*
G04 #@! TO.P,U1,17*
G04 #@! TO.N,TIM8_CH3N_1*
X147259999Y-92250001D03*
G04 #@! TO.P,U1,16*
G04 #@! TO.N,TIM8_CH2N_1*
X147259999Y-92750000D03*
G04 #@! TO.P,U1,15*
G04 #@! TO.N,SPI0_MOSI*
X147259999Y-93249999D03*
G04 #@! TO.P,U1,14*
G04 #@! TO.N,SPI0_MISO*
X147259999Y-93750001D03*
G04 #@! TO.P,U1,13*
G04 #@! TO.N,SPI0_SCK*
X147259999Y-94250000D03*
D28*
G04 #@! TO.P,U1,12*
G04 #@! TO.N,SPI0_NSS*
X145760000Y-95749999D03*
G04 #@! TO.P,U1,11*
G04 #@! TO.N,Net-(U1-Pad11)*
X145260001Y-95749999D03*
G04 #@! TO.P,U1,10*
G04 #@! TO.N,TIM5_CH3_1*
X144759999Y-95749999D03*
G04 #@! TO.P,U1,9*
G04 #@! TO.N,TIM5_CH2_1*
X144260000Y-95749999D03*
G04 #@! TO.P,U1,8*
G04 #@! TO.N,TIM5_CH1_1*
X143760001Y-95749999D03*
G04 #@! TO.P,U1,7*
G04 #@! TO.N,NRST*
X143260000Y-95749999D03*
G04 #@! TO.P,U1,6*
G04 #@! TO.N,Net-(U1-Pad6)*
X142760000Y-95749999D03*
G04 #@! TO.P,U1,5*
G04 #@! TO.N,Net-(U1-Pad5)*
X142259999Y-95749999D03*
G04 #@! TO.P,U1,4*
G04 #@! TO.N,GND*
X141760000Y-95749999D03*
G04 #@! TO.P,U1,3*
G04 #@! TO.N,+3V3*
X141260001Y-95749999D03*
G04 #@! TO.P,U1,2*
G04 #@! TO.N,Net-(U1-Pad2)*
X140759999Y-95749999D03*
G04 #@! TO.P,U1,1*
G04 #@! TO.N,+3V3*
X140260000Y-95749999D03*
G04 #@! TD*
G04 #@! TO.P,U6,1*
G04 #@! TO.N,+3V3*
X158260000Y-95739999D03*
G04 #@! TO.P,U6,2*
G04 #@! TO.N,Net-(U6-Pad2)*
X158759999Y-95739999D03*
G04 #@! TO.P,U6,3*
G04 #@! TO.N,+3V3*
X159260001Y-95739999D03*
G04 #@! TO.P,U6,4*
G04 #@! TO.N,GND*
X159760000Y-95739999D03*
G04 #@! TO.P,U6,5*
G04 #@! TO.N,Net-(U6-Pad5)*
X160259999Y-95739999D03*
G04 #@! TO.P,U6,6*
G04 #@! TO.N,Net-(U6-Pad6)*
X160760000Y-95739999D03*
G04 #@! TO.P,U6,7*
G04 #@! TO.N,NRST_2*
X161260000Y-95739999D03*
G04 #@! TO.P,U6,8*
G04 #@! TO.N,TIM5_CH1_2*
X161760001Y-95739999D03*
G04 #@! TO.P,U6,9*
G04 #@! TO.N,TIM5_CH2_2*
X162260000Y-95739999D03*
G04 #@! TO.P,U6,10*
G04 #@! TO.N,TIM5_CH3_2*
X162759999Y-95739999D03*
G04 #@! TO.P,U6,11*
G04 #@! TO.N,Net-(U6-Pad11)*
X163260001Y-95739999D03*
G04 #@! TO.P,U6,12*
G04 #@! TO.N,SPI1_NSS*
X163760000Y-95739999D03*
D27*
G04 #@! TO.P,U6,13*
G04 #@! TO.N,SPI1_SCK*
X165259999Y-94240000D03*
G04 #@! TO.P,U6,14*
G04 #@! TO.N,SPI1_MISO*
X165259999Y-93740001D03*
G04 #@! TO.P,U6,15*
G04 #@! TO.N,SPI1_MOSI*
X165259999Y-93239999D03*
G04 #@! TO.P,U6,16*
G04 #@! TO.N,TIM8_CH2N_2*
X165259999Y-92740000D03*
G04 #@! TO.P,U6,17*
G04 #@! TO.N,TIM8_CH3N_2*
X165259999Y-92240001D03*
G04 #@! TO.P,U6,18*
G04 #@! TO.N,TIM20_CH1_2*
X165259999Y-91740000D03*
G04 #@! TO.P,U6,19*
G04 #@! TO.N,GND*
X165259999Y-91240000D03*
G04 #@! TO.P,U6,20*
G04 #@! TO.N,+3V3*
X165259999Y-90739999D03*
G04 #@! TO.P,U6,21*
X165259999Y-90240000D03*
G04 #@! TO.P,U6,22*
G04 #@! TO.N,Net-(U6-Pad22)*
X165259999Y-89740001D03*
G04 #@! TO.P,U6,23*
G04 #@! TO.N,GND*
X165259999Y-89239999D03*
G04 #@! TO.P,U6,24*
G04 #@! TO.N,+3V3*
X165259999Y-88740000D03*
D28*
G04 #@! TO.P,U6,25*
G04 #@! TO.N,Net-(U6-Pad25)*
X163760000Y-87240001D03*
G04 #@! TO.P,U6,26*
G04 #@! TO.N,Net-(U6-Pad26)*
X163260001Y-87240001D03*
G04 #@! TO.P,U6,27*
G04 #@! TO.N,CAN4_TX*
X162759999Y-87240001D03*
G04 #@! TO.P,U6,28*
G04 #@! TO.N,CAN4_RX*
X162260000Y-87240001D03*
G04 #@! TO.P,U6,29*
G04 #@! TO.N,Net-(U6-Pad29)*
X161760001Y-87240001D03*
G04 #@! TO.P,U6,30*
G04 #@! TO.N,I2C2_SDA*
X161260000Y-87240001D03*
G04 #@! TO.P,U6,31*
G04 #@! TO.N,I2C2_SCL*
X160760000Y-87240001D03*
G04 #@! TO.P,U6,32*
G04 #@! TO.N,Net-(U6-Pad32)*
X160259999Y-87240001D03*
G04 #@! TO.P,U6,33*
G04 #@! TO.N,USB2_D-*
X159760000Y-87240001D03*
G04 #@! TO.P,U6,34*
G04 #@! TO.N,USB2_D+*
X159260001Y-87240001D03*
G04 #@! TO.P,U6,35*
G04 #@! TO.N,GND*
X158759999Y-87240001D03*
G04 #@! TO.P,U6,36*
G04 #@! TO.N,+3V3*
X158260000Y-87240001D03*
D27*
G04 #@! TO.P,U6,37*
G04 #@! TO.N,SWDIO_2*
X156760001Y-88740000D03*
G04 #@! TO.P,U6,38*
G04 #@! TO.N,SWCLK_2*
X156760001Y-89239999D03*
G04 #@! TO.P,U6,39*
G04 #@! TO.N,Net-(U6-Pad39)*
X156760001Y-89740001D03*
G04 #@! TO.P,U6,40*
G04 #@! TO.N,SWO_2*
X156760001Y-90240000D03*
G04 #@! TO.P,U6,41*
G04 #@! TO.N,LED_3*
X156760001Y-90739999D03*
G04 #@! TO.P,U6,42*
G04 #@! TO.N,LED_4*
X156760001Y-91240000D03*
G04 #@! TO.P,U6,43*
G04 #@! TO.N,Net-(U6-Pad43)*
X156760001Y-91740000D03*
G04 #@! TO.P,U6,44*
G04 #@! TO.N,Net-(U6-Pad44)*
X156760001Y-92240001D03*
G04 #@! TO.P,U6,45*
G04 #@! TO.N,CAN3_RX*
X156760001Y-92740000D03*
G04 #@! TO.P,U6,46*
G04 #@! TO.N,CAN3_TX*
X156760001Y-93239999D03*
G04 #@! TO.P,U6,47*
G04 #@! TO.N,GND*
X156760001Y-93740001D03*
G04 #@! TO.P,U6,48*
G04 #@! TO.N,+3V3*
X156760001Y-94240000D03*
G04 #@! TD*
D29*
G04 #@! TO.P,U7,5*
G04 #@! TO.N,+5V*
X153030000Y-122230000D03*
G04 #@! TO.P,U7,6*
G04 #@! TO.N,USB_D-*
X153030000Y-123180000D03*
G04 #@! TO.P,U7,4*
G04 #@! TO.N,USB_D+*
X153030000Y-121280000D03*
G04 #@! TO.P,U7,3*
G04 #@! TO.N,USB_CONN_D+*
X155230000Y-121280000D03*
G04 #@! TO.P,U7,2*
G04 #@! TO.N,GND*
X155230000Y-122230000D03*
G04 #@! TO.P,U7,1*
G04 #@! TO.N,USB_CONN_D-*
X155230000Y-123180000D03*
G04 #@! TD*
G04 #@! TO.P,U8,1*
G04 #@! TO.N,USB2_CONN_D-*
X167730000Y-123250000D03*
G04 #@! TO.P,U8,2*
G04 #@! TO.N,GND*
X167730000Y-122300000D03*
G04 #@! TO.P,U8,3*
G04 #@! TO.N,USB2_CONN_D+*
X167730000Y-121350000D03*
G04 #@! TO.P,U8,4*
G04 #@! TO.N,USB2_D+*
X165530000Y-121350000D03*
G04 #@! TO.P,U8,6*
G04 #@! TO.N,USB2_D-*
X165530000Y-123250000D03*
G04 #@! TO.P,U8,5*
G04 #@! TO.N,+5V*
X165530000Y-122300000D03*
G04 #@! TD*
D14*
G04 #@! TO.P,U9,-*
G04 #@! TO.N,GND*
X118920000Y-119820000D03*
G04 #@! TO.P,U9,+*
G04 #@! TO.N,POWER_IN*
X123920000Y-119820000D03*
G04 #@! TD*
G04 #@! TO.P,U11,-*
G04 #@! TO.N,GND*
X171580000Y-120300000D03*
G04 #@! TO.P,U11,+*
G04 #@! TO.N,+BATT*
X176580000Y-120300000D03*
G04 #@! TD*
D30*
G04 #@! TO.P,U12,1*
G04 #@! TO.N,VIN*
X125200000Y-104824900D03*
G04 #@! TO.P,U12,2*
X125850001Y-104824900D03*
G04 #@! TO.P,U12,3*
X126500000Y-104824900D03*
G04 #@! TO.P,U12,4*
X127149999Y-104824900D03*
G04 #@! TO.P,U12,5*
G04 #@! TO.N,Net-(U12-Pad5)*
X127800000Y-104824900D03*
D31*
G04 #@! TO.P,U12,6*
G04 #@! TO.N,Net-(U12-Pad6)*
X128874900Y-103750000D03*
G04 #@! TO.P,U12,7*
G04 #@! TO.N,Net-(C23-Pad1)*
X128874900Y-103099999D03*
G04 #@! TO.P,U12,8*
G04 #@! TO.N,Net-(U12-Pad8)*
X128874900Y-102450000D03*
G04 #@! TO.P,U12,9*
G04 #@! TO.N,FB*
X128874900Y-101800001D03*
G04 #@! TO.P,U12,10*
G04 #@! TO.N,Net-(U12-Pad10)*
X128874900Y-101150000D03*
D30*
G04 #@! TO.P,U12,11*
G04 #@! TO.N,Net-(U12-Pad11)*
X127800000Y-100075100D03*
G04 #@! TO.P,U12,12*
G04 #@! TO.N,Net-(C24-Pad1)*
X127149999Y-100075100D03*
G04 #@! TO.P,U12,13*
G04 #@! TO.N,GND*
X126500000Y-100075100D03*
G04 #@! TO.P,U12,14*
X125850001Y-100075100D03*
G04 #@! TO.P,U12,15*
X125200000Y-100075100D03*
D31*
G04 #@! TO.P,U12,16*
X124125100Y-101150000D03*
G04 #@! TO.P,U12,17*
G04 #@! TO.N,LX*
X124125100Y-101800001D03*
G04 #@! TO.P,U12,18*
X124125100Y-102450000D03*
G04 #@! TO.P,U12,19*
X124125100Y-103099999D03*
G04 #@! TO.P,U12,20*
G04 #@! TO.N,Net-(C22-Pad2)*
X124125100Y-103750000D03*
D32*
G04 #@! TO.P,U12,21*
G04 #@! TO.N,GND*
X126500000Y-102450000D03*
G04 #@! TD*
G04 #@! TO.P,J1,1*
G04 #@! TO.N,Net-(J1-Pad1)*
G04 #@! TA.AperFunction,ComponentPad*
G36*
G01*
X138866000Y-110932999D02*
X138866000Y-112183001D01*
G75*
G02*
X138616001Y-112433000I-249999J0D01*
G01*
X137915999Y-112433000D01*
G75*
G02*
X137666000Y-112183001I0J249999D01*
G01*
X137666000Y-110932999D01*
G75*
G02*
X137915999Y-110683000I249999J0D01*
G01*
X138616001Y-110683000D01*
G75*
G02*
X138866000Y-110932999I0J-249999D01*
G01*
G37*
G04 #@! TD.AperFunction*
D15*
G04 #@! TO.P,J1,2*
G04 #@! TO.N,Net-(J1-Pad2)*
X136266000Y-111558000D03*
G04 #@! TO.P,J1,3*
G04 #@! TO.N,GND*
X134266000Y-111558000D03*
G04 #@! TD*
G04 #@! TO.P,J2,3*
G04 #@! TO.N,GND*
X143256000Y-111568000D03*
G04 #@! TO.P,J2,2*
G04 #@! TO.N,Net-(J2-Pad2)*
X145256000Y-111568000D03*
G04 #@! TO.P,J2,1*
G04 #@! TO.N,Net-(J2-Pad1)*
G04 #@! TA.AperFunction,ComponentPad*
G36*
G01*
X147856000Y-110942999D02*
X147856000Y-112193001D01*
G75*
G02*
X147606001Y-112443000I-249999J0D01*
G01*
X146905999Y-112443000D01*
G75*
G02*
X146656000Y-112193001I0J249999D01*
G01*
X146656000Y-110942999D01*
G75*
G02*
X146905999Y-110693000I249999J0D01*
G01*
X147606001Y-110693000D01*
G75*
G02*
X147856000Y-110942999I0J-249999D01*
G01*
G37*
G04 #@! TD.AperFunction*
G04 #@! TD*
G04 #@! TO.P,J3,1*
G04 #@! TO.N,Net-(J3-Pad1)*
G04 #@! TA.AperFunction,ComponentPad*
G36*
G01*
X138866000Y-116512999D02*
X138866000Y-117763001D01*
G75*
G02*
X138616001Y-118013000I-249999J0D01*
G01*
X137915999Y-118013000D01*
G75*
G02*
X137666000Y-117763001I0J249999D01*
G01*
X137666000Y-116512999D01*
G75*
G02*
X137915999Y-116263000I249999J0D01*
G01*
X138616001Y-116263000D01*
G75*
G02*
X138866000Y-116512999I0J-249999D01*
G01*
G37*
G04 #@! TD.AperFunction*
G04 #@! TO.P,J3,2*
G04 #@! TO.N,Net-(J3-Pad2)*
X136266000Y-117138000D03*
G04 #@! TO.P,J3,3*
G04 #@! TO.N,GND*
X134266000Y-117138000D03*
G04 #@! TD*
G04 #@! TO.P,J4,3*
G04 #@! TO.N,GND*
X143256000Y-117148000D03*
G04 #@! TO.P,J4,2*
G04 #@! TO.N,Net-(J4-Pad2)*
X145256000Y-117148000D03*
G04 #@! TO.P,J4,1*
G04 #@! TO.N,Net-(J4-Pad1)*
G04 #@! TA.AperFunction,ComponentPad*
G36*
G01*
X147856000Y-116522999D02*
X147856000Y-117773001D01*
G75*
G02*
X147606001Y-118023000I-249999J0D01*
G01*
X146905999Y-118023000D01*
G75*
G02*
X146656000Y-117773001I0J249999D01*
G01*
X146656000Y-116522999D01*
G75*
G02*
X146905999Y-116273000I249999J0D01*
G01*
X147606001Y-116273000D01*
G75*
G02*
X147856000Y-116522999I0J-249999D01*
G01*
G37*
G04 #@! TD.AperFunction*
G04 #@! TD*
G04 #@! TO.P,C19,2*
G04 #@! TO.N,GND*
G04 #@! TA.AperFunction,SMDPad,CuDef*
G36*
G01*
X127605000Y-109175000D02*
X128855000Y-109175000D01*
G75*
G02*
X129105000Y-109425000I0J-250000D01*
G01*
X129105000Y-110175000D01*
G75*
G02*
X128855000Y-110425000I-250000J0D01*
G01*
X127605000Y-110425000D01*
G75*
G02*
X127355000Y-110175000I0J250000D01*
G01*
X127355000Y-109425000D01*
G75*
G02*
X127605000Y-109175000I250000J0D01*
G01*
G37*
G04 #@! TD.AperFunction*
G04 #@! TO.P,C19,1*
G04 #@! TO.N,VIN*
G04 #@! TA.AperFunction,SMDPad,CuDef*
G36*
G01*
X127605000Y-106375000D02*
X128855000Y-106375000D01*
G75*
G02*
X129105000Y-106625000I0J-250000D01*
G01*
X129105000Y-107375000D01*
G75*
G02*
X128855000Y-107625000I-250000J0D01*
G01*
X127605000Y-107625000D01*
G75*
G02*
X127355000Y-107375000I0J250000D01*
G01*
X127355000Y-106625000D01*
G75*
G02*
X127605000Y-106375000I250000J0D01*
G01*
G37*
G04 #@! TD.AperFunction*
G04 #@! TD*
G04 #@! TO.P,C20,1*
G04 #@! TO.N,VIN*
G04 #@! TA.AperFunction,SMDPad,CuDef*
G36*
G01*
X122975000Y-106375000D02*
X124225000Y-106375000D01*
G75*
G02*
X124475000Y-106625000I0J-250000D01*
G01*
X124475000Y-107375000D01*
G75*
G02*
X124225000Y-107625000I-250000J0D01*
G01*
X122975000Y-107625000D01*
G75*
G02*
X122725000Y-107375000I0J250000D01*
G01*
X122725000Y-106625000D01*
G75*
G02*
X122975000Y-106375000I250000J0D01*
G01*
G37*
G04 #@! TD.AperFunction*
G04 #@! TO.P,C20,2*
G04 #@! TO.N,GND*
G04 #@! TA.AperFunction,SMDPad,CuDef*
G36*
G01*
X122975000Y-109175000D02*
X124225000Y-109175000D01*
G75*
G02*
X124475000Y-109425000I0J-250000D01*
G01*
X124475000Y-110175000D01*
G75*
G02*
X124225000Y-110425000I-250000J0D01*
G01*
X122975000Y-110425000D01*
G75*
G02*
X122725000Y-110175000I0J250000D01*
G01*
X122725000Y-109425000D01*
G75*
G02*
X122975000Y-109175000I250000J0D01*
G01*
G37*
G04 #@! TD.AperFunction*
G04 #@! TD*
G04 #@! TO.P,C21,2*
G04 #@! TO.N,GND*
G04 #@! TA.AperFunction,SMDPad,CuDef*
G36*
G01*
X125295000Y-109175000D02*
X126545000Y-109175000D01*
G75*
G02*
X126795000Y-109425000I0J-250000D01*
G01*
X126795000Y-110175000D01*
G75*
G02*
X126545000Y-110425000I-250000J0D01*
G01*
X125295000Y-110425000D01*
G75*
G02*
X125045000Y-110175000I0J250000D01*
G01*
X125045000Y-109425000D01*
G75*
G02*
X125295000Y-109175000I250000J0D01*
G01*
G37*
G04 #@! TD.AperFunction*
G04 #@! TO.P,C21,1*
G04 #@! TO.N,VIN*
G04 #@! TA.AperFunction,SMDPad,CuDef*
G36*
G01*
X125295000Y-106375000D02*
X126545000Y-106375000D01*
G75*
G02*
X126795000Y-106625000I0J-250000D01*
G01*
X126795000Y-107375000D01*
G75*
G02*
X126545000Y-107625000I-250000J0D01*
G01*
X125295000Y-107625000D01*
G75*
G02*
X125045000Y-107375000I0J250000D01*
G01*
X125045000Y-106625000D01*
G75*
G02*
X125295000Y-106375000I250000J0D01*
G01*
G37*
G04 #@! TD.AperFunction*
G04 #@! TD*
G04 #@! TO.P,C22,1*
G04 #@! TO.N,LX*
G04 #@! TA.AperFunction,SMDPad,CuDef*
G36*
G01*
X121375000Y-101505000D02*
X122625000Y-101505000D01*
G75*
G02*
X122875000Y-101755000I0J-250000D01*
G01*
X122875000Y-102505000D01*
G75*
G02*
X122625000Y-102755000I-250000J0D01*
G01*
X121375000Y-102755000D01*
G75*
G02*
X121125000Y-102505000I0J250000D01*
G01*
X121125000Y-101755000D01*
G75*
G02*
X121375000Y-101505000I250000J0D01*
G01*
G37*
G04 #@! TD.AperFunction*
G04 #@! TO.P,C22,2*
G04 #@! TO.N,Net-(C22-Pad2)*
G04 #@! TA.AperFunction,SMDPad,CuDef*
G36*
G01*
X121375000Y-104305000D02*
X122625000Y-104305000D01*
G75*
G02*
X122875000Y-104555000I0J-250000D01*
G01*
X122875000Y-105305000D01*
G75*
G02*
X122625000Y-105555000I-250000J0D01*
G01*
X121375000Y-105555000D01*
G75*
G02*
X121125000Y-105305000I0J250000D01*
G01*
X121125000Y-104555000D01*
G75*
G02*
X121375000Y-104305000I250000J0D01*
G01*
G37*
G04 #@! TD.AperFunction*
G04 #@! TD*
G04 #@! TO.P,C24,1*
G04 #@! TO.N,Net-(C24-Pad1)*
G04 #@! TA.AperFunction,SMDPad,CuDef*
G36*
G01*
X129075000Y-97425000D02*
X129075000Y-98675000D01*
G75*
G02*
X128825000Y-98925000I-250000J0D01*
G01*
X128075000Y-98925000D01*
G75*
G02*
X127825000Y-98675000I0J250000D01*
G01*
X127825000Y-97425000D01*
G75*
G02*
X128075000Y-97175000I250000J0D01*
G01*
X128825000Y-97175000D01*
G75*
G02*
X129075000Y-97425000I0J-250000D01*
G01*
G37*
G04 #@! TD.AperFunction*
G04 #@! TO.P,C24,2*
G04 #@! TO.N,GND*
G04 #@! TA.AperFunction,SMDPad,CuDef*
G36*
G01*
X126275000Y-97425000D02*
X126275000Y-98675000D01*
G75*
G02*
X126025000Y-98925000I-250000J0D01*
G01*
X125275000Y-98925000D01*
G75*
G02*
X125025000Y-98675000I0J250000D01*
G01*
X125025000Y-97425000D01*
G75*
G02*
X125275000Y-97175000I250000J0D01*
G01*
X126025000Y-97175000D01*
G75*
G02*
X126275000Y-97425000I0J-250000D01*
G01*
G37*
G04 #@! TD.AperFunction*
G04 #@! TD*
D10*
G04 #@! TO.P,J22,1*
G04 #@! TO.N,GND*
X140750000Y-121720000D03*
D11*
G04 #@! TO.P,J22,2*
G04 #@! TO.N,+3V3*
X143290000Y-121720000D03*
G04 #@! TO.P,J22,3*
G04 #@! TO.N,I2C2_SDA*
X145830000Y-121720000D03*
G04 #@! TO.P,J22,4*
G04 #@! TO.N,I2C2_SCL*
X148370000Y-121720000D03*
G04 #@! TD*
D33*
G04 #@! TO.P,J9,3*
G04 #@! TO.N,+3V3*
X128590000Y-126240000D03*
G04 #@! TO.P,J9,2*
G04 #@! TO.N,GND*
X126050000Y-126240000D03*
G04 #@! TO.P,J9,1*
G04 #@! TO.N,POWER_IN*
X123510000Y-126240000D03*
G04 #@! TD*
D34*
G04 #@! TO.P,J14,1*
G04 #@! TO.N,GND*
X132910000Y-86870000D03*
G04 #@! TO.P,J14,2*
G04 #@! TO.N,Net-(J14-Pad2)*
X132910000Y-84330000D03*
G04 #@! TO.P,J14,3*
G04 #@! TO.N,Net-(J14-Pad3)*
X132910000Y-81790000D03*
G04 #@! TD*
D35*
G04 #@! TO.P,H1,1*
G04 #@! TO.N,GND*
X118840000Y-77270000D03*
G04 #@! TD*
G04 #@! TO.P,H2,1*
G04 #@! TO.N,GND*
X118840000Y-126270000D03*
G04 #@! TD*
G04 #@! TO.P,H3,1*
G04 #@! TO.N,GND*
X176840000Y-126260000D03*
G04 #@! TD*
G04 #@! TO.P,H4,1*
G04 #@! TO.N,GND*
X176840000Y-77270000D03*
G04 #@! TD*
D36*
G04 #@! TO.N,GND*
X126500000Y-102390000D03*
X141550000Y-97440000D03*
X142023400Y-98370120D03*
X136070000Y-97810000D03*
X138000000Y-97090000D03*
X138970000Y-97700000D03*
X154390000Y-115160000D03*
X158210000Y-115260000D03*
X156940000Y-112560000D03*
X167970000Y-89900000D03*
X167700000Y-88710000D03*
X168740000Y-89450000D03*
X156376943Y-87473057D03*
X158230000Y-88360000D03*
X155950000Y-96990000D03*
X156780000Y-97520000D03*
X157900000Y-93750000D03*
X148150000Y-86790000D03*
X149735000Y-88750000D03*
X150180000Y-91370000D03*
X150570000Y-86300000D03*
X147310000Y-101490000D03*
X148850000Y-106930000D03*
X143140000Y-107010000D03*
X144490000Y-107010000D03*
X138980000Y-107080000D03*
X137790000Y-107130000D03*
X133650000Y-107010000D03*
X138776942Y-87993058D03*
X127610000Y-102400000D03*
X125410000Y-102400000D03*
X127610000Y-101400000D03*
X126500000Y-101390000D03*
X125410000Y-101400000D03*
X126500000Y-103390000D03*
X127610000Y-103400000D03*
X125410000Y-103400000D03*
X124410000Y-97500000D03*
X124410000Y-98300000D03*
X124410000Y-99200000D03*
X124410000Y-100100000D03*
X127240000Y-89380000D03*
X128870000Y-89290000D03*
X128130000Y-81290000D03*
X131180000Y-104010000D03*
X131230000Y-99770000D03*
D37*
X159470000Y-97440000D03*
X156390000Y-122240000D03*
D36*
G04 #@! TO.N,+3V3*
X140791942Y-97961942D03*
X135090000Y-97810000D03*
X138940000Y-94970000D03*
X140030000Y-94450000D03*
X137410000Y-126130000D03*
X146060000Y-101510000D03*
X155670000Y-112490000D03*
X166200000Y-87690000D03*
X169400000Y-84500000D03*
X157360000Y-87740000D03*
X155342263Y-94757737D03*
X157100000Y-94850000D03*
X153110000Y-86550000D03*
X150400000Y-87550000D03*
X149770000Y-89670000D03*
X148260000Y-87720000D03*
X135630000Y-89640000D03*
X131890000Y-89630000D03*
X139670000Y-87660000D03*
D37*
X164115000Y-90880000D03*
X164129679Y-90062887D03*
D36*
G04 #@! TO.N,NRST*
X143270000Y-94470000D03*
G04 #@! TO.N,NRST_2*
X161390000Y-94300000D03*
G04 #@! TO.N,+5V*
X163820000Y-123320000D03*
X164666764Y-122333236D03*
X151540000Y-123460000D03*
X152230000Y-122250000D03*
X156040000Y-126480000D03*
X132160000Y-102310000D03*
X168620000Y-126460000D03*
X128740000Y-85050000D03*
G04 #@! TO.N,SPI1_SCK*
X164010000Y-94330000D03*
G04 #@! TO.N,SPI1_MOSI*
X164170000Y-93010000D03*
G04 #@! TO.N,SPI1_MISO*
X163430000Y-93660000D03*
G04 #@! TO.N,SPI0_SCK*
X145860000Y-94490000D03*
G04 #@! TO.N,SPI0_MISO*
X145425827Y-93818065D03*
G04 #@! TO.N,SPI0_MOSI*
X145750000Y-93070000D03*
D37*
G04 #@! TO.N,I2C2_SCL*
X141530000Y-124690000D03*
X147650000Y-124810000D03*
D36*
X143060000Y-85480000D03*
G04 #@! TO.N,I2C2_SDA*
X143742375Y-85897573D03*
X144271477Y-81121477D03*
G04 #@! TO.N,USB_D+*
X150720000Y-121805000D03*
X142735000Y-88870000D03*
G04 #@! TO.N,USB_D-*
X150720000Y-122655000D03*
X141885000Y-88870000D03*
G04 #@! TO.N,CAN2_RX*
X139360000Y-98510000D03*
X143893333Y-89028006D03*
G04 #@! TO.N,CAN2_TX*
X142990000Y-98650000D03*
X144585000Y-89430000D03*
G04 #@! TO.N,CAN3_TX*
X148660000Y-98670000D03*
X154940000Y-93550000D03*
G04 #@! TO.N,CAN3_RX*
X144780000Y-98660000D03*
X155025638Y-92656658D03*
G04 #@! TO.N,CAN4_TX*
X158210000Y-109400000D03*
X162805000Y-88920000D03*
G04 #@! TO.N,CAN4_RX*
X154450000Y-109380000D03*
X162040991Y-88682738D03*
G04 #@! TO.N,USB2_D-*
X157629479Y-105700521D03*
X159379479Y-89569479D03*
G04 #@! TO.N,USB2_D+*
X158230521Y-105099479D03*
X159980521Y-90170521D03*
G04 #@! TD*
D38*
G04 #@! TO.N,GND*
X156060000Y-122230000D02*
X155230000Y-122230000D01*
X156110001Y-120674999D02*
X156110001Y-122179999D01*
X156040001Y-120604999D02*
X156110001Y-120674999D01*
X154419999Y-120604999D02*
X156040001Y-120604999D01*
X153949990Y-121075008D02*
X154419999Y-120604999D01*
X153949990Y-123745012D02*
X153949990Y-121075008D01*
X156110001Y-122179999D02*
X156060000Y-122230000D01*
X152820000Y-124875002D02*
X153949990Y-123745012D01*
X152820000Y-125655000D02*
X152820000Y-124875002D01*
X168610001Y-121955001D02*
X168265002Y-122300000D01*
X166919999Y-120674999D02*
X168540001Y-120674999D01*
X166449989Y-121145009D02*
X166919999Y-120674999D01*
X168610001Y-120744999D02*
X168610001Y-121955001D01*
X168540001Y-120674999D02*
X168610001Y-120744999D01*
X166449989Y-123815013D02*
X166449989Y-121145009D01*
X166340001Y-123925001D02*
X166449989Y-123815013D01*
X165894999Y-123925001D02*
X166340001Y-123925001D01*
X165320000Y-124500000D02*
X165894999Y-123925001D01*
X168265002Y-122300000D02*
X167730000Y-122300000D01*
X165320000Y-125635000D02*
X165320000Y-124500000D01*
D39*
X140750000Y-121806000D02*
X143660000Y-124716000D01*
X140750000Y-121720000D02*
X140750000Y-121806000D01*
X138500998Y-121720000D02*
X136400000Y-123820998D01*
X140750000Y-121720000D02*
X138500998Y-121720000D01*
D40*
X141760000Y-96920000D02*
X141760000Y-95749999D01*
X142290000Y-97450000D02*
X141760000Y-96920000D01*
X159760000Y-96920000D02*
X159760000Y-95739999D01*
X160290000Y-97450000D02*
X159760000Y-96920000D01*
X164425696Y-89239999D02*
X165259999Y-89239999D01*
X164338098Y-89152401D02*
X164425696Y-89239999D01*
X164338098Y-87473902D02*
X164338098Y-89152401D01*
X165120000Y-86692000D02*
X164338098Y-87473902D01*
X165440000Y-86692000D02*
X165120000Y-86692000D01*
D39*
X141751000Y-98784000D02*
X141601000Y-98634000D01*
X141751000Y-100264000D02*
X141751000Y-98784000D01*
X147331000Y-98789000D02*
X147176000Y-98634000D01*
X147331000Y-100274000D02*
X147331000Y-98789000D01*
X136191000Y-98774000D02*
X136051000Y-98634000D01*
X136191000Y-100264000D02*
X136191000Y-98774000D01*
D40*
X137780000Y-96290000D02*
X138100000Y-96290000D01*
X137454990Y-95964990D02*
X137780000Y-96290000D01*
X137454990Y-94208112D02*
X137454990Y-95964990D01*
X137913101Y-93750001D02*
X137454990Y-94208112D01*
X138760001Y-93750001D02*
X137913101Y-93750001D01*
X138700000Y-96890000D02*
X138100000Y-96290000D01*
X139150000Y-96890000D02*
X138700000Y-96890000D01*
X156704000Y-96880000D02*
X157160000Y-96880000D01*
X156114000Y-96290000D02*
X156704000Y-96880000D01*
D38*
X137410999Y-104539299D02*
X137461000Y-104589300D01*
X133701001Y-104539299D02*
X137410999Y-104539299D01*
X133651000Y-104589300D02*
X133701001Y-104539299D01*
X137461000Y-104589300D02*
X137461000Y-105664000D01*
X133651000Y-105664000D02*
X133651000Y-104589300D01*
X143021000Y-104589300D02*
X143021000Y-105664000D01*
X142970999Y-104539299D02*
X143021000Y-104589300D01*
X139261001Y-104539299D02*
X142970999Y-104539299D01*
X139211000Y-104589300D02*
X139261001Y-104539299D01*
X139211000Y-105664000D02*
X139211000Y-104589300D01*
X148601000Y-104599300D02*
X148601000Y-105674000D01*
X148550999Y-104549299D02*
X148601000Y-104599300D01*
X144841001Y-104549299D02*
X148550999Y-104549299D01*
X144791000Y-104599300D02*
X144841001Y-104549299D01*
X144791000Y-105674000D02*
X144791000Y-104599300D01*
X137461000Y-105664000D02*
X139211000Y-105664000D01*
X144781000Y-105664000D02*
X144791000Y-105674000D01*
X143021000Y-105664000D02*
X144781000Y-105664000D01*
D40*
X138210000Y-86740000D02*
X138210000Y-87060000D01*
X138621900Y-86328100D02*
X138210000Y-86740000D01*
X140672401Y-86328100D02*
X138621900Y-86328100D01*
X140759999Y-86415698D02*
X140672401Y-86328100D01*
X140759999Y-87250001D02*
X140759999Y-86415698D01*
X156220000Y-87041768D02*
X156220000Y-87060000D01*
X156943668Y-86318100D02*
X156220000Y-87041768D01*
X158672401Y-86318100D02*
X156943668Y-86318100D01*
X158759999Y-86405698D02*
X158672401Y-86318100D01*
X158759999Y-87240001D02*
X158759999Y-86405698D01*
X167895000Y-90900000D02*
X167895000Y-90580000D01*
X167555000Y-91240000D02*
X167895000Y-90900000D01*
X165259999Y-91240000D02*
X167555000Y-91240000D01*
X146338098Y-87486902D02*
X146338098Y-89162401D01*
X146425696Y-89249999D02*
X147259999Y-89249999D01*
X147120000Y-86705000D02*
X146338098Y-87486902D01*
X147440000Y-86705000D02*
X147120000Y-86705000D01*
X146338098Y-89162401D02*
X146425696Y-89249999D01*
X141560000Y-97450000D02*
X141550000Y-97440000D01*
X142290000Y-97450000D02*
X141560000Y-97450000D01*
X141759520Y-98634000D02*
X142023400Y-98370120D01*
X141601000Y-98634000D02*
X141759520Y-98634000D01*
X136051000Y-97829000D02*
X136070000Y-97810000D01*
X136051000Y-98634000D02*
X136051000Y-97829000D01*
X138100000Y-96990000D02*
X138000000Y-97090000D01*
X138100000Y-96290000D02*
X138100000Y-96990000D01*
X139150000Y-97520000D02*
X138970000Y-97700000D01*
X139150000Y-96890000D02*
X139150000Y-97520000D01*
X149895000Y-91010000D02*
X149895000Y-90690000D01*
X149569990Y-91335010D02*
X149895000Y-91010000D01*
X148560442Y-91335010D02*
X149569990Y-91335010D01*
X148475432Y-91250000D02*
X148560442Y-91335010D01*
X147259999Y-91250000D02*
X148475432Y-91250000D01*
D39*
X136400000Y-123820998D02*
X136400000Y-124706000D01*
X169580000Y-122300000D02*
X171580000Y-120300000D01*
X167730000Y-122300000D02*
X169580000Y-122300000D01*
X154395000Y-115165000D02*
X154390000Y-115160000D01*
X154395000Y-116590000D02*
X154395000Y-115165000D01*
X158205000Y-115265000D02*
X158210000Y-115260000D01*
X158205000Y-116590000D02*
X158205000Y-115265000D01*
X156935000Y-112555000D02*
X156940000Y-112560000D01*
X156935000Y-111190000D02*
X156935000Y-112555000D01*
X156935000Y-109685000D02*
X156790000Y-109540000D01*
X156935000Y-111190000D02*
X156935000Y-109685000D01*
D40*
X166931768Y-88630000D02*
X166950000Y-88630000D01*
X166321769Y-89239999D02*
X166931768Y-88630000D01*
X165259999Y-89239999D02*
X166321769Y-89239999D01*
D39*
X167895000Y-89975000D02*
X167970000Y-89900000D01*
X167895000Y-90580000D02*
X167895000Y-89975000D01*
X167620000Y-88630000D02*
X167700000Y-88710000D01*
X166950000Y-88630000D02*
X167620000Y-88630000D01*
X168765000Y-89425000D02*
X168740000Y-89450000D01*
X169450000Y-89425000D02*
X168765000Y-89425000D01*
X156220000Y-87316114D02*
X156376943Y-87473057D01*
X156220000Y-87060000D02*
X156220000Y-87316114D01*
D40*
X158486900Y-88360000D02*
X158230000Y-88360000D01*
X158759999Y-88086901D02*
X158486900Y-88360000D01*
X158759999Y-87240001D02*
X158759999Y-88086901D01*
D39*
X156114000Y-96826000D02*
X155950000Y-96990000D01*
X156114000Y-96290000D02*
X156114000Y-96826000D01*
X157160000Y-97140000D02*
X156780000Y-97520000D01*
X157160000Y-96880000D02*
X157160000Y-97140000D01*
D40*
X157890001Y-93740001D02*
X157900000Y-93750000D01*
X156760001Y-93740001D02*
X157890001Y-93740001D01*
X148931768Y-88730000D02*
X148950000Y-88730000D01*
X148411769Y-89249999D02*
X148931768Y-88730000D01*
X147259999Y-89249999D02*
X148411769Y-89249999D01*
D39*
X148065000Y-86705000D02*
X148150000Y-86790000D01*
X147440000Y-86705000D02*
X148065000Y-86705000D01*
X149715000Y-88730000D02*
X149735000Y-88750000D01*
X148950000Y-88730000D02*
X149715000Y-88730000D01*
X149895000Y-91085000D02*
X150180000Y-91370000D01*
X149895000Y-90690000D02*
X149895000Y-91085000D01*
X151135000Y-85735000D02*
X150570000Y-86300000D01*
X151150000Y-85735000D02*
X151135000Y-85735000D01*
X147331000Y-101469000D02*
X147310000Y-101490000D01*
X147331000Y-100274000D02*
X147331000Y-101469000D01*
X148601000Y-106681000D02*
X148850000Y-106930000D01*
X148601000Y-105674000D02*
X148601000Y-106681000D01*
X143021000Y-106891000D02*
X143140000Y-107010000D01*
X143021000Y-105664000D02*
X143021000Y-106891000D01*
X144791000Y-106709000D02*
X144490000Y-107010000D01*
X144791000Y-105674000D02*
X144791000Y-106709000D01*
X139211000Y-106849000D02*
X138980000Y-107080000D01*
X139211000Y-105664000D02*
X139211000Y-106849000D01*
X137461000Y-106801000D02*
X137790000Y-107130000D01*
X137461000Y-105664000D02*
X137461000Y-106801000D01*
X133651000Y-107009000D02*
X133650000Y-107010000D01*
X133651000Y-105664000D02*
X133651000Y-107009000D01*
X138210000Y-87426116D02*
X138776942Y-87993058D01*
X138210000Y-87060000D02*
X138210000Y-87426116D01*
X127240000Y-88120000D02*
X127240000Y-89380000D01*
X128850000Y-89270000D02*
X128870000Y-89290000D01*
X128850000Y-88117500D02*
X128850000Y-89270000D01*
X128055000Y-81215000D02*
X128130000Y-81290000D01*
X127250000Y-81215000D02*
X128055000Y-81215000D01*
X131200000Y-103990000D02*
X131180000Y-104010000D01*
X131200000Y-103100000D02*
X131200000Y-103990000D01*
X131230000Y-100690000D02*
X131230000Y-99770000D01*
X125850001Y-100075100D02*
X126489989Y-100075100D01*
X125200000Y-100075100D02*
X125850001Y-100075100D01*
X124410000Y-100855091D02*
X124125100Y-101139991D01*
X124410000Y-100100000D02*
X124410000Y-100855091D01*
X125189991Y-101139991D02*
X124125100Y-101139991D01*
X126500000Y-102450000D02*
X125189991Y-101139991D01*
X159480000Y-97450000D02*
X159470000Y-97440000D01*
X160290000Y-97450000D02*
X159480000Y-97450000D01*
X156380000Y-122230000D02*
X156390000Y-122240000D01*
X155230000Y-122230000D02*
X156380000Y-122230000D01*
G04 #@! TO.N,+3V3*
X144660000Y-123090000D02*
X144660000Y-124716000D01*
X143290000Y-121720000D02*
X144660000Y-123090000D01*
D40*
X138760001Y-94659999D02*
X138100000Y-95320000D01*
X138760001Y-94250000D02*
X138760001Y-94659999D01*
X140089999Y-95920000D02*
X140260000Y-95749999D01*
X139150000Y-95920000D02*
X140089999Y-95920000D01*
X147440000Y-88569999D02*
X147259999Y-88750000D01*
X147440000Y-87675000D02*
X147440000Y-88569999D01*
X165440000Y-88559999D02*
X165259999Y-88740000D01*
X165440000Y-87662000D02*
X165440000Y-88559999D01*
D39*
X140481000Y-98784000D02*
X140631000Y-98634000D01*
X140481000Y-100264000D02*
X140481000Y-98784000D01*
X146061000Y-98779000D02*
X146206000Y-98634000D01*
X146061000Y-100274000D02*
X146061000Y-98779000D01*
X134921000Y-98794000D02*
X135081000Y-98634000D01*
X134921000Y-100264000D02*
X134921000Y-98794000D01*
D40*
X156114000Y-94886001D02*
X156760001Y-94240000D01*
X156114000Y-95320000D02*
X156114000Y-94886001D01*
X158089999Y-95910000D02*
X158260000Y-95739999D01*
X157160000Y-95910000D02*
X158089999Y-95910000D01*
X158251902Y-94818098D02*
X157160000Y-95910000D01*
X159185000Y-94818098D02*
X158251902Y-94818098D01*
X159260001Y-94893099D02*
X159185000Y-94818098D01*
X159260001Y-95739999D02*
X159260001Y-94893099D01*
X140241902Y-94828098D02*
X139150000Y-95920000D01*
X141172400Y-94828098D02*
X140241902Y-94828098D01*
X141260001Y-94915699D02*
X141172400Y-94828098D01*
X141260001Y-95749999D02*
X141260001Y-94915699D01*
X140069999Y-87060000D02*
X140260000Y-87250001D01*
X139180000Y-87060000D02*
X140069999Y-87060000D01*
X158079999Y-87060000D02*
X158260000Y-87240001D01*
X157190000Y-87060000D02*
X158079999Y-87060000D01*
X140631000Y-98122884D02*
X140791942Y-97961942D01*
X140631000Y-98634000D02*
X140631000Y-98122884D01*
X135081000Y-97819000D02*
X135090000Y-97810000D01*
X135081000Y-98634000D02*
X135081000Y-97819000D01*
X138760001Y-94790001D02*
X138940000Y-94970000D01*
X138760001Y-94250000D02*
X138760001Y-94790001D01*
X140260000Y-94680000D02*
X140030000Y-94450000D01*
X140260000Y-95749999D02*
X140260000Y-94680000D01*
X148865001Y-90749999D02*
X148925000Y-90690000D01*
X147259999Y-90749999D02*
X148865001Y-90749999D01*
X148400000Y-90250000D02*
X148950000Y-89700000D01*
X147259999Y-90250000D02*
X148400000Y-90250000D01*
X137400000Y-126120000D02*
X137410000Y-126130000D01*
X137400000Y-124706000D02*
X137400000Y-126120000D01*
D39*
X146061000Y-101509000D02*
X146060000Y-101510000D01*
X146061000Y-100274000D02*
X146061000Y-101509000D01*
X155665000Y-109695000D02*
X155820000Y-109540000D01*
X155665000Y-111190000D02*
X155665000Y-109695000D01*
X155665000Y-112485000D02*
X155670000Y-112490000D01*
X155665000Y-111190000D02*
X155665000Y-112485000D01*
D40*
X166765001Y-90739999D02*
X166925000Y-90580000D01*
X165259999Y-90739999D02*
X166765001Y-90739999D01*
X166310000Y-90240000D02*
X166950000Y-89600000D01*
X165259999Y-90240000D02*
X166310000Y-90240000D01*
D39*
X166172000Y-87662000D02*
X166200000Y-87690000D01*
X165440000Y-87662000D02*
X166172000Y-87662000D01*
X169435001Y-84535001D02*
X169400000Y-84500000D01*
X169435001Y-85527499D02*
X169435001Y-84535001D01*
X154487499Y-81807499D02*
X155330000Y-82650000D01*
X151155001Y-81807499D02*
X154487499Y-81807499D01*
X157190000Y-87570000D02*
X157360000Y-87740000D01*
X157190000Y-87060000D02*
X157190000Y-87570000D01*
X155904526Y-95320000D02*
X155342263Y-94757737D01*
X156114000Y-95320000D02*
X155904526Y-95320000D01*
X156570000Y-95320000D02*
X157160000Y-95910000D01*
X156114000Y-95320000D02*
X156570000Y-95320000D01*
D40*
X156760001Y-94510001D02*
X157100000Y-94850000D01*
X156760001Y-94240000D02*
X156760001Y-94510001D01*
D39*
X153130000Y-86570000D02*
X153110000Y-86550000D01*
X153130000Y-87562500D02*
X153130000Y-86570000D01*
X151490000Y-87550000D02*
X150400000Y-87550000D01*
X149740000Y-89700000D02*
X149770000Y-89670000D01*
X148950000Y-89700000D02*
X149740000Y-89700000D01*
X148925000Y-89725000D02*
X148950000Y-89700000D01*
X148925000Y-90690000D02*
X148925000Y-89725000D01*
X148215000Y-87675000D02*
X148260000Y-87720000D01*
X147440000Y-87675000D02*
X148215000Y-87675000D01*
X135627500Y-89642500D02*
X135630000Y-89640000D01*
X134680000Y-89642500D02*
X135627500Y-89642500D01*
X131900000Y-89640000D02*
X131890000Y-89630000D01*
X133030000Y-89640000D02*
X131900000Y-89640000D01*
X139180000Y-87170000D02*
X139670000Y-87660000D01*
X139180000Y-87060000D02*
X139180000Y-87170000D01*
D40*
X164255001Y-90739999D02*
X164115000Y-90880000D01*
X165259999Y-90739999D02*
X164255001Y-90739999D01*
X164306792Y-90240000D02*
X164129679Y-90062887D01*
X165259999Y-90240000D02*
X164306792Y-90240000D01*
G04 #@! TO.N,NRST*
X143260000Y-97450000D02*
X143260000Y-95749999D01*
X143260000Y-94480000D02*
X143270000Y-94470000D01*
X143260000Y-95749999D02*
X143260000Y-94480000D01*
G04 #@! TO.N,NRST_2*
X161260000Y-97450000D02*
X161260000Y-95739999D01*
X161260000Y-94430000D02*
X161390000Y-94300000D01*
X161260000Y-95739999D02*
X161260000Y-94430000D01*
D39*
G04 #@! TO.N,VIN*
X127149999Y-104824900D02*
X126500000Y-104824900D01*
X126500000Y-104824900D02*
X125850001Y-104824900D01*
X125200000Y-104824900D02*
X125850001Y-104824900D01*
G04 #@! TO.N,LX*
X124125100Y-101800001D02*
X124125100Y-102450000D01*
X124125100Y-102450000D02*
X124125100Y-103099999D01*
D41*
G04 #@! TO.N,Net-(C22-Pad2)*
X123080109Y-104930000D02*
X124125100Y-103885009D01*
X122000000Y-104930000D02*
X123080109Y-104930000D01*
D39*
G04 #@! TO.N,Net-(C23-Pad1)*
X130229999Y-103099999D02*
X130230000Y-103100000D01*
X128874900Y-103099999D02*
X130229999Y-103099999D01*
G04 #@! TO.N,Net-(C24-Pad1)*
X127149999Y-99350001D02*
X128450000Y-98050000D01*
X127149999Y-100075100D02*
X127149999Y-99350001D01*
D38*
G04 #@! TO.N,+5V*
X163519990Y-123620010D02*
X163820000Y-123320000D01*
X163519990Y-125772441D02*
X163519990Y-123620010D01*
X164407550Y-126660001D02*
X163519990Y-125772441D01*
X167869999Y-126660001D02*
X164407550Y-126660001D01*
X167920000Y-126610000D02*
X167869999Y-126660001D01*
X167920000Y-125635000D02*
X167920000Y-126610000D01*
X165496764Y-122333236D02*
X165530000Y-122300000D01*
X164666764Y-122333236D02*
X165496764Y-122333236D01*
X151019990Y-123980010D02*
X151540000Y-123460000D01*
X151019990Y-125792441D02*
X151019990Y-123980010D01*
X151907550Y-126680001D02*
X151019990Y-125792441D01*
X155369999Y-126680001D02*
X151907550Y-126680001D01*
X155420000Y-126630000D02*
X155369999Y-126680001D01*
X155420000Y-125655000D02*
X155420000Y-126630000D01*
X153010000Y-122250000D02*
X153030000Y-122230000D01*
X152230000Y-122250000D02*
X153010000Y-122250000D01*
D41*
X124262450Y-85047500D02*
X127250000Y-85047500D01*
X121030000Y-81815050D02*
X124262450Y-85047500D01*
X125759950Y-86545000D02*
X121030000Y-81815050D01*
X127240000Y-86545000D02*
X125759950Y-86545000D01*
X125757450Y-86542500D02*
X121030000Y-81815050D01*
X128850000Y-86542500D02*
X125757450Y-86542500D01*
D38*
X155420000Y-125860000D02*
X156040000Y-126480000D01*
X155420000Y-125655000D02*
X155420000Y-125860000D01*
X167920000Y-125760000D02*
X168620000Y-126460000D01*
X167920000Y-125635000D02*
X167920000Y-125760000D01*
D39*
X128740000Y-86432500D02*
X128850000Y-86542500D01*
X128740000Y-85050000D02*
X128740000Y-86432500D01*
D41*
X131600000Y-101750000D02*
X132160000Y-102310000D01*
X131230000Y-101750000D02*
X131600000Y-101750000D01*
D39*
G04 #@! TO.N,Net-(D1-Pad1)*
X134680000Y-91217500D02*
X134680000Y-92495000D01*
G04 #@! TO.N,Net-(D2-Pad1)*
X133030000Y-91215000D02*
X133030000Y-92480000D01*
G04 #@! TO.N,Net-(D3-Pad1)*
X151150000Y-83387500D02*
X151155001Y-83382499D01*
X151150000Y-84765000D02*
X151150000Y-83387500D01*
G04 #@! TO.N,Net-(D4-Pad1)*
X153130000Y-89137500D02*
X153130000Y-90440000D01*
G04 #@! TO.N,Net-(D5-Pad1)*
X151490000Y-89125000D02*
X151490000Y-90410000D01*
G04 #@! TO.N,Net-(D6-Pad1)*
X169450000Y-87117498D02*
X169435001Y-87102499D01*
X169450000Y-88455000D02*
X169450000Y-87117498D01*
G04 #@! TO.N,Net-(D8-Pad1)*
X127250000Y-83472500D02*
X127250000Y-82185000D01*
G04 #@! TO.N,Net-(J1-Pad1)*
X136191000Y-107184000D02*
X136061000Y-107314000D01*
X136191000Y-105664000D02*
X136191000Y-107184000D01*
X138266000Y-109519000D02*
X136061000Y-107314000D01*
X138266000Y-111558000D02*
X138266000Y-109519000D01*
G04 #@! TO.N,Net-(J1-Pad2)*
X134921000Y-107144000D02*
X135091000Y-107314000D01*
X134921000Y-105664000D02*
X134921000Y-107144000D01*
X135091000Y-110383000D02*
X136266000Y-111558000D01*
X135091000Y-107314000D02*
X135091000Y-110383000D01*
G04 #@! TO.N,Net-(J2-Pad2)*
X146061000Y-107139000D02*
X146206000Y-107284000D01*
X146061000Y-105674000D02*
X146061000Y-107139000D01*
X146206000Y-110618000D02*
X145256000Y-111568000D01*
X146206000Y-107284000D02*
X146206000Y-110618000D01*
G04 #@! TO.N,Net-(J2-Pad1)*
X147331000Y-107129000D02*
X147176000Y-107284000D01*
X147331000Y-105674000D02*
X147331000Y-107129000D01*
X147176000Y-111488000D02*
X147256000Y-111568000D01*
X147176000Y-107284000D02*
X147176000Y-111488000D01*
G04 #@! TO.N,Net-(J3-Pad1)*
X141751000Y-107144000D02*
X141611000Y-107284000D01*
X141751000Y-105664000D02*
X141751000Y-107144000D01*
X141611000Y-113793000D02*
X141611000Y-107284000D01*
X138266000Y-117138000D02*
X141611000Y-113793000D01*
G04 #@! TO.N,Net-(J3-Pad2)*
X140481000Y-107124000D02*
X140641000Y-107284000D01*
X140481000Y-105664000D02*
X140481000Y-107124000D01*
X140641000Y-112798034D02*
X136301034Y-117138000D01*
X136301034Y-117138000D02*
X136266000Y-117138000D01*
X140641000Y-107284000D02*
X140641000Y-112798034D01*
G04 #@! TO.N,Net-(J4-Pad2)*
X147895956Y-115822990D02*
X146581010Y-115822990D01*
X150282966Y-118210000D02*
X147895956Y-115822990D01*
X146581010Y-115822990D02*
X145256000Y-117148000D01*
X155820000Y-118210000D02*
X150282966Y-118210000D01*
X155665000Y-118055000D02*
X155820000Y-118210000D01*
X155665000Y-116590000D02*
X155665000Y-118055000D01*
G04 #@! TO.N,Net-(J4-Pad1)*
X156790000Y-118530000D02*
X156790000Y-118210000D01*
X156339990Y-118980010D02*
X156790000Y-118530000D01*
X149088010Y-118980010D02*
X156339990Y-118980010D01*
X147256000Y-117148000D02*
X149088010Y-118980010D01*
X156935000Y-118065000D02*
X156790000Y-118210000D01*
X156935000Y-116590000D02*
X156935000Y-118065000D01*
D40*
G04 #@! TO.N,SWO*
X136689972Y-89026871D02*
X136689972Y-86318976D01*
X137913101Y-90250000D02*
X136689972Y-89026871D01*
X138760001Y-90250000D02*
X137913101Y-90250000D01*
X139210000Y-83798948D02*
X139210000Y-82650000D01*
X136689972Y-86318976D02*
X139210000Y-83798948D01*
G04 #@! TO.N,SWDIO*
X137589990Y-86691778D02*
X139501768Y-84780000D01*
X137589990Y-87689990D02*
X137589990Y-86691778D01*
X138650000Y-88750000D02*
X137589990Y-87689990D01*
X138760001Y-88750000D02*
X138650000Y-88750000D01*
X139501768Y-84780000D02*
X140490000Y-84780000D01*
X141210000Y-84060000D02*
X141210000Y-82650000D01*
X140490000Y-84780000D02*
X141210000Y-84060000D01*
G04 #@! TO.N,SWCLK*
X142009990Y-81449990D02*
X143210000Y-82650000D01*
X140826849Y-81449990D02*
X142009990Y-81449990D01*
X140284990Y-81991849D02*
X140826849Y-81449990D01*
X140284990Y-83360368D02*
X140284990Y-81991849D01*
X137139981Y-86505377D02*
X140284990Y-83360368D01*
X137139980Y-88464281D02*
X137139981Y-86505377D01*
X137925698Y-89249999D02*
X137139980Y-88464281D01*
X138760001Y-89249999D02*
X137925698Y-89249999D01*
G04 #@! TO.N,SWCLK_2*
X160129990Y-81449990D02*
X161330000Y-82650000D01*
X158946849Y-81449990D02*
X160129990Y-81449990D01*
X158404990Y-81991849D02*
X158946849Y-81449990D01*
X158404990Y-83250368D02*
X158404990Y-81991849D01*
X155149981Y-86505377D02*
X158404990Y-83250368D01*
X155149981Y-88464282D02*
X155149981Y-86505377D01*
X155925698Y-89239999D02*
X155149981Y-88464282D01*
X156760001Y-89239999D02*
X155925698Y-89239999D01*
G04 #@! TO.N,SWO_2*
X154699972Y-89026871D02*
X154699972Y-86318976D01*
X155913101Y-90240000D02*
X154699972Y-89026871D01*
X156760001Y-90240000D02*
X155913101Y-90240000D01*
X157330000Y-83688948D02*
X157330000Y-82650000D01*
X154699972Y-86318976D02*
X157330000Y-83688948D01*
D38*
G04 #@! TO.N,Net-(J7-Pad6)*
X153169906Y-127379906D02*
X154120000Y-128330000D01*
X151332594Y-127379906D02*
X153169906Y-127379906D01*
X150382500Y-128330000D02*
X151332594Y-127379906D01*
D39*
X156305805Y-127271797D02*
X156242604Y-127301688D01*
X156242604Y-127301688D02*
X155148312Y-127301688D01*
X156881544Y-127271797D02*
X156305805Y-127271797D01*
X157857500Y-128247753D02*
X156881544Y-127271797D01*
X155148312Y-127301688D02*
X154120000Y-128330000D01*
X157857500Y-128330000D02*
X157857500Y-128247753D01*
D42*
G04 #@! TO.N,USB_CONN_D-*
X154919999Y-124739999D02*
X155230000Y-124429998D01*
X155230000Y-123630000D02*
X155230000Y-123180000D01*
X154770000Y-125655000D02*
X154770000Y-125641397D01*
X155230000Y-124429998D02*
X155230000Y-123630000D01*
X154770000Y-125641397D02*
X154919999Y-125491398D01*
X154919999Y-125491398D02*
X154919999Y-124739999D01*
G04 #@! TO.N,USB_CONN_D+*
X154120000Y-125655000D02*
X154269999Y-125505001D01*
X154269999Y-125505001D02*
X154269999Y-124753616D01*
X154780000Y-124243615D02*
X154780000Y-123805001D01*
X154399999Y-123745001D02*
X154399999Y-121664999D01*
X154269999Y-124753616D02*
X154780000Y-124243615D01*
X154780000Y-123805001D02*
X154459999Y-123805001D01*
X154459999Y-123805001D02*
X154399999Y-123745001D01*
X154399999Y-121664999D02*
X154459999Y-121604999D01*
X154459999Y-121604999D02*
X154905001Y-121604999D01*
X154905001Y-121604999D02*
X155230000Y-121280000D01*
D39*
G04 #@! TO.N,Net-(J8-Pad6)*
X166948544Y-128310000D02*
X166620000Y-128310000D01*
X168006747Y-127251797D02*
X166948544Y-128310000D01*
X169736797Y-127251797D02*
X168006747Y-127251797D01*
X170795000Y-128310000D02*
X169736797Y-127251797D01*
D38*
X165669906Y-127359906D02*
X166620000Y-128310000D01*
X163395094Y-127359906D02*
X165669906Y-127359906D01*
X162445000Y-128310000D02*
X163395094Y-127359906D01*
D42*
G04 #@! TO.N,USB2_CONN_D+*
X166959999Y-121674999D02*
X167405001Y-121674999D01*
X166769999Y-125485001D02*
X166769999Y-124733616D01*
X166769999Y-124733616D02*
X167280000Y-124223615D01*
X167280000Y-123875001D02*
X166959999Y-123875001D01*
X167280000Y-124223615D02*
X167280000Y-123875001D01*
X166959999Y-123875001D02*
X166899999Y-123815001D01*
X166620000Y-125635000D02*
X166769999Y-125485001D01*
X166899999Y-121734999D02*
X166959999Y-121674999D01*
X166899999Y-123815001D02*
X166899999Y-121734999D01*
X167405001Y-121674999D02*
X167730000Y-121350000D01*
G04 #@! TO.N,USB2_CONN_D-*
X167730000Y-123700000D02*
X167730000Y-123250000D01*
X167730000Y-124409998D02*
X167730000Y-123700000D01*
X167270000Y-125635000D02*
X167270000Y-125621397D01*
X167419999Y-124719999D02*
X167730000Y-124409998D01*
X167419999Y-125471398D02*
X167419999Y-124719999D01*
X167270000Y-125621397D02*
X167419999Y-125471398D01*
D38*
G04 #@! TO.N,Net-(J14-Pad2)*
X135083601Y-82156399D02*
X135083601Y-77213601D01*
X135083601Y-77213601D02*
X133870000Y-76000000D01*
X132910000Y-84330000D02*
X135083601Y-82156399D01*
G04 #@! TO.N,Net-(J14-Pad3)*
X132543601Y-77213601D02*
X131330000Y-76000000D01*
X132543601Y-81423601D02*
X132543601Y-77213601D01*
X132910000Y-81790000D02*
X132543601Y-81423601D01*
D40*
G04 #@! TO.N,SPI1_SCK*
X164100000Y-94240000D02*
X164010000Y-94330000D01*
X165259999Y-94240000D02*
X164100000Y-94240000D01*
G04 #@! TO.N,SPI1_MOSI*
X164399999Y-93239999D02*
X164170000Y-93010000D01*
X165259999Y-93239999D02*
X164399999Y-93239999D01*
G04 #@! TO.N,SPI1_MISO*
X163474999Y-93704999D02*
X163430000Y-93660000D01*
X164310001Y-93704999D02*
X163474999Y-93704999D01*
X164345003Y-93740001D02*
X164310001Y-93704999D01*
X165259999Y-93740001D02*
X164345003Y-93740001D01*
G04 #@! TO.N,SPI0_SCK*
X146100000Y-94250000D02*
X145860000Y-94490000D01*
X147259999Y-94250000D02*
X146100000Y-94250000D01*
G04 #@! TO.N,SPI0_MISO*
X145493891Y-93750001D02*
X145425827Y-93818065D01*
X147259999Y-93750001D02*
X145493891Y-93750001D01*
G04 #@! TO.N,SPI0_MOSI*
X145929999Y-93249999D02*
X145750000Y-93070000D01*
X147259999Y-93249999D02*
X145929999Y-93249999D01*
D39*
G04 #@! TO.N,I2C2_SCL*
X148370000Y-123006000D02*
X146660000Y-124716000D01*
X148370000Y-121720000D02*
X148370000Y-123006000D01*
X141514000Y-124706000D02*
X141530000Y-124690000D01*
X139400000Y-124706000D02*
X141514000Y-124706000D01*
X146754000Y-124810000D02*
X146660000Y-124716000D01*
X147650000Y-124810000D02*
X146754000Y-124810000D01*
D40*
X142760000Y-85780000D02*
X142760000Y-87250001D01*
X143060000Y-85480000D02*
X142760000Y-85780000D01*
X144135010Y-82141829D02*
X144135010Y-84404990D01*
X144135010Y-84404990D02*
X143060000Y-85480000D01*
X145276859Y-80999980D02*
X144135010Y-82141829D01*
X161263141Y-80999980D02*
X145276859Y-80999980D01*
X162255010Y-81991849D02*
X161263141Y-80999980D01*
X162255010Y-83308151D02*
X162255010Y-81991849D01*
X160760000Y-84803161D02*
X162255010Y-83308151D01*
X160760000Y-87240001D02*
X160760000Y-84803161D01*
D38*
X130700000Y-86994619D02*
X130700000Y-80450000D01*
X131130000Y-87424619D02*
X130700000Y-86994619D01*
X130700000Y-80450000D02*
X128790000Y-78540000D01*
X131130000Y-94196454D02*
X131130000Y-87424619D01*
X132996199Y-96062653D02*
X131130000Y-94196454D01*
X132996199Y-101318701D02*
X132996199Y-96062653D01*
X134557498Y-102880000D02*
X132996199Y-101318701D01*
X150120000Y-102880000D02*
X134557498Y-102880000D01*
X150810001Y-103570001D02*
X150120000Y-102880000D01*
X150820001Y-103570001D02*
X150810001Y-103570001D01*
X151670000Y-104420000D02*
X150820001Y-103570001D01*
X144305990Y-116479493D02*
X146135483Y-114650000D01*
X144305990Y-117905990D02*
X144305990Y-116479493D01*
X148120000Y-121720000D02*
X144305990Y-117905990D01*
X148370000Y-121720000D02*
X148120000Y-121720000D01*
X152870001Y-110076001D02*
X152870001Y-105620001D01*
X148296002Y-114650000D02*
X152870001Y-110076001D01*
X152870001Y-105620001D02*
X151670000Y-104420000D01*
X146135483Y-114650000D02*
X148296002Y-114650000D01*
D39*
G04 #@! TO.N,I2C2_SDA*
X145830000Y-124546000D02*
X145660000Y-124716000D01*
X145830000Y-121720000D02*
X145830000Y-124546000D01*
X145660000Y-125601002D02*
X145660000Y-124716000D01*
X145320001Y-125941001D02*
X145660000Y-125601002D01*
X138749999Y-125941001D02*
X145320001Y-125941001D01*
X138400000Y-125591002D02*
X138749999Y-125941001D01*
X138400000Y-124706000D02*
X138400000Y-125591002D01*
D40*
X143260000Y-86379948D02*
X143260000Y-87250001D01*
X143742375Y-85897573D02*
X143260000Y-86379948D01*
X144842983Y-80549971D02*
X144271477Y-81121477D01*
X162813132Y-80549971D02*
X144842983Y-80549971D01*
X164255010Y-81991849D02*
X162813132Y-80549971D01*
X164255010Y-83308151D02*
X164255010Y-81991849D01*
X161260000Y-86303161D02*
X164255010Y-83308151D01*
X161260000Y-87240001D02*
X161260000Y-86303161D01*
D38*
X151670000Y-106960000D02*
X148090010Y-103380010D01*
X134350388Y-103380010D02*
X132496189Y-101525811D01*
X148090010Y-103380010D02*
X134350388Y-103380010D01*
X132496189Y-96269763D02*
X130629990Y-94403564D01*
X132496189Y-101525811D02*
X132496189Y-96269763D01*
X130629990Y-94403564D02*
X130629990Y-87631729D01*
X130629990Y-87631729D02*
X130199990Y-87201729D01*
X130199990Y-87201729D02*
X130199990Y-82159990D01*
X126580000Y-78540000D02*
X126250000Y-78540000D01*
X130199990Y-82159990D02*
X126580000Y-78540000D01*
X150469999Y-108160001D02*
X151670000Y-106960000D01*
X150469999Y-110330001D02*
X150469999Y-108160001D01*
X148006990Y-112793010D02*
X150469999Y-110330001D01*
X145992473Y-112793010D02*
X148006990Y-112793010D01*
X142305990Y-116479493D02*
X145992473Y-112793010D01*
X142305990Y-118195990D02*
X142305990Y-116479493D01*
X145830000Y-121720000D02*
X142305990Y-118195990D01*
D43*
G04 #@! TO.N,+BATT*
X175310000Y-119030000D02*
X175310000Y-85480000D01*
X176580000Y-120300000D02*
X175310000Y-119030000D01*
D40*
G04 #@! TO.N,TIM5_CH1_1*
X143760001Y-96596899D02*
X143760001Y-95749999D01*
X143880010Y-96716908D02*
X143760001Y-96596899D01*
X143880010Y-97818222D02*
X143880010Y-96716908D01*
X144050778Y-97988990D02*
X143880010Y-97818222D01*
X152048990Y-97988990D02*
X144050778Y-97988990D01*
X169850000Y-115790000D02*
X152048990Y-97988990D01*
X172790000Y-115790000D02*
X169850000Y-115790000D01*
G04 #@! TO.N,TIM20_CH1_1*
X147262600Y-91772600D02*
X148361622Y-91772600D01*
X147259999Y-91769999D02*
X147262600Y-91772600D01*
X147259999Y-91750000D02*
X147259999Y-91769999D01*
X148361622Y-91772600D02*
X150413984Y-93824962D01*
X150413984Y-93824962D02*
X153525605Y-93824963D01*
X153525605Y-93824963D02*
X155240040Y-95539398D01*
X155240040Y-95539398D02*
X155240040Y-97997990D01*
X171694999Y-103055001D02*
X172840000Y-101910000D01*
X160297051Y-103055001D02*
X171694999Y-103055001D01*
X155240040Y-97997990D02*
X160297051Y-103055001D01*
G04 #@! TO.N,TIM8_CH3N_1*
X171505001Y-105784999D02*
X172840000Y-104450000D01*
X162390639Y-105784999D02*
X171505001Y-105784999D01*
X154790030Y-98184390D02*
X162390639Y-105784999D01*
X153339204Y-94274972D02*
X154790030Y-95725798D01*
X154790030Y-95725798D02*
X154790030Y-98184390D01*
X150227583Y-94274971D02*
X153339204Y-94274972D01*
X148202613Y-92250001D02*
X150227583Y-94274971D01*
X147259999Y-92250001D02*
X148202613Y-92250001D01*
G04 #@! TO.N,TIM8_CH2N_1*
X164139230Y-108170000D02*
X172790000Y-108170000D01*
X154340020Y-95912198D02*
X154340020Y-98370790D01*
X154340020Y-98370790D02*
X164139230Y-108170000D01*
X153152803Y-94724981D02*
X154340020Y-95912198D01*
X148066202Y-92750000D02*
X150041182Y-94724980D01*
X150041182Y-94724980D02*
X153152803Y-94724981D01*
X147259999Y-92750000D02*
X148066202Y-92750000D01*
G04 #@! TO.N,TIM8_CH2N_2*
X165259999Y-92740000D02*
X168396052Y-92740000D01*
X170576052Y-90560000D02*
X172770000Y-90560000D01*
X168396052Y-92740000D02*
X170576052Y-90560000D01*
G04 #@! TO.N,TIM8_CH3N_2*
X165259999Y-92240001D02*
X168259641Y-92240001D01*
X172479642Y-88020000D02*
X172770000Y-88020000D01*
X168259641Y-92240001D02*
X172479642Y-88020000D01*
G04 #@! TO.N,TIM20_CH1_2*
X171555999Y-88307233D02*
X171555999Y-86694001D01*
X171555999Y-86694001D02*
X172770000Y-85480000D01*
X168123232Y-91740000D02*
X171555999Y-88307233D01*
X165259999Y-91740000D02*
X168123232Y-91740000D01*
G04 #@! TO.N,TIM5_CH1_2*
X161760001Y-96961769D02*
X162360152Y-97561920D01*
X161760001Y-95739999D02*
X161760001Y-96961769D01*
X171031920Y-97561920D02*
X172840000Y-99370000D01*
X162360152Y-97561920D02*
X171031920Y-97561920D01*
G04 #@! TO.N,TIM5_CH2_1*
X144260000Y-95749999D02*
X144260000Y-96460488D01*
X144330020Y-96530020D02*
X144260000Y-96460000D01*
X144330020Y-97060020D02*
X144330020Y-96530020D01*
X144808980Y-97538980D02*
X144330020Y-97060020D01*
X150413981Y-95624999D02*
X148500000Y-97538980D01*
X152780001Y-95624999D02*
X150413981Y-95624999D01*
X148500000Y-97538980D02*
X144808980Y-97538980D01*
X153440000Y-96284998D02*
X152780001Y-95624999D01*
X144260000Y-96460000D02*
X144260000Y-95749999D01*
X153440000Y-98743590D02*
X153440000Y-96284998D01*
X167946410Y-113250000D02*
X153440000Y-98743590D01*
X172790000Y-113250000D02*
X167946410Y-113250000D01*
G04 #@! TO.N,TIM5_CH3_1*
X153890010Y-98557190D02*
X166042820Y-110710000D01*
X152966402Y-95174990D02*
X153890010Y-96098598D01*
X150227581Y-95174989D02*
X152966402Y-95174990D01*
X153890010Y-96098598D02*
X153890010Y-98557190D01*
X148313600Y-97088970D02*
X150227581Y-95174989D01*
X166042820Y-110710000D02*
X172790000Y-110710000D01*
X145038970Y-97088970D02*
X148313600Y-97088970D01*
X144780030Y-96830030D02*
X145038970Y-97088970D01*
X144780030Y-96210032D02*
X144780030Y-96830030D01*
X144759999Y-96190001D02*
X144780030Y-96210032D01*
X144759999Y-95749999D02*
X144759999Y-96190001D01*
G04 #@! TO.N,TIM5_CH2_2*
X172558090Y-97111910D02*
X172840000Y-96830000D01*
X162661200Y-97111910D02*
X172558090Y-97111910D01*
X162260000Y-96710710D02*
X162661200Y-97111910D01*
X162260000Y-95739999D02*
X162260000Y-96710710D01*
G04 #@! TO.N,TIM5_CH3_2*
X169208100Y-96661900D02*
X172770000Y-93100000D01*
X162847600Y-96661900D02*
X169208100Y-96661900D01*
X162759999Y-96574299D02*
X162847600Y-96661900D01*
X162759999Y-95739999D02*
X162759999Y-96574299D01*
G04 #@! TO.N,LED_1*
X134698232Y-93465000D02*
X134680000Y-93465000D01*
X137413233Y-90749999D02*
X134698232Y-93465000D01*
X138760001Y-90749999D02*
X137413233Y-90749999D01*
G04 #@! TO.N,LED_2*
X133665010Y-94085010D02*
X133030000Y-93450000D01*
X137883232Y-91250000D02*
X135048222Y-94085010D01*
X135048222Y-94085010D02*
X133665010Y-94085010D01*
X138760001Y-91250000D02*
X137883232Y-91250000D01*
G04 #@! TO.N,LED_3*
X153450000Y-91410000D02*
X153130000Y-91410000D01*
X154120001Y-90739999D02*
X153450000Y-91410000D01*
X156760001Y-90739999D02*
X154120001Y-90739999D01*
G04 #@! TO.N,LED_4*
X155925699Y-91240000D02*
X156760001Y-91240000D01*
X155135689Y-92030010D02*
X155925699Y-91240000D01*
X152140010Y-92030010D02*
X155135689Y-92030010D01*
X151490000Y-91380000D02*
X152140010Y-92030010D01*
D39*
G04 #@! TO.N,FB*
X130209999Y-101800001D02*
X130260000Y-101750000D01*
X128874900Y-101800001D02*
X130209999Y-101800001D01*
X130260000Y-101750000D02*
X130260000Y-100690000D01*
D40*
G04 #@! TO.N,CAN1_TX*
X137004980Y-99807980D02*
X137461000Y-100264000D01*
X137004980Y-94021712D02*
X137004980Y-99807980D01*
X137776693Y-93249999D02*
X137004980Y-94021712D01*
X138760001Y-93249999D02*
X137776693Y-93249999D01*
G04 #@! TO.N,CAN1_RX*
X133651000Y-96739282D02*
X133651000Y-100264000D01*
X137640282Y-92750000D02*
X133651000Y-96739282D01*
X138760001Y-92750000D02*
X137640282Y-92750000D01*
D42*
G04 #@! TO.N,USB_D+*
X150920000Y-122005000D02*
X150720000Y-121805000D01*
X151509999Y-122005000D02*
X150920000Y-122005000D01*
X152234999Y-121280000D02*
X151509999Y-122005000D01*
X153030000Y-121280000D02*
X152234999Y-121280000D01*
D40*
X141259999Y-87250003D02*
X141260001Y-87250001D01*
X141259999Y-89170001D02*
X141259999Y-87250003D01*
X141584999Y-89495001D02*
X141259999Y-89170001D01*
X142534263Y-89495001D02*
X141584999Y-89495001D01*
X142735000Y-89294264D02*
X142534263Y-89495001D01*
X142735000Y-88870000D02*
X142735000Y-89294264D01*
D42*
G04 #@! TO.N,USB_D-*
X150920000Y-122455000D02*
X150720000Y-122655000D01*
X151509999Y-122455000D02*
X150920000Y-122455000D01*
X152234999Y-123180000D02*
X151509999Y-122455000D01*
X153030000Y-123180000D02*
X152234999Y-123180000D01*
D40*
X141760000Y-88745000D02*
X141760000Y-87250001D01*
X141885000Y-88870000D02*
X141760000Y-88745000D01*
G04 #@! TO.N,CAN2_RX*
X139211000Y-98659000D02*
X139360000Y-98510000D01*
X139211000Y-100264000D02*
X139211000Y-98659000D01*
X144260000Y-88661339D02*
X144260000Y-87250001D01*
X143893333Y-89028006D02*
X144260000Y-88661339D01*
G04 #@! TO.N,CAN2_TX*
X143021000Y-98681000D02*
X142990000Y-98650000D01*
X143021000Y-100264000D02*
X143021000Y-98681000D01*
X144759999Y-89255001D02*
X144759999Y-87250001D01*
X144585000Y-89430000D02*
X144759999Y-89255001D01*
G04 #@! TO.N,CAN3_TX*
X148601000Y-98729000D02*
X148660000Y-98670000D01*
X148601000Y-100274000D02*
X148601000Y-98729000D01*
X155250001Y-93239999D02*
X156760001Y-93239999D01*
X154940000Y-93550000D02*
X155250001Y-93239999D01*
G04 #@! TO.N,CAN3_RX*
X144791000Y-98671000D02*
X144780000Y-98660000D01*
X144791000Y-100274000D02*
X144791000Y-98671000D01*
X155108980Y-92740000D02*
X156760001Y-92740000D01*
X155025638Y-92656658D02*
X155108980Y-92740000D01*
G04 #@! TO.N,CAN4_TX*
X158205000Y-109405000D02*
X158210000Y-109400000D01*
X158205000Y-111190000D02*
X158205000Y-109405000D01*
X162759999Y-88874999D02*
X162759999Y-87240001D01*
X162805000Y-88920000D02*
X162759999Y-88874999D01*
G04 #@! TO.N,CAN4_RX*
X154395000Y-109435000D02*
X154450000Y-109380000D01*
X154395000Y-111190000D02*
X154395000Y-109435000D01*
X162260000Y-88463729D02*
X162260000Y-87240001D01*
X162040991Y-88682738D02*
X162260000Y-88463729D01*
D42*
G04 #@! TO.N,USB2_D-*
X164734999Y-123250000D02*
X164009999Y-122525000D01*
X165530000Y-123250000D02*
X164734999Y-123250000D01*
X164009999Y-122525000D02*
X163676800Y-122525000D01*
X163676800Y-122525000D02*
X162075000Y-120923200D01*
X157912322Y-105700521D02*
X157629479Y-105700521D01*
X162075000Y-109863199D02*
X157912322Y-105700521D01*
X162075000Y-120923200D02*
X162075000Y-109863199D01*
D40*
X159760000Y-89188958D02*
X159760000Y-87240001D01*
X159379479Y-89569479D02*
X159760000Y-89188958D01*
D42*
G04 #@! TO.N,USB2_D+*
X164009999Y-122075000D02*
X163863200Y-122075000D01*
X164734999Y-121350000D02*
X164009999Y-122075000D01*
X165530000Y-121350000D02*
X164734999Y-121350000D01*
X163863200Y-122075000D02*
X162525000Y-120736800D01*
X162525000Y-109676801D02*
X158230521Y-105382322D01*
X162525000Y-120736800D02*
X162525000Y-109676801D01*
X158230521Y-105382322D02*
X158230521Y-105099479D01*
D40*
X159260001Y-88439999D02*
X159260001Y-87240001D01*
X159090000Y-88610000D02*
X159260001Y-88439999D01*
X159090000Y-88933956D02*
X159090000Y-88610000D01*
X158754478Y-89269478D02*
X159090000Y-88933956D01*
X158754478Y-89869480D02*
X158754478Y-89269478D01*
X159079478Y-90194480D02*
X158754478Y-89869480D01*
X159956562Y-90194480D02*
X159079478Y-90194480D01*
X159980521Y-90170521D02*
X159956562Y-90194480D01*
G04 #@! TO.N,SWDIO_2*
X155599990Y-86691778D02*
X157461768Y-84830000D01*
X155599990Y-87579989D02*
X155599990Y-86691778D01*
X156760001Y-88740000D02*
X155599990Y-87579989D01*
X157461768Y-84830000D02*
X158680000Y-84830000D01*
X159330000Y-84180000D02*
X159330000Y-82650000D01*
X158680000Y-84830000D02*
X159330000Y-84180000D01*
D44*
G04 #@! TO.N,POWER_IN*
X123510000Y-120230000D02*
X123920000Y-119820000D01*
X123510000Y-126240000D02*
X123510000Y-120230000D01*
G04 #@! TD*
D45*
G04 #@! TO.N,POWER_IN*
G36*
X131183000Y-109646048D02*
G01*
X131183000Y-117500192D01*
X126313275Y-121523863D01*
X122266571Y-121600578D01*
X122237394Y-112798778D01*
X129158460Y-112336718D01*
X129183019Y-112332633D01*
X129206309Y-112323835D01*
X129227435Y-112310662D01*
X129245585Y-112293621D01*
X129260062Y-112273367D01*
X129271394Y-112247317D01*
X130073607Y-109637707D01*
X131183000Y-109646048D01*
G37*
X131183000Y-109646048D02*
X131183000Y-117500192D01*
X126313275Y-121523863D01*
X122266571Y-121600578D01*
X122237394Y-112798778D01*
X129158460Y-112336718D01*
X129183019Y-112332633D01*
X129206309Y-112323835D01*
X129227435Y-112310662D01*
X129245585Y-112293621D01*
X129260062Y-112273367D01*
X129271394Y-112247317D01*
X130073607Y-109637707D01*
X131183000Y-109646048D01*
G04 #@! TO.N,GND*
G36*
X128865128Y-108958711D02*
G01*
X128860876Y-110400011D01*
X124450490Y-110383001D01*
X124425704Y-110385346D01*
X124401852Y-110392481D01*
X124384569Y-110401152D01*
X120824569Y-112541152D01*
X120804591Y-112556009D01*
X120787896Y-112574477D01*
X120775124Y-112595848D01*
X120766767Y-112619300D01*
X120763000Y-112650000D01*
X120763000Y-121373000D01*
X116797463Y-121373000D01*
X116835344Y-110965000D01*
X119373647Y-110965000D01*
X119402955Y-110962113D01*
X119409066Y-110962156D01*
X119418585Y-110961223D01*
X119612682Y-110940822D01*
X119673496Y-110928339D01*
X119734481Y-110916705D01*
X119743637Y-110913941D01*
X119930075Y-110856229D01*
X119987279Y-110832182D01*
X120044873Y-110808913D01*
X120053317Y-110804423D01*
X120224994Y-110711598D01*
X120276468Y-110676878D01*
X120328418Y-110642883D01*
X120335829Y-110636839D01*
X120381861Y-110598758D01*
X120551323Y-110596993D01*
X120576073Y-110594295D01*
X120599820Y-110586820D01*
X120621653Y-110574856D01*
X120640733Y-110558862D01*
X120656326Y-110539454D01*
X120667833Y-110517376D01*
X120674811Y-110493478D01*
X120677000Y-110470000D01*
X120677000Y-110299141D01*
X120703758Y-110266332D01*
X120738126Y-110214603D01*
X120773191Y-110163392D01*
X120777739Y-110154981D01*
X120777740Y-110154980D01*
X120777742Y-110154976D01*
X120869366Y-109982657D01*
X120893022Y-109925261D01*
X120917482Y-109868193D01*
X120920310Y-109859056D01*
X120976719Y-109672220D01*
X120988780Y-109611310D01*
X121001686Y-109550591D01*
X121002686Y-109541079D01*
X121021731Y-109346845D01*
X121021731Y-109346837D01*
X121025000Y-109313647D01*
X121025000Y-108909957D01*
X128865128Y-108958711D01*
G37*
X128865128Y-108958711D02*
X128860876Y-110400011D01*
X124450490Y-110383001D01*
X124425704Y-110385346D01*
X124401852Y-110392481D01*
X124384569Y-110401152D01*
X120824569Y-112541152D01*
X120804591Y-112556009D01*
X120787896Y-112574477D01*
X120775124Y-112595848D01*
X120766767Y-112619300D01*
X120763000Y-112650000D01*
X120763000Y-121373000D01*
X116797463Y-121373000D01*
X116835344Y-110965000D01*
X119373647Y-110965000D01*
X119402955Y-110962113D01*
X119409066Y-110962156D01*
X119418585Y-110961223D01*
X119612682Y-110940822D01*
X119673496Y-110928339D01*
X119734481Y-110916705D01*
X119743637Y-110913941D01*
X119930075Y-110856229D01*
X119987279Y-110832182D01*
X120044873Y-110808913D01*
X120053317Y-110804423D01*
X120224994Y-110711598D01*
X120276468Y-110676878D01*
X120328418Y-110642883D01*
X120335829Y-110636839D01*
X120381861Y-110598758D01*
X120551323Y-110596993D01*
X120576073Y-110594295D01*
X120599820Y-110586820D01*
X120621653Y-110574856D01*
X120640733Y-110558862D01*
X120656326Y-110539454D01*
X120667833Y-110517376D01*
X120674811Y-110493478D01*
X120677000Y-110470000D01*
X120677000Y-110299141D01*
X120703758Y-110266332D01*
X120738126Y-110214603D01*
X120773191Y-110163392D01*
X120777739Y-110154981D01*
X120777740Y-110154980D01*
X120777742Y-110154976D01*
X120869366Y-109982657D01*
X120893022Y-109925261D01*
X120917482Y-109868193D01*
X120920310Y-109859056D01*
X120976719Y-109672220D01*
X120988780Y-109611310D01*
X121001686Y-109550591D01*
X121002686Y-109541079D01*
X121021731Y-109346845D01*
X121021731Y-109346837D01*
X121025000Y-109313647D01*
X121025000Y-108909957D01*
X128865128Y-108958711D01*
G04 #@! TO.N,VIN*
G36*
X124775318Y-104676012D02*
G01*
X124899800Y-104688272D01*
X127009528Y-104688272D01*
X127009528Y-105307500D01*
X127021788Y-105431982D01*
X127058098Y-105551680D01*
X127117063Y-105661994D01*
X127196415Y-105758685D01*
X127293106Y-105838037D01*
X127329506Y-105857494D01*
X127328002Y-106144961D01*
X127330312Y-106169749D01*
X127337415Y-106193611D01*
X127349036Y-106215629D01*
X127364729Y-106234956D01*
X127383891Y-106250851D01*
X127405786Y-106262702D01*
X127429572Y-106270053D01*
X127454855Y-106272625D01*
X131175048Y-106276858D01*
X131215924Y-108788440D01*
X130005637Y-108792571D01*
X129996993Y-107988634D01*
X129994286Y-107963886D01*
X129986803Y-107940140D01*
X129974832Y-107918311D01*
X129958832Y-107899237D01*
X129939418Y-107883651D01*
X129917336Y-107872152D01*
X129893436Y-107865181D01*
X129870544Y-107863001D01*
X121025000Y-107825078D01*
X121025000Y-106120047D01*
X121035150Y-106125472D01*
X121201746Y-106176008D01*
X121375000Y-106193072D01*
X122625000Y-106193072D01*
X122798254Y-106176008D01*
X122964850Y-106125472D01*
X123118386Y-106043405D01*
X123252962Y-105932962D01*
X123257516Y-105927413D01*
X123278103Y-105925385D01*
X123371669Y-105897002D01*
X123468489Y-105867632D01*
X123643949Y-105773847D01*
X123797742Y-105647633D01*
X123829370Y-105609094D01*
X124765447Y-104673018D01*
X124775318Y-104676012D01*
G37*
X124775318Y-104676012D02*
X124899800Y-104688272D01*
X127009528Y-104688272D01*
X127009528Y-105307500D01*
X127021788Y-105431982D01*
X127058098Y-105551680D01*
X127117063Y-105661994D01*
X127196415Y-105758685D01*
X127293106Y-105838037D01*
X127329506Y-105857494D01*
X127328002Y-106144961D01*
X127330312Y-106169749D01*
X127337415Y-106193611D01*
X127349036Y-106215629D01*
X127364729Y-106234956D01*
X127383891Y-106250851D01*
X127405786Y-106262702D01*
X127429572Y-106270053D01*
X127454855Y-106272625D01*
X131175048Y-106276858D01*
X131215924Y-108788440D01*
X130005637Y-108792571D01*
X129996993Y-107988634D01*
X129994286Y-107963886D01*
X129986803Y-107940140D01*
X129974832Y-107918311D01*
X129958832Y-107899237D01*
X129939418Y-107883651D01*
X129917336Y-107872152D01*
X129893436Y-107865181D01*
X129870544Y-107863001D01*
X121025000Y-107825078D01*
X121025000Y-106120047D01*
X121035150Y-106125472D01*
X121201746Y-106176008D01*
X121375000Y-106193072D01*
X122625000Y-106193072D01*
X122798254Y-106176008D01*
X122964850Y-106125472D01*
X123118386Y-106043405D01*
X123252962Y-105932962D01*
X123257516Y-105927413D01*
X123278103Y-105925385D01*
X123371669Y-105897002D01*
X123468489Y-105867632D01*
X123643949Y-105773847D01*
X123797742Y-105647633D01*
X123829370Y-105609094D01*
X124765447Y-104673018D01*
X124775318Y-104676012D01*
G04 #@! TO.N,GND*
G36*
X126609752Y-98638670D02*
G01*
X126554950Y-98693472D01*
X126521183Y-98721184D01*
X126493470Y-98754952D01*
X126493467Y-98754955D01*
X126410589Y-98855942D01*
X126328411Y-99009688D01*
X126277804Y-99176511D01*
X126264999Y-99306524D01*
X126264999Y-99306532D01*
X126260718Y-99350001D01*
X126264999Y-99393470D01*
X126264999Y-100118576D01*
X126277804Y-100248589D01*
X126328410Y-100415412D01*
X126348022Y-100452104D01*
X124159328Y-100474212D01*
X124154670Y-97003676D01*
X126594199Y-96987820D01*
X126609752Y-98638670D01*
G37*
X126609752Y-98638670D02*
X126554950Y-98693472D01*
X126521183Y-98721184D01*
X126493470Y-98754952D01*
X126493467Y-98754955D01*
X126410589Y-98855942D01*
X126328411Y-99009688D01*
X126277804Y-99176511D01*
X126264999Y-99306524D01*
X126264999Y-99306532D01*
X126260718Y-99350001D01*
X126264999Y-99393470D01*
X126264999Y-100118576D01*
X126277804Y-100248589D01*
X126328410Y-100415412D01*
X126348022Y-100452104D01*
X124159328Y-100474212D01*
X124154670Y-97003676D01*
X126594199Y-96987820D01*
X126609752Y-98638670D01*
G04 #@! TO.N,+5V*
G36*
X127323000Y-75693536D02*
G01*
X127291400Y-75852401D01*
X127291400Y-76147599D01*
X127323000Y-76306464D01*
X127323000Y-76833000D01*
X122250000Y-76833000D01*
X122225224Y-76835440D01*
X122201399Y-76842667D01*
X122179443Y-76854403D01*
X122160197Y-76870197D01*
X122144403Y-76889443D01*
X122132667Y-76911399D01*
X122124641Y-76939650D01*
X121624641Y-80019650D01*
X121623080Y-80044497D01*
X121626396Y-80069171D01*
X121634462Y-80092725D01*
X121646968Y-80114252D01*
X121663434Y-80132926D01*
X121683226Y-80148029D01*
X121705584Y-80158980D01*
X121729650Y-80165359D01*
X121750000Y-80167000D01*
X125023000Y-80167000D01*
X125023000Y-84413000D01*
X116977000Y-84413000D01*
X116977000Y-79967000D01*
X117550952Y-79967000D01*
X117969308Y-80140288D01*
X118546003Y-80255000D01*
X119133997Y-80255000D01*
X119710692Y-80140288D01*
X120253928Y-79915273D01*
X120742826Y-79588601D01*
X121158601Y-79172826D01*
X121485273Y-78683928D01*
X121710288Y-78140692D01*
X121825000Y-77563997D01*
X121825000Y-76976003D01*
X121710288Y-76399308D01*
X121485273Y-75856072D01*
X121158601Y-75367174D01*
X121073191Y-75281764D01*
X121154517Y-74867000D01*
X127323000Y-74867000D01*
X127323000Y-75693536D01*
G37*
X127323000Y-75693536D02*
X127291400Y-75852401D01*
X127291400Y-76147599D01*
X127323000Y-76306464D01*
X127323000Y-76833000D01*
X122250000Y-76833000D01*
X122225224Y-76835440D01*
X122201399Y-76842667D01*
X122179443Y-76854403D01*
X122160197Y-76870197D01*
X122144403Y-76889443D01*
X122132667Y-76911399D01*
X122124641Y-76939650D01*
X121624641Y-80019650D01*
X121623080Y-80044497D01*
X121626396Y-80069171D01*
X121634462Y-80092725D01*
X121646968Y-80114252D01*
X121663434Y-80132926D01*
X121683226Y-80148029D01*
X121705584Y-80158980D01*
X121729650Y-80165359D01*
X121750000Y-80167000D01*
X125023000Y-80167000D01*
X125023000Y-84413000D01*
X116977000Y-84413000D01*
X116977000Y-79967000D01*
X117550952Y-79967000D01*
X117969308Y-80140288D01*
X118546003Y-80255000D01*
X119133997Y-80255000D01*
X119710692Y-80140288D01*
X120253928Y-79915273D01*
X120742826Y-79588601D01*
X121158601Y-79172826D01*
X121485273Y-78683928D01*
X121710288Y-78140692D01*
X121825000Y-77563997D01*
X121825000Y-76976003D01*
X121710288Y-76399308D01*
X121485273Y-75856072D01*
X121158601Y-75367174D01*
X121073191Y-75281764D01*
X121154517Y-74867000D01*
X127323000Y-74867000D01*
X127323000Y-75693536D01*
G04 #@! TO.N,LX*
G36*
X123943000Y-96013000D02*
G01*
X123470000Y-96013000D01*
X123445224Y-96015440D01*
X123421399Y-96022667D01*
X123399443Y-96034403D01*
X123380197Y-96050197D01*
X123364403Y-96069443D01*
X123352667Y-96091399D01*
X123345440Y-96115224D01*
X123343000Y-96140000D01*
X123343000Y-100437668D01*
X123288006Y-100467063D01*
X123191315Y-100546415D01*
X123111963Y-100643106D01*
X123052998Y-100753420D01*
X123016688Y-100873118D01*
X123004428Y-100997600D01*
X123004428Y-101302400D01*
X123016688Y-101426882D01*
X123052998Y-101546580D01*
X123111963Y-101656894D01*
X123191315Y-101753585D01*
X123288006Y-101832937D01*
X123398320Y-101891902D01*
X123518018Y-101928212D01*
X123642500Y-101940472D01*
X123745296Y-101940472D01*
X123784787Y-101961580D01*
X123951610Y-102012186D01*
X124081623Y-102024991D01*
X124081631Y-102024991D01*
X124125100Y-102029272D01*
X124168569Y-102024991D01*
X124261728Y-102024991D01*
X124261728Y-102883581D01*
X124125099Y-102870123D01*
X123927104Y-102889625D01*
X123736719Y-102947378D01*
X123713988Y-102959528D01*
X123642500Y-102959528D01*
X123518018Y-102971788D01*
X123398320Y-103008098D01*
X123288006Y-103067063D01*
X123191315Y-103146415D01*
X123144877Y-103203000D01*
X121025000Y-103203000D01*
X121025000Y-94246353D01*
X121022113Y-94217045D01*
X121022156Y-94210933D01*
X121021223Y-94201415D01*
X121000822Y-94007318D01*
X120988339Y-93946504D01*
X120976705Y-93885519D01*
X120973941Y-93876363D01*
X120916229Y-93689925D01*
X120892170Y-93632692D01*
X120868913Y-93575127D01*
X120864423Y-93566682D01*
X120771598Y-93395006D01*
X120736878Y-93343532D01*
X120702883Y-93291582D01*
X120697000Y-93284369D01*
X120697000Y-92830000D01*
X120694560Y-92805224D01*
X120687333Y-92781399D01*
X120675597Y-92759443D01*
X120659803Y-92740197D01*
X120640557Y-92724403D01*
X120618601Y-92712667D01*
X120594776Y-92705440D01*
X120570000Y-92703000D01*
X119929315Y-92703000D01*
X119928193Y-92702519D01*
X119919057Y-92699690D01*
X119732220Y-92643281D01*
X119671302Y-92631219D01*
X119610590Y-92618314D01*
X119601078Y-92617314D01*
X119406845Y-92598269D01*
X119406837Y-92598269D01*
X119373647Y-92595000D01*
X118097000Y-92595000D01*
X118097000Y-87657000D01*
X123943000Y-87657000D01*
X123943000Y-96013000D01*
G37*
X123943000Y-96013000D02*
X123470000Y-96013000D01*
X123445224Y-96015440D01*
X123421399Y-96022667D01*
X123399443Y-96034403D01*
X123380197Y-96050197D01*
X123364403Y-96069443D01*
X123352667Y-96091399D01*
X123345440Y-96115224D01*
X123343000Y-96140000D01*
X123343000Y-100437668D01*
X123288006Y-100467063D01*
X123191315Y-100546415D01*
X123111963Y-100643106D01*
X123052998Y-100753420D01*
X123016688Y-100873118D01*
X123004428Y-100997600D01*
X123004428Y-101302400D01*
X123016688Y-101426882D01*
X123052998Y-101546580D01*
X123111963Y-101656894D01*
X123191315Y-101753585D01*
X123288006Y-101832937D01*
X123398320Y-101891902D01*
X123518018Y-101928212D01*
X123642500Y-101940472D01*
X123745296Y-101940472D01*
X123784787Y-101961580D01*
X123951610Y-102012186D01*
X124081623Y-102024991D01*
X124081631Y-102024991D01*
X124125100Y-102029272D01*
X124168569Y-102024991D01*
X124261728Y-102024991D01*
X124261728Y-102883581D01*
X124125099Y-102870123D01*
X123927104Y-102889625D01*
X123736719Y-102947378D01*
X123713988Y-102959528D01*
X123642500Y-102959528D01*
X123518018Y-102971788D01*
X123398320Y-103008098D01*
X123288006Y-103067063D01*
X123191315Y-103146415D01*
X123144877Y-103203000D01*
X121025000Y-103203000D01*
X121025000Y-94246353D01*
X121022113Y-94217045D01*
X121022156Y-94210933D01*
X121021223Y-94201415D01*
X121000822Y-94007318D01*
X120988339Y-93946504D01*
X120976705Y-93885519D01*
X120973941Y-93876363D01*
X120916229Y-93689925D01*
X120892170Y-93632692D01*
X120868913Y-93575127D01*
X120864423Y-93566682D01*
X120771598Y-93395006D01*
X120736878Y-93343532D01*
X120702883Y-93291582D01*
X120697000Y-93284369D01*
X120697000Y-92830000D01*
X120694560Y-92805224D01*
X120687333Y-92781399D01*
X120675597Y-92759443D01*
X120659803Y-92740197D01*
X120640557Y-92724403D01*
X120618601Y-92712667D01*
X120594776Y-92705440D01*
X120570000Y-92703000D01*
X119929315Y-92703000D01*
X119928193Y-92702519D01*
X119919057Y-92699690D01*
X119732220Y-92643281D01*
X119671302Y-92631219D01*
X119610590Y-92618314D01*
X119601078Y-92617314D01*
X119406845Y-92598269D01*
X119406837Y-92598269D01*
X119373647Y-92595000D01*
X118097000Y-92595000D01*
X118097000Y-87657000D01*
X123943000Y-87657000D01*
X123943000Y-96013000D01*
G04 #@! TD*
M02*
