G04 #@! TF.GenerationSoftware,KiCad,Pcbnew,5.1.6-c6e7f7d~87~ubuntu19.10.1*
G04 #@! TF.CreationDate,2021-03-31T16:12:46-04:00*
G04 #@! TF.ProjectId,helios,68656c69-6f73-42e6-9b69-6361645f7063,v1.0*
G04 #@! TF.SameCoordinates,Original*
G04 #@! TF.FileFunction,Copper,L4,Bot*
G04 #@! TF.FilePolarity,Positive*
%FSLAX46Y46*%
G04 Gerber Fmt 4.6, Leading zero omitted, Abs format (unit mm)*
G04 Created by KiCad (PCBNEW 5.1.6-c6e7f7d~87~ubuntu19.10.1) date 2021-03-31 16:12:46*
%MOMM*%
%LPD*%
G01*
G04 APERTURE LIST*
G04 #@! TA.AperFunction,ComponentPad*
%ADD10R,1.700000X1.700000*%
G04 #@! TD*
G04 #@! TA.AperFunction,ComponentPad*
%ADD11O,1.700000X1.700000*%
G04 #@! TD*
G04 #@! TA.AperFunction,ComponentPad*
%ADD12C,3.000000*%
G04 #@! TD*
G04 #@! TA.AperFunction,ComponentPad*
%ADD13O,1.200000X1.750000*%
G04 #@! TD*
G04 #@! TA.AperFunction,ComponentPad*
%ADD14O,1.000000X1.900000*%
G04 #@! TD*
G04 #@! TA.AperFunction,ComponentPad*
%ADD15O,1.050000X1.250000*%
G04 #@! TD*
G04 #@! TA.AperFunction,ComponentPad*
%ADD16O,1.727200X1.727200*%
G04 #@! TD*
G04 #@! TA.AperFunction,ComponentPad*
%ADD17R,1.727200X1.727200*%
G04 #@! TD*
G04 #@! TA.AperFunction,ComponentPad*
%ADD18C,1.778000*%
G04 #@! TD*
G04 #@! TA.AperFunction,ComponentPad*
%ADD19O,1.524000X3.048000*%
G04 #@! TD*
G04 #@! TA.AperFunction,ComponentPad*
%ADD20O,3.048000X1.524000*%
G04 #@! TD*
G04 #@! TA.AperFunction,ComponentPad*
%ADD21C,4.700000*%
G04 #@! TD*
G04 #@! TA.AperFunction,ViaPad*
%ADD22C,0.600000*%
G04 #@! TD*
G04 #@! TA.AperFunction,ViaPad*
%ADD23C,0.800000*%
G04 #@! TD*
G04 #@! TA.AperFunction,Conductor*
%ADD24C,0.250000*%
G04 #@! TD*
G04 #@! TA.AperFunction,Conductor*
%ADD25C,0.300000*%
G04 #@! TD*
G04 #@! TA.AperFunction,Conductor*
%ADD26C,0.500000*%
G04 #@! TD*
G04 #@! TA.AperFunction,Conductor*
%ADD27C,0.200000*%
G04 #@! TD*
G04 APERTURE END LIST*
D10*
G04 #@! TO.P,U10,1*
G04 #@! TO.N,Net-(U10-Pad1)*
X151670000Y-96800000D03*
D11*
G04 #@! TO.P,U10,2*
G04 #@! TO.N,+3V3*
X151670000Y-99340000D03*
G04 #@! TO.P,U10,3*
G04 #@! TO.N,GND*
X151670000Y-101880000D03*
G04 #@! TO.P,U10,4*
G04 #@! TO.N,I2C2_SCL*
X151670000Y-104420000D03*
G04 #@! TO.P,U10,5*
G04 #@! TO.N,I2C2_SDA*
X151670000Y-106960000D03*
G04 #@! TO.P,U10,6*
G04 #@! TO.N,Net-(U10-Pad6)*
X151670000Y-109500000D03*
G04 #@! TO.P,U10,9*
G04 #@! TO.N,Net-(U10-Pad9)*
X166910000Y-104420000D03*
G04 #@! TO.P,U10,8*
G04 #@! TO.N,Net-(U10-Pad8)*
X166910000Y-101880000D03*
D10*
G04 #@! TO.P,U10,7*
G04 #@! TO.N,Net-(U10-Pad7)*
X166910000Y-99340000D03*
D11*
G04 #@! TO.P,U10,10*
G04 #@! TO.N,Net-(U10-Pad10)*
X166910000Y-106960000D03*
G04 #@! TD*
D12*
G04 #@! TO.P,1111,+*
G04 #@! TO.N,POWER_IN*
X123950000Y-114050000D03*
G04 #@! TO.P,1111,-*
G04 #@! TO.N,GND*
X118950000Y-114050000D03*
G04 #@! TD*
G04 #@! TO.P,J5,1*
G04 #@! TO.N,+3V3*
G04 #@! TA.AperFunction,ComponentPad*
G36*
G01*
X136610000Y-83275001D02*
X136610000Y-82024999D01*
G75*
G02*
X136859999Y-81775000I249999J0D01*
G01*
X137560001Y-81775000D01*
G75*
G02*
X137810000Y-82024999I0J-249999D01*
G01*
X137810000Y-83275001D01*
G75*
G02*
X137560001Y-83525000I-249999J0D01*
G01*
X136859999Y-83525000D01*
G75*
G02*
X136610000Y-83275001I0J249999D01*
G01*
G37*
G04 #@! TD.AperFunction*
D13*
G04 #@! TO.P,J5,2*
G04 #@! TO.N,SWO*
X139210000Y-82650000D03*
G04 #@! TO.P,J5,3*
G04 #@! TO.N,SWDIO*
X141210000Y-82650000D03*
G04 #@! TO.P,J5,4*
G04 #@! TO.N,SWCLK*
X143210000Y-82650000D03*
G04 #@! TO.P,J5,5*
G04 #@! TO.N,NRST*
X145210000Y-82650000D03*
G04 #@! TO.P,J5,6*
G04 #@! TO.N,GND*
X147210000Y-82650000D03*
G04 #@! TD*
G04 #@! TO.P,J6,6*
G04 #@! TO.N,GND*
X165330000Y-82650000D03*
G04 #@! TO.P,J6,5*
G04 #@! TO.N,NRST_2*
X163330000Y-82650000D03*
G04 #@! TO.P,J6,4*
G04 #@! TO.N,SWCLK_2*
X161330000Y-82650000D03*
G04 #@! TO.P,J6,3*
G04 #@! TO.N,SWDIO_2*
X159330000Y-82650000D03*
G04 #@! TO.P,J6,2*
G04 #@! TO.N,SWO_2*
X157330000Y-82650000D03*
G04 #@! TO.P,J6,1*
G04 #@! TO.N,+3V3*
G04 #@! TA.AperFunction,ComponentPad*
G36*
G01*
X154730000Y-83275001D02*
X154730000Y-82024999D01*
G75*
G02*
X154979999Y-81775000I249999J0D01*
G01*
X155680001Y-81775000D01*
G75*
G02*
X155930000Y-82024999I0J-249999D01*
G01*
X155930000Y-83275001D01*
G75*
G02*
X155680001Y-83525000I-249999J0D01*
G01*
X154979999Y-83525000D01*
G75*
G02*
X154730000Y-83275001I0J249999D01*
G01*
G37*
G04 #@! TD.AperFunction*
G04 #@! TD*
D14*
G04 #@! TO.P,J7,6*
G04 #@! TO.N,Net-(J7-Pad6)*
X158295000Y-128330000D03*
X149945000Y-128330000D03*
D15*
X156345000Y-125330000D03*
X151895000Y-125330000D03*
G04 #@! TD*
G04 #@! TO.P,J8,6*
G04 #@! TO.N,Net-(J8-Pad6)*
X164395000Y-125310000D03*
X168845000Y-125310000D03*
D14*
X162445000Y-128310000D03*
X170795000Y-128310000D03*
G04 #@! TD*
D16*
G04 #@! TO.P,J19,40*
G04 #@! TO.N,SPI1_SCK*
X171970000Y-76000000D03*
G04 #@! TO.P,J19,39*
G04 #@! TO.N,GND*
X171970000Y-78540000D03*
G04 #@! TO.P,J19,38*
G04 #@! TO.N,SPI1_MOSI*
X169430000Y-76000000D03*
G04 #@! TO.P,J19,37*
G04 #@! TO.N,Net-(J19-Pad37)*
X169430000Y-78540000D03*
G04 #@! TO.P,J19,36*
G04 #@! TO.N,Net-(J19-Pad36)*
X166890000Y-76000000D03*
G04 #@! TO.P,J19,35*
G04 #@! TO.N,SPI1_MISO*
X166890000Y-78540000D03*
G04 #@! TO.P,J19,34*
G04 #@! TO.N,GND*
X164350000Y-76000000D03*
G04 #@! TO.P,J19,33*
G04 #@! TO.N,Net-(J19-Pad33)*
X164350000Y-78540000D03*
G04 #@! TO.P,J19,32*
G04 #@! TO.N,Net-(J19-Pad32)*
X161810000Y-76000000D03*
G04 #@! TO.P,J19,31*
G04 #@! TO.N,Net-(J19-Pad31)*
X161810000Y-78540000D03*
G04 #@! TO.P,J19,30*
G04 #@! TO.N,GND*
X159270000Y-76000000D03*
G04 #@! TO.P,J19,29*
G04 #@! TO.N,Net-(J19-Pad29)*
X159270000Y-78540000D03*
G04 #@! TO.P,J19,28*
G04 #@! TO.N,Net-(J19-Pad28)*
X156730000Y-76000000D03*
G04 #@! TO.P,J19,27*
G04 #@! TO.N,Net-(J19-Pad27)*
X156730000Y-78540000D03*
G04 #@! TO.P,J19,26*
G04 #@! TO.N,Net-(J19-Pad26)*
X154190000Y-76000000D03*
G04 #@! TO.P,J19,25*
G04 #@! TO.N,GND*
X154190000Y-78540000D03*
G04 #@! TO.P,J19,24*
G04 #@! TO.N,Net-(J19-Pad24)*
X151650000Y-76000000D03*
G04 #@! TO.P,J19,23*
G04 #@! TO.N,SPI0_SCK*
X151650000Y-78540000D03*
G04 #@! TO.P,J19,22*
G04 #@! TO.N,Net-(J19-Pad22)*
X149110000Y-76000000D03*
G04 #@! TO.P,J19,21*
G04 #@! TO.N,SPI0_MISO*
X149110000Y-78540000D03*
G04 #@! TO.P,J19,20*
G04 #@! TO.N,GND*
X146570000Y-76000000D03*
G04 #@! TO.P,J19,19*
G04 #@! TO.N,SPI0_MOSI*
X146570000Y-78540000D03*
G04 #@! TO.P,J19,18*
G04 #@! TO.N,Net-(J19-Pad18)*
X144030000Y-76000000D03*
G04 #@! TO.P,J19,17*
G04 #@! TO.N,+3V3*
X144030000Y-78540000D03*
G04 #@! TO.P,J19,16*
G04 #@! TO.N,Net-(J19-Pad16)*
X141490000Y-76000000D03*
G04 #@! TO.P,J19,15*
G04 #@! TO.N,Net-(J19-Pad15)*
X141490000Y-78540000D03*
G04 #@! TO.P,J19,14*
G04 #@! TO.N,GND*
X138950000Y-76000000D03*
G04 #@! TO.P,J19,13*
G04 #@! TO.N,Net-(J19-Pad13)*
X138950000Y-78540000D03*
G04 #@! TO.P,J19,12*
G04 #@! TO.N,Net-(J19-Pad12)*
X136410000Y-76000000D03*
G04 #@! TO.P,J19,11*
G04 #@! TO.N,Net-(J19-Pad11)*
X136410000Y-78540000D03*
G04 #@! TO.P,J19,10*
G04 #@! TO.N,Net-(J14-Pad2)*
X133870000Y-76000000D03*
G04 #@! TO.P,J19,9*
G04 #@! TO.N,GND*
X133870000Y-78540000D03*
G04 #@! TO.P,J19,8*
G04 #@! TO.N,Net-(J14-Pad3)*
X131330000Y-76000000D03*
G04 #@! TO.P,J19,7*
G04 #@! TO.N,Net-(J19-Pad7)*
X131330000Y-78540000D03*
G04 #@! TO.P,J19,6*
G04 #@! TO.N,GND*
X128790000Y-76000000D03*
G04 #@! TO.P,J19,5*
G04 #@! TO.N,I2C2_SCL*
X128790000Y-78540000D03*
G04 #@! TO.P,J19,4*
G04 #@! TO.N,+5V*
X126250000Y-76000000D03*
G04 #@! TO.P,J19,3*
G04 #@! TO.N,I2C2_SDA*
X126250000Y-78540000D03*
G04 #@! TO.P,J19,2*
G04 #@! TO.N,+5V*
X123710000Y-76000000D03*
D17*
G04 #@! TO.P,J19,1*
G04 #@! TO.N,+3V3*
X123710000Y-78540000D03*
G04 #@! TD*
D18*
G04 #@! TO.P,JP1,12*
G04 #@! TO.N,GND*
X177870000Y-115790000D03*
G04 #@! TO.P,JP1,9*
X177870000Y-113250000D03*
G04 #@! TO.P,JP1,6*
X177870000Y-110710000D03*
G04 #@! TO.P,JP1,3*
X177870000Y-108170000D03*
G04 #@! TO.P,JP1,11*
G04 #@! TO.N,+BATT*
X175330000Y-115790000D03*
G04 #@! TO.P,JP1,10*
G04 #@! TO.N,TIM5_CH1_1*
X172790000Y-115790000D03*
G04 #@! TO.P,JP1,8*
G04 #@! TO.N,+BATT*
X175330000Y-113250000D03*
G04 #@! TO.P,JP1,7*
G04 #@! TO.N,TIM5_CH2_1*
X172790000Y-113250000D03*
G04 #@! TO.P,JP1,5*
G04 #@! TO.N,+BATT*
X175330000Y-110710000D03*
G04 #@! TO.P,JP1,4*
G04 #@! TO.N,TIM5_CH3_1*
X172790000Y-110710000D03*
G04 #@! TO.P,JP1,2*
G04 #@! TO.N,+BATT*
X175330000Y-108170000D03*
G04 #@! TO.P,JP1,1*
G04 #@! TO.N,TIM8_CH2N_1*
X172790000Y-108170000D03*
G04 #@! TD*
G04 #@! TO.P,JP2,1*
G04 #@! TO.N,TIM20_CH1_2*
X172770000Y-85480000D03*
G04 #@! TO.P,JP2,2*
G04 #@! TO.N,+BATT*
X175310000Y-85480000D03*
G04 #@! TO.P,JP2,4*
G04 #@! TO.N,TIM8_CH3N_2*
X172770000Y-88020000D03*
G04 #@! TO.P,JP2,5*
G04 #@! TO.N,+BATT*
X175310000Y-88020000D03*
G04 #@! TO.P,JP2,7*
G04 #@! TO.N,TIM8_CH2N_2*
X172770000Y-90560000D03*
G04 #@! TO.P,JP2,8*
G04 #@! TO.N,+BATT*
X175310000Y-90560000D03*
G04 #@! TO.P,JP2,10*
G04 #@! TO.N,TIM5_CH3_2*
X172770000Y-93100000D03*
G04 #@! TO.P,JP2,11*
G04 #@! TO.N,+BATT*
X175310000Y-93100000D03*
G04 #@! TO.P,JP2,3*
G04 #@! TO.N,GND*
X177850000Y-85480000D03*
G04 #@! TO.P,JP2,6*
X177850000Y-88020000D03*
G04 #@! TO.P,JP2,9*
X177850000Y-90560000D03*
G04 #@! TO.P,JP2,12*
X177850000Y-93100000D03*
G04 #@! TD*
G04 #@! TO.P,JP3,1*
G04 #@! TO.N,TIM5_CH2_2*
X172840000Y-96830000D03*
G04 #@! TO.P,JP3,2*
G04 #@! TO.N,+BATT*
X175380000Y-96830000D03*
G04 #@! TO.P,JP3,4*
G04 #@! TO.N,TIM5_CH1_2*
X172840000Y-99370000D03*
G04 #@! TO.P,JP3,5*
G04 #@! TO.N,+BATT*
X175380000Y-99370000D03*
G04 #@! TO.P,JP3,7*
G04 #@! TO.N,TIM20_CH1_1*
X172840000Y-101910000D03*
G04 #@! TO.P,JP3,8*
G04 #@! TO.N,+BATT*
X175380000Y-101910000D03*
G04 #@! TO.P,JP3,10*
G04 #@! TO.N,TIM8_CH3N_1*
X172840000Y-104450000D03*
G04 #@! TO.P,JP3,11*
G04 #@! TO.N,+BATT*
X175380000Y-104450000D03*
G04 #@! TO.P,JP3,3*
G04 #@! TO.N,GND*
X177920000Y-96830000D03*
G04 #@! TO.P,JP3,6*
X177920000Y-99370000D03*
G04 #@! TO.P,JP3,9*
X177920000Y-101910000D03*
G04 #@! TO.P,JP3,12*
X177920000Y-104450000D03*
G04 #@! TD*
D12*
G04 #@! TO.P,U9,-*
G04 #@! TO.N,GND*
X118920000Y-119820000D03*
G04 #@! TO.P,U9,+*
G04 #@! TO.N,POWER_IN*
X123920000Y-119820000D03*
G04 #@! TD*
G04 #@! TO.P,U11,-*
G04 #@! TO.N,GND*
X171580000Y-120300000D03*
G04 #@! TO.P,U11,+*
G04 #@! TO.N,+BATT*
X176580000Y-120300000D03*
G04 #@! TD*
G04 #@! TO.P,J1,1*
G04 #@! TO.N,Net-(J1-Pad1)*
G04 #@! TA.AperFunction,ComponentPad*
G36*
G01*
X138866000Y-110932999D02*
X138866000Y-112183001D01*
G75*
G02*
X138616001Y-112433000I-249999J0D01*
G01*
X137915999Y-112433000D01*
G75*
G02*
X137666000Y-112183001I0J249999D01*
G01*
X137666000Y-110932999D01*
G75*
G02*
X137915999Y-110683000I249999J0D01*
G01*
X138616001Y-110683000D01*
G75*
G02*
X138866000Y-110932999I0J-249999D01*
G01*
G37*
G04 #@! TD.AperFunction*
D13*
G04 #@! TO.P,J1,2*
G04 #@! TO.N,Net-(J1-Pad2)*
X136266000Y-111558000D03*
G04 #@! TO.P,J1,3*
G04 #@! TO.N,GND*
X134266000Y-111558000D03*
G04 #@! TD*
G04 #@! TO.P,J2,3*
G04 #@! TO.N,GND*
X143256000Y-111568000D03*
G04 #@! TO.P,J2,2*
G04 #@! TO.N,Net-(J2-Pad2)*
X145256000Y-111568000D03*
G04 #@! TO.P,J2,1*
G04 #@! TO.N,Net-(J2-Pad1)*
G04 #@! TA.AperFunction,ComponentPad*
G36*
G01*
X147856000Y-110942999D02*
X147856000Y-112193001D01*
G75*
G02*
X147606001Y-112443000I-249999J0D01*
G01*
X146905999Y-112443000D01*
G75*
G02*
X146656000Y-112193001I0J249999D01*
G01*
X146656000Y-110942999D01*
G75*
G02*
X146905999Y-110693000I249999J0D01*
G01*
X147606001Y-110693000D01*
G75*
G02*
X147856000Y-110942999I0J-249999D01*
G01*
G37*
G04 #@! TD.AperFunction*
G04 #@! TD*
G04 #@! TO.P,J3,1*
G04 #@! TO.N,Net-(J3-Pad1)*
G04 #@! TA.AperFunction,ComponentPad*
G36*
G01*
X138866000Y-116512999D02*
X138866000Y-117763001D01*
G75*
G02*
X138616001Y-118013000I-249999J0D01*
G01*
X137915999Y-118013000D01*
G75*
G02*
X137666000Y-117763001I0J249999D01*
G01*
X137666000Y-116512999D01*
G75*
G02*
X137915999Y-116263000I249999J0D01*
G01*
X138616001Y-116263000D01*
G75*
G02*
X138866000Y-116512999I0J-249999D01*
G01*
G37*
G04 #@! TD.AperFunction*
G04 #@! TO.P,J3,2*
G04 #@! TO.N,Net-(J3-Pad2)*
X136266000Y-117138000D03*
G04 #@! TO.P,J3,3*
G04 #@! TO.N,GND*
X134266000Y-117138000D03*
G04 #@! TD*
G04 #@! TO.P,J4,3*
G04 #@! TO.N,GND*
X143256000Y-117148000D03*
G04 #@! TO.P,J4,2*
G04 #@! TO.N,Net-(J4-Pad2)*
X145256000Y-117148000D03*
G04 #@! TO.P,J4,1*
G04 #@! TO.N,Net-(J4-Pad1)*
G04 #@! TA.AperFunction,ComponentPad*
G36*
G01*
X147856000Y-116522999D02*
X147856000Y-117773001D01*
G75*
G02*
X147606001Y-118023000I-249999J0D01*
G01*
X146905999Y-118023000D01*
G75*
G02*
X146656000Y-117773001I0J249999D01*
G01*
X146656000Y-116522999D01*
G75*
G02*
X146905999Y-116273000I249999J0D01*
G01*
X147606001Y-116273000D01*
G75*
G02*
X147856000Y-116522999I0J-249999D01*
G01*
G37*
G04 #@! TD.AperFunction*
G04 #@! TD*
D10*
G04 #@! TO.P,J22,1*
G04 #@! TO.N,GND*
X140750000Y-121720000D03*
D11*
G04 #@! TO.P,J22,2*
G04 #@! TO.N,+3V3*
X143290000Y-121720000D03*
G04 #@! TO.P,J22,3*
G04 #@! TO.N,I2C2_SDA*
X145830000Y-121720000D03*
G04 #@! TO.P,J22,4*
G04 #@! TO.N,I2C2_SCL*
X148370000Y-121720000D03*
G04 #@! TD*
D19*
G04 #@! TO.P,J9,3*
G04 #@! TO.N,+3V3*
X128590000Y-126240000D03*
G04 #@! TO.P,J9,2*
G04 #@! TO.N,GND*
X126050000Y-126240000D03*
G04 #@! TO.P,J9,1*
G04 #@! TO.N,POWER_IN*
X123510000Y-126240000D03*
G04 #@! TD*
D20*
G04 #@! TO.P,J14,1*
G04 #@! TO.N,GND*
X132910000Y-86870000D03*
G04 #@! TO.P,J14,2*
G04 #@! TO.N,Net-(J14-Pad2)*
X132910000Y-84330000D03*
G04 #@! TO.P,J14,3*
G04 #@! TO.N,Net-(J14-Pad3)*
X132910000Y-81790000D03*
G04 #@! TD*
D21*
G04 #@! TO.P,H1,1*
G04 #@! TO.N,GND*
X118840000Y-77270000D03*
G04 #@! TD*
G04 #@! TO.P,H2,1*
G04 #@! TO.N,GND*
X118840000Y-126270000D03*
G04 #@! TD*
G04 #@! TO.P,H3,1*
G04 #@! TO.N,GND*
X176840000Y-126260000D03*
G04 #@! TD*
G04 #@! TO.P,H4,1*
G04 #@! TO.N,GND*
X176840000Y-77270000D03*
G04 #@! TD*
D22*
G04 #@! TO.N,GND*
X126500000Y-102390000D03*
X141550000Y-97440000D03*
X142023400Y-98370120D03*
X136070000Y-97810000D03*
X138000000Y-97090000D03*
X138970000Y-97700000D03*
X154390000Y-115160000D03*
X158210000Y-115260000D03*
X156940000Y-112560000D03*
X167970000Y-89900000D03*
X167700000Y-88710000D03*
X168740000Y-89450000D03*
X156376943Y-87473057D03*
X158230000Y-88360000D03*
X155950000Y-96990000D03*
X156780000Y-97520000D03*
X157900000Y-93750000D03*
X148150000Y-86790000D03*
X149735000Y-88750000D03*
X150180000Y-91370000D03*
X150570000Y-86300000D03*
X147310000Y-101490000D03*
X148850000Y-106930000D03*
X143140000Y-107010000D03*
X144490000Y-107010000D03*
X138980000Y-107080000D03*
X137790000Y-107130000D03*
X133650000Y-107010000D03*
X138776942Y-87993058D03*
X127610000Y-102400000D03*
X125410000Y-102400000D03*
X127610000Y-101400000D03*
X126500000Y-101390000D03*
X125410000Y-101400000D03*
X126500000Y-103390000D03*
X127610000Y-103400000D03*
X125410000Y-103400000D03*
X124410000Y-97500000D03*
X124410000Y-98300000D03*
X124410000Y-99200000D03*
X124410000Y-100100000D03*
X127240000Y-89380000D03*
X128870000Y-89290000D03*
X128130000Y-81290000D03*
X131180000Y-104010000D03*
X131230000Y-99770000D03*
D23*
X159470000Y-97440000D03*
X156390000Y-122240000D03*
D22*
G04 #@! TO.N,+3V3*
X140791942Y-97961942D03*
X135090000Y-97810000D03*
X138940000Y-94970000D03*
X140030000Y-94450000D03*
X137410000Y-126130000D03*
X146060000Y-101510000D03*
X155670000Y-112490000D03*
X166200000Y-87690000D03*
X169400000Y-84500000D03*
X157360000Y-87740000D03*
X155342263Y-94757737D03*
X157100000Y-94850000D03*
X153110000Y-86550000D03*
X150400000Y-87550000D03*
X149770000Y-89670000D03*
X148260000Y-87720000D03*
X135630000Y-89640000D03*
X131890000Y-89630000D03*
X139670000Y-87660000D03*
D23*
X164115000Y-90880000D03*
X164129679Y-90062887D03*
D22*
G04 #@! TO.N,NRST*
X143270000Y-94470000D03*
G04 #@! TO.N,NRST_2*
X161390000Y-94300000D03*
G04 #@! TO.N,+5V*
X163820000Y-123320000D03*
X164666764Y-122333236D03*
X151540000Y-123460000D03*
X152230000Y-122250000D03*
X156040000Y-126480000D03*
X132160000Y-102310000D03*
X168620000Y-126460000D03*
X128740000Y-85050000D03*
G04 #@! TO.N,SPI1_SCK*
X164010000Y-94330000D03*
G04 #@! TO.N,SPI1_MOSI*
X164170000Y-93010000D03*
G04 #@! TO.N,SPI1_MISO*
X163430000Y-93660000D03*
G04 #@! TO.N,SPI0_SCK*
X145860000Y-94490000D03*
G04 #@! TO.N,SPI0_MISO*
X145425827Y-93818065D03*
G04 #@! TO.N,SPI0_MOSI*
X145750000Y-93070000D03*
D23*
G04 #@! TO.N,I2C2_SCL*
X141530000Y-124690000D03*
X147650000Y-124810000D03*
D22*
X143060000Y-85480000D03*
G04 #@! TO.N,I2C2_SDA*
X143742375Y-85897573D03*
X144271477Y-81121477D03*
G04 #@! TO.N,USB_D+*
X150720000Y-121805000D03*
X142735000Y-88870000D03*
G04 #@! TO.N,USB_D-*
X150720000Y-122655000D03*
X141885000Y-88870000D03*
G04 #@! TO.N,CAN2_RX*
X139360000Y-98510000D03*
X143893333Y-89028006D03*
G04 #@! TO.N,CAN2_TX*
X142990000Y-98650000D03*
X144585000Y-89430000D03*
G04 #@! TO.N,CAN3_TX*
X148660000Y-98670000D03*
X154940000Y-93550000D03*
G04 #@! TO.N,CAN3_RX*
X144780000Y-98660000D03*
X155025638Y-92656658D03*
G04 #@! TO.N,CAN4_TX*
X158210000Y-109400000D03*
X162805000Y-88920000D03*
G04 #@! TO.N,CAN4_RX*
X154450000Y-109380000D03*
X162040991Y-88682738D03*
G04 #@! TO.N,USB2_D-*
X157629479Y-105700521D03*
X159379479Y-89569479D03*
G04 #@! TO.N,USB2_D+*
X158230521Y-105099479D03*
X159980521Y-90170521D03*
G04 #@! TD*
D24*
G04 #@! TO.N,NRST*
X145210000Y-92530000D02*
X145210000Y-82650000D01*
X143270000Y-94470000D02*
X145210000Y-92530000D01*
G04 #@! TO.N,NRST_2*
X161390000Y-84590000D02*
X163330000Y-82650000D01*
X161390000Y-94300000D02*
X161390000Y-84590000D01*
D25*
G04 #@! TO.N,+5V*
X163820000Y-123180000D02*
X164666764Y-122333236D01*
X163820000Y-123320000D02*
X163820000Y-123180000D01*
X151540000Y-122940000D02*
X152230000Y-122250000D01*
X151540000Y-123460000D02*
X151540000Y-122940000D01*
X153020000Y-123460000D02*
X151540000Y-123460000D01*
X156040000Y-126480000D02*
X153020000Y-123460000D01*
X132160000Y-102462002D02*
X132160000Y-102310000D01*
X146305990Y-116555990D02*
X137530001Y-107780001D01*
X146305990Y-118021536D02*
X146305990Y-116555990D01*
X137530001Y-107780001D02*
X137477999Y-107780001D01*
X147169999Y-118885545D02*
X146305990Y-118021536D01*
X147169999Y-122296001D02*
X147169999Y-118885545D01*
X148333998Y-123460000D02*
X147169999Y-122296001D01*
X137477999Y-107780001D02*
X132160000Y-102462002D01*
X151540000Y-123460000D02*
X148333998Y-123460000D01*
X165480000Y-123320000D02*
X163820000Y-123320000D01*
X168620000Y-126460000D02*
X165480000Y-123320000D01*
X155469990Y-125909990D02*
X156040000Y-126480000D01*
X155469990Y-124867559D02*
X155469990Y-125909990D01*
X155982559Y-124354990D02*
X155469990Y-124867559D01*
X156707441Y-124354990D02*
X155982559Y-124354990D01*
X159545568Y-127193117D02*
X156707441Y-124354990D01*
X160925426Y-127193117D02*
X159545568Y-127193117D01*
X161844991Y-126273552D02*
X160925426Y-127193117D01*
X161844991Y-125295009D02*
X161844991Y-126273552D01*
X163820000Y-123320000D02*
X161844991Y-125295009D01*
D26*
X128740000Y-85369998D02*
X128740000Y-85050000D01*
X132640001Y-89269999D02*
X128740000Y-85369998D01*
X132640001Y-101829999D02*
X132640001Y-89269999D01*
X132160000Y-102310000D02*
X132640001Y-101829999D01*
G04 #@! TO.N,Net-(J7-Pad6)*
X149945000Y-127280000D02*
X151895000Y-125330000D01*
X149945000Y-128330000D02*
X149945000Y-127280000D01*
X158295000Y-127280000D02*
X156345000Y-125330000D01*
X158295000Y-128330000D02*
X158295000Y-127280000D01*
G04 #@! TO.N,Net-(J8-Pad6)*
X162445000Y-127260000D02*
X164395000Y-125310000D01*
X162445000Y-128310000D02*
X162445000Y-127260000D01*
X170795000Y-127260000D02*
X168845000Y-125310000D01*
X170795000Y-128310000D02*
X170795000Y-127260000D01*
D24*
G04 #@! TO.N,SPI1_SCK*
X170781399Y-77188601D02*
X171970000Y-76000000D01*
X170781399Y-88333603D02*
X170781399Y-77188601D01*
X164785002Y-94330000D02*
X170781399Y-88333603D01*
X164010000Y-94330000D02*
X164785002Y-94330000D01*
G04 #@! TO.N,SPI1_MOSI*
X168241399Y-77188601D02*
X169430000Y-76000000D01*
X168241399Y-78947731D02*
X168241399Y-77188601D01*
X166825001Y-80364129D02*
X168241399Y-78947731D01*
X166825001Y-90354999D02*
X166825001Y-80364129D01*
X164170000Y-93010000D02*
X166825001Y-90354999D01*
G04 #@! TO.N,SPI1_MISO*
X164255010Y-83308151D02*
X164255010Y-81174990D01*
X164255010Y-81174990D02*
X166890000Y-78540000D01*
X163430000Y-84133161D02*
X164255010Y-83308151D01*
X163430000Y-93660000D02*
X163430000Y-84133161D01*
G04 #@! TO.N,SPI0_SCK*
X151650000Y-88700000D02*
X151650000Y-78540000D01*
X145860000Y-94490000D02*
X151650000Y-88700000D01*
G04 #@! TO.N,SPI0_MISO*
X145425827Y-93818065D02*
X145895525Y-93818065D01*
X149110000Y-90603590D02*
X149110000Y-78540000D01*
X145895525Y-93818065D02*
X149110000Y-90603590D01*
G04 #@! TO.N,SPI0_MOSI*
X146284990Y-78825010D02*
X146570000Y-78540000D01*
X146284990Y-92535010D02*
X146284990Y-78825010D01*
X145750000Y-93070000D02*
X146284990Y-92535010D01*
D26*
G04 #@! TO.N,I2C2_SCL*
X147530000Y-124690000D02*
X147650000Y-124810000D01*
X141530000Y-124690000D02*
X147530000Y-124690000D01*
D24*
X142456839Y-85480000D02*
X143060000Y-85480000D01*
X140284990Y-83308151D02*
X142456839Y-85480000D01*
X140284990Y-82141829D02*
X140284990Y-83308151D01*
X137871762Y-79728601D02*
X140284990Y-82141829D01*
X129978601Y-79728601D02*
X137871762Y-79728601D01*
X128790000Y-78540000D02*
X129978601Y-79728601D01*
G04 #@! TO.N,I2C2_SDA*
X143742375Y-84915516D02*
X143742375Y-85897573D01*
X142135010Y-83308151D02*
X143742375Y-84915516D01*
X142135010Y-81991849D02*
X142135010Y-83308151D01*
X140138601Y-79995440D02*
X142135010Y-81991849D01*
X140138601Y-77969471D02*
X140138601Y-79995440D01*
X139520529Y-77351399D02*
X140138601Y-77969471D01*
X127438601Y-77351399D02*
X139520529Y-77351399D01*
X126250000Y-78540000D02*
X127438601Y-77351399D01*
X144271477Y-85368471D02*
X143742375Y-85897573D01*
X144271477Y-81121477D02*
X144271477Y-85368471D01*
D27*
G04 #@! TO.N,USB_D+*
X150506397Y-121805000D02*
X149995000Y-121293603D01*
X150720000Y-121805000D02*
X150506397Y-121805000D01*
X149995000Y-121293603D02*
X149995000Y-110056800D01*
X141769982Y-93802554D02*
X142535000Y-93037536D01*
X142535000Y-102596800D02*
X142535000Y-102573002D01*
X142535000Y-102573002D02*
X137399999Y-97438001D01*
X137711999Y-96489999D02*
X140778947Y-96489999D01*
X149995000Y-110056800D02*
X142535000Y-102596800D01*
X141769980Y-95498966D02*
X141769982Y-93802554D01*
X140778947Y-96489999D02*
X141769980Y-95498966D01*
X137399999Y-96801999D02*
X137711999Y-96489999D01*
X142535000Y-89070000D02*
X142735000Y-88870000D01*
X137399999Y-97438001D02*
X137399999Y-96801999D01*
X142535000Y-93037536D02*
X142535000Y-89070000D01*
G04 #@! TO.N,USB_D-*
X149545000Y-121480000D02*
X149545000Y-110243200D01*
X150720000Y-122655000D02*
X149545000Y-121480000D01*
X140592556Y-96040008D02*
X141319990Y-95312574D01*
X141319992Y-93616162D02*
X142085000Y-92851154D01*
X136950008Y-96615607D02*
X137525607Y-96040008D01*
X142085000Y-92851154D02*
X142085000Y-89070000D01*
X136950008Y-97624393D02*
X136950008Y-96615607D01*
X142085000Y-102759385D02*
X136950008Y-97624393D01*
X142085000Y-102783200D02*
X142085000Y-102759385D01*
X149545000Y-110243200D02*
X142085000Y-102783200D01*
X141319990Y-95312574D02*
X141319992Y-93616162D01*
X137525607Y-96040008D02*
X140592556Y-96040008D01*
X142085000Y-89070000D02*
X141885000Y-88870000D01*
D24*
G04 #@! TO.N,CAN2_RX*
X139360000Y-98510000D02*
X142194989Y-95675011D01*
X142194989Y-95675011D02*
X142194990Y-93978600D01*
X143893333Y-92280257D02*
X143893333Y-89028006D01*
X142194990Y-93978600D02*
X143893333Y-92280257D01*
G04 #@! TO.N,CAN2_TX*
X142644999Y-94165001D02*
X144759990Y-92050010D01*
X142644999Y-98304999D02*
X142644999Y-94165001D01*
X142990000Y-98650000D02*
X142644999Y-98304999D01*
X144759990Y-89604990D02*
X144585000Y-89430000D01*
X144759990Y-92050010D02*
X144759990Y-89604990D01*
G04 #@! TO.N,CAN3_TX*
X152634998Y-93550000D02*
X154940000Y-93550000D01*
X148660000Y-97524998D02*
X152634998Y-93550000D01*
X148660000Y-98670000D02*
X148660000Y-97524998D01*
G04 #@! TO.N,CAN3_RX*
X144780000Y-98660000D02*
X146770000Y-96670000D01*
X146770000Y-96670000D02*
X148878588Y-96670000D01*
X152891930Y-92656658D02*
X155025638Y-92656658D01*
X148878588Y-96670000D02*
X152891930Y-92656658D01*
G04 #@! TO.N,CAN4_TX*
X162805000Y-104805000D02*
X162805000Y-88920000D01*
X158210000Y-109400000D02*
X162805000Y-104805000D01*
G04 #@! TO.N,CAN4_RX*
X154450000Y-109380000D02*
X155528205Y-108301795D01*
X155528205Y-108301795D02*
X158671795Y-108301795D01*
X162040991Y-104932599D02*
X162040991Y-88682738D01*
X158671795Y-108301795D02*
X162040991Y-104932599D01*
D27*
G04 #@! TO.N,USB2_D-*
X159379479Y-89809589D02*
X159379479Y-89569479D01*
X159330539Y-89858529D02*
X159379479Y-89809589D01*
X159330539Y-89901262D02*
X159330539Y-89858529D01*
X157629479Y-91602322D02*
X159330539Y-89901262D01*
X157629479Y-93132519D02*
X157629479Y-91602322D01*
X157299999Y-93461999D02*
X157629479Y-93132519D01*
X157299999Y-94038001D02*
X157299999Y-93461999D01*
X157700001Y-94438003D02*
X157299999Y-94038001D01*
X157700001Y-95138001D02*
X157700001Y-94438003D01*
X157629479Y-95208523D02*
X157700001Y-95138001D01*
X157629479Y-105700521D02*
X157629479Y-95208523D01*
G04 #@! TO.N,USB2_D+*
X158500001Y-94974384D02*
X158500001Y-93461999D01*
X158230521Y-105099479D02*
X158079479Y-104948437D01*
X158079479Y-104948437D02*
X158079479Y-95394906D01*
X158079479Y-91788720D02*
X159648738Y-90219461D01*
X158079479Y-95394906D02*
X158500001Y-94974384D01*
X158500001Y-93461999D02*
X158079479Y-93041477D01*
X159648738Y-90219461D02*
X159691471Y-90219461D01*
X159691471Y-90219461D02*
X159740411Y-90170521D01*
X159740411Y-90170521D02*
X159980521Y-90170521D01*
X158079479Y-93041477D02*
X158079479Y-91788720D01*
G04 #@! TD*
M02*
